  0
SECTION
  2
HEADER
  9
$ANGBASE
  50
0.0
  9
$ANGDIR
  70
1
  9
$MEASUREMENT
  70
0
  0
ENDSEC
  0
SECTION
  2
TABLES
  0
TABLE
  2
LTYPE
  70
4
  0
LTYPE
  5
40F
  2
CONTINUOUS
  70
0
  3
Solid line
  72
65
  73
0
  40
0.0
  0
LTYPE
  5
410
  2
DASHDOT
 70
0
  3
Dash Dot ____ _ ____ _
 72
65
 73
4
 40
2.0
 49
1.25
 49
-0.25
 49
0.25
 49
-0.25
  0
LTYPE
  5
411
  2
DASHED
 70
0
  3
Dashed __ __ __ __ __
 72
65
 73
2
 40
0.75
 49
0.5
 49
-0.25
  0
LTYPE
  5
43B
  2
DOTTED
 70
0
  3
Dotted .  .  .  .
 72
65
 73
2
 40
0.2
 49
0.0
 49
-0.2
  0
ENDTAB
  0
TABLE
  2
STYLE
  70
4
  0
STYLE
  2
KICAD
  70
0
  40
0
  41
1
  42
1
  50
0
  71
0
  3
isocp.shx
  0
STYLE
  2
KICADB
  70
0
  40
0
  41
1
  42
1
  50
0
  71
0
  3
isocp.shx
  0
STYLE
  2
KICADI
  70
0
  40
0
  41
1
  42
1
  50
15
  71
0
  3
isocp.shx
  0
STYLE
  2
KICADBI
  70
0
  40
0
  41
1
  42
1
  50
15
  71
0
  3
isocp.shx
  0
ENDTAB
  0
TABLE
  2
LAYER
  70
1
  0
LAYER
  2
BLACK
  70
0
  62
7
  6
CONTINUOUS
  0
ENDTAB
  0
ENDSEC
  0
SECTION
  2
ENTITIES
0
LINE
8
BLACK
6
CONTINUOUS
10
5.4916137401574803
20
-4.8417848425196848
11
5.5030287795275585
21
-4.8440554330708663
0
LINE
8
BLACK
6
CONTINUOUS
10
5.5030287795275585
20
-4.8440554330708663
11
5.5140498031496064
21
-4.847796535433071
0
LINE
8
BLACK
6
CONTINUOUS
10
5.5140498031496064
20
-4.847796535433071
11
5.5244881889763775
21
-4.852944212598425
0
LINE
8
BLACK
6
CONTINUOUS
10
5.5244881889763775
20
-4.852944212598425
11
5.5341653937007873
21
-4.8594102755905508
0
LINE
8
BLACK
6
CONTINUOUS
10
5.5341653937007873
20
-4.8594102755905508
11
5.5429157874015749
21
-4.8670842125984253
0
LINE
8
BLACK
6
CONTINUOUS
10
5.5429157874015749
20
-4.8670842125984253
11
5.5505897244094484
21
-4.8758346062992128
0
LINE
8
BLACK
6
CONTINUOUS
10
5.5505897244094484
20
-4.8758346062992128
11
5.5570557874015742
21
-4.8855118110236218
0
LINE
8
BLACK
6
CONTINUOUS
10
5.5570557874015742
20
-4.8855118110236218
11
5.5622034645669292
21
-4.8959501968503938
0
LINE
8
BLACK
6
CONTINUOUS
10
5.5622034645669292
20
-4.8959501968503938
11
5.5659445669291339
21
-4.9069712204724407
0
LINE
8
BLACK
6
CONTINUOUS
10
5.5659445669291339
20
-4.9069712204724407
11
5.5682151574803145
21
-4.9183862598425199
0
LINE
8
BLACK
6
CONTINUOUS
10
5.5682151574803145
20
-4.9183862598425199
11
5.5689763779527555
21
-4.9299999999999997
0
LINE
8
BLACK
6
CONTINUOUS
10
5.5689763779527555
20
-4.9299999999999997
11
5.5682151574803145
21
-4.9416137401574804
0
LINE
8
BLACK
6
CONTINUOUS
10
5.5682151574803145
20
-4.9416137401574804
11
5.5659445669291339
21
-4.9530287795275587
0
LINE
8
BLACK
6
CONTINUOUS
10
5.5659445669291339
20
-4.9530287795275587
11
5.5622034645669292
21
-4.9640498031496065
0
LINE
8
BLACK
6
CONTINUOUS
10
5.5622034645669292
20
-4.9640498031496065
11
5.5570557874015742
21
-4.9744881889763777
0
LINE
8
BLACK
6
CONTINUOUS
10
5.5570557874015742
20
-4.9744881889763777
11
5.5505897244094484
21
-4.9841653937007875
0
LINE
8
BLACK
6
CONTINUOUS
10
5.5505897244094484
20
-4.9841653937007875
11
5.5429157874015749
21
-4.992915787401575
0
LINE
8
BLACK
6
CONTINUOUS
10
5.5429157874015749
20
-4.992915787401575
11
5.5341653937007873
21
-5.0005897244094486
0
LINE
8
BLACK
6
CONTINUOUS
10
5.5341653937007873
20
-5.0005897244094486
11
5.5244881889763775
21
-5.0070557874015744
0
LINE
8
BLACK
6
CONTINUOUS
10
5.5244881889763775
20
-5.0070557874015744
11
5.5140498031496064
21
-5.0122034645669293
0
LINE
8
BLACK
6
CONTINUOUS
10
5.5140498031496064
20
-5.0122034645669293
11
5.5030287795275585
21
-5.015944566929134
0
LINE
8
BLACK
6
CONTINUOUS
10
5.5030287795275585
20
-5.015944566929134
11
5.4916137401574803
21
-5.0182151574803147
0
LINE
8
BLACK
6
CONTINUOUS
10
5.4916137401574803
20
-5.0182151574803147
11
5.4799999999999995
21
-5.0189763779527556
0
LINE
8
BLACK
6
CONTINUOUS
10
5.4799999999999995
20
-5.0189763779527556
11
5.4683862598425197
21
-5.0182151574803147
0
LINE
8
BLACK
6
CONTINUOUS
10
5.4683862598425197
20
-5.0182151574803147
11
5.4569712204724405
21
-5.015944566929134
0
LINE
8
BLACK
6
CONTINUOUS
10
5.4569712204724405
20
-5.015944566929134
11
5.4459501968503936
21
-5.0122034645669293
0
LINE
8
BLACK
6
CONTINUOUS
10
5.4459501968503936
20
-5.0122034645669293
11
5.4355118110236216
21
-5.0070557874015744
0
LINE
8
BLACK
6
CONTINUOUS
10
5.4355118110236216
20
-5.0070557874015744
11
5.4258346062992127
21
-5.0005897244094486
0
LINE
8
BLACK
6
CONTINUOUS
10
5.4258346062992127
20
-5.0005897244094486
11
5.4170842125984251
21
-4.992915787401575
0
LINE
8
BLACK
6
CONTINUOUS
10
5.4170842125984251
20
-4.992915787401575
11
5.4094102755905507
21
-4.9841653937007875
0
LINE
8
BLACK
6
CONTINUOUS
10
5.4094102755905507
20
-4.9841653937007875
11
5.4029442125984248
21
-4.9744881889763777
0
LINE
8
BLACK
6
CONTINUOUS
10
5.4029442125984248
20
-4.9744881889763777
11
5.3977965354330708
21
-4.9640498031496065
0
LINE
8
BLACK
6
CONTINUOUS
10
5.3977965354330708
20
-4.9640498031496065
11
5.3940554330708661
21
-4.9530287795275587
0
LINE
8
BLACK
6
CONTINUOUS
10
5.3940554330708661
20
-4.9530287795275587
11
5.3917848425196846
21
-4.9416137401574804
0
LINE
8
BLACK
6
CONTINUOUS
10
5.3917848425196846
20
-4.9416137401574804
11
5.3910236220472436
21
-4.9299999999999997
0
LINE
8
BLACK
6
CONTINUOUS
10
5.3910236220472436
20
-4.9299999999999997
11
5.3917848425196846
21
-4.9183862598425199
0
LINE
8
BLACK
6
CONTINUOUS
10
5.3917848425196846
20
-4.9183862598425199
11
5.3940554330708661
21
-4.9069712204724407
0
LINE
8
BLACK
6
CONTINUOUS
10
5.3940554330708661
20
-4.9069712204724407
11
5.3977965354330708
21
-4.8959501968503938
0
LINE
8
BLACK
6
CONTINUOUS
10
5.3977965354330708
20
-4.8959501968503938
11
5.4029442125984248
21
-4.8855118110236218
0
LINE
8
BLACK
6
CONTINUOUS
10
5.4029442125984248
20
-4.8855118110236218
11
5.4094102755905507
21
-4.8758346062992128
0
LINE
8
BLACK
6
CONTINUOUS
10
5.4094102755905507
20
-4.8758346062992128
11
5.4170842125984251
21
-4.8670842125984253
0
LINE
8
BLACK
6
CONTINUOUS
10
5.4170842125984251
20
-4.8670842125984253
11
5.4258346062992127
21
-4.8594102755905508
0
LINE
8
BLACK
6
CONTINUOUS
10
5.4258346062992127
20
-4.8594102755905508
11
5.4355118110236216
21
-4.852944212598425
0
LINE
8
BLACK
6
CONTINUOUS
10
5.4355118110236216
20
-4.852944212598425
11
5.4459501968503936
21
-4.847796535433071
0
LINE
8
BLACK
6
CONTINUOUS
10
5.4459501968503936
20
-4.847796535433071
11
5.4569712204724405
21
-4.8440554330708663
0
LINE
8
BLACK
6
CONTINUOUS
10
5.4569712204724405
20
-4.8440554330708663
11
5.4683862598425197
21
-4.8417848425196848
0
LINE
8
BLACK
6
CONTINUOUS
10
5.4683862598425197
20
-4.8417848425196848
11
5.4799999999999995
21
-4.8410236220472438
0
LINE
8
BLACK
6
CONTINUOUS
10
5.4799999999999995
20
-4.8410236220472438
11
5.4916137401574803
21
-4.8417848425196848
0
LINE
8
BLACK
6
CONTINUOUS
10
5.3963377559055115
20
-4.9414990944881891
11
5.3986827559055115
21
-4.9527840157480316
0
LINE
8
BLACK
6
CONTINUOUS
10
5.3986827559055115
20
-4.9527840157480316
11
5.4025425984251969
21
-4.9636444881889759
0
LINE
8
BLACK
6
CONTINUOUS
10
5.4025425984251969
20
-4.9636444881889759
11
5.4078452755905513
21
-4.9738782677165352
0
LINE
8
BLACK
6
CONTINUOUS
10
5.4078452755905513
20
-4.9738782677165352
11
5.4144920866141728
21
-4.9832946456692913
0
LINE
8
BLACK
6
CONTINUOUS
10
5.4144920866141728
20
-4.9832946456692913
11
5.4223592125984252
21
-4.991718228346457
0
LINE
8
BLACK
6
CONTINUOUS
10
5.4223592125984252
20
-4.991718228346457
11
5.431300039370079
21
-4.9989921259842518
0
LINE
8
BLACK
6
CONTINUOUS
10
5.431300039370079
20
-4.9989921259842518
11
5.4411480314960627
21
-5.0049808661417323
0
LINE
8
BLACK
6
CONTINUOUS
10
5.4411480314960627
20
-5.0049808661417323
11
5.4517198031496061
21
-5.0095728346456694
0
LINE
8
BLACK
6
CONTINUOUS
10
5.4517198031496061
20
-5.0095728346456694
11
5.4628183858267718
21
-5.0126824803149601
0
LINE
8
BLACK
6
CONTINUOUS
10
5.4628183858267718
20
-5.0126824803149601
11
5.4742370078740157
21
-5.0142519685039373
0
LINE
8
BLACK
6
CONTINUOUS
10
5.4742370078740157
20
-5.0142519685039373
11
5.4857629921259843
21
-5.0142519685039373
0
LINE
8
BLACK
6
CONTINUOUS
10
5.4857629921259843
20
-5.0142519685039373
11
5.4971816141732281
21
-5.0126824803149601
0
LINE
8
BLACK
6
CONTINUOUS
10
5.4971816141732281
20
-5.0126824803149601
11
5.5082801968503938
21
-5.0095728346456694
0
LINE
8
BLACK
6
CONTINUOUS
10
5.5082801968503938
20
-5.0095728346456694
11
5.5188519685039372
21
-5.0049808661417323
0
LINE
8
BLACK
6
CONTINUOUS
10
5.5188519685039372
20
-5.0049808661417323
11
5.528699960629921
21
-4.9989921259842518
0
LINE
8
BLACK
6
CONTINUOUS
10
5.528699960629921
20
-4.9989921259842518
11
5.5376407874015747
21
-4.991718228346457
0
LINE
8
BLACK
6
CONTINUOUS
10
5.5376407874015747
20
-4.991718228346457
11
5.5455079133858263
21
-4.9832946456692913
0
LINE
8
BLACK
6
CONTINUOUS
10
5.5455079133858263
20
-4.9832946456692913
11
5.5521547244094487
21
-4.9738782677165352
0
LINE
8
BLACK
6
CONTINUOUS
10
5.5521547244094487
20
-4.9738782677165352
11
5.5574574015748031
21
-4.9636444881889759
0
LINE
8
BLACK
6
CONTINUOUS
10
5.5574574015748031
20
-4.9636444881889759
11
5.5613172440944885
21
-4.9527840157480316
0
LINE
8
BLACK
6
CONTINUOUS
10
5.5613172440944885
20
-4.9527840157480316
11
5.5636622440944876
21
-4.9414990944881891
0
LINE
8
BLACK
6
CONTINUOUS
10
5.5636622440944876
20
-4.9414990944881891
11
5.5644488188976373
21
-4.9299999999999997
0
LINE
8
BLACK
6
CONTINUOUS
10
5.5644488188976373
20
-4.9299999999999997
11
5.5636622440944876
21
-4.9185009055118112
0
LINE
8
BLACK
6
CONTINUOUS
10
5.5636622440944876
20
-4.9185009055118112
11
5.5613172440944885
21
-4.9072159842519687
0
LINE
8
BLACK
6
CONTINUOUS
10
5.5613172440944885
20
-4.9072159842519687
11
5.5574574015748031
21
-4.8963555118110236
0
LINE
8
BLACK
6
CONTINUOUS
10
5.5574574015748031
20
-4.8963555118110236
11
5.5521547244094487
21
-4.8861217322834642
0
LINE
8
BLACK
6
CONTINUOUS
10
5.5521547244094487
20
-4.8861217322834642
11
5.5455079133858263
21
-4.8767053543307082
0
LINE
8
BLACK
6
CONTINUOUS
10
5.5455079133858263
20
-4.8767053543307082
11
5.5376407874015747
21
-4.8682817716535434
0
LINE
8
BLACK
6
CONTINUOUS
10
5.5376407874015747
20
-4.8682817716535434
11
5.528699960629921
21
-4.8610078740157476
0
LINE
8
BLACK
6
CONTINUOUS
10
5.528699960629921
20
-4.8610078740157476
11
5.5188519685039372
21
-4.855019133858268
0
LINE
8
BLACK
6
CONTINUOUS
10
5.5188519685039372
20
-4.855019133858268
11
5.5082801968503938
21
-4.8504271653543309
0
LINE
8
BLACK
6
CONTINUOUS
10
5.5082801968503938
20
-4.8504271653543309
11
5.4971816141732281
21
-4.8473175196850393
0
LINE
8
BLACK
6
CONTINUOUS
10
5.4971816141732281
20
-4.8473175196850393
11
5.4857629921259843
21
-4.845748031496063
0
LINE
8
BLACK
6
CONTINUOUS
10
5.4857629921259843
20
-4.845748031496063
11
5.4742370078740157
21
-4.845748031496063
0
LINE
8
BLACK
6
CONTINUOUS
10
5.4742370078740157
20
-4.845748031496063
11
5.4628183858267718
21
-4.8473175196850393
0
LINE
8
BLACK
6
CONTINUOUS
10
5.4628183858267718
20
-4.8473175196850393
11
5.4517198031496061
21
-4.8504271653543309
0
LINE
8
BLACK
6
CONTINUOUS
10
5.4517198031496061
20
-4.8504271653543309
11
5.4411480314960627
21
-4.855019133858268
0
LINE
8
BLACK
6
CONTINUOUS
10
5.4411480314960627
20
-4.855019133858268
11
5.431300039370079
21
-4.8610078740157476
0
LINE
8
BLACK
6
CONTINUOUS
10
5.431300039370079
20
-4.8610078740157476
11
5.4223592125984252
21
-4.8682817716535434
0
LINE
8
BLACK
6
CONTINUOUS
10
5.4223592125984252
20
-4.8682817716535434
11
5.4144920866141728
21
-4.8767053543307082
0
LINE
8
BLACK
6
CONTINUOUS
10
5.4144920866141728
20
-4.8767053543307082
11
5.4078452755905513
21
-4.8861217322834642
0
LINE
8
BLACK
6
CONTINUOUS
10
5.4078452755905513
20
-4.8861217322834642
11
5.4025425984251969
21
-4.8963555118110236
0
LINE
8
BLACK
6
CONTINUOUS
10
5.4025425984251969
20
-4.8963555118110236
11
5.3986827559055115
21
-4.9072159842519687
0
LINE
8
BLACK
6
CONTINUOUS
10
5.3986827559055115
20
-4.9072159842519687
11
5.3963377559055115
21
-4.9185009055118112
0
LINE
8
BLACK
6
CONTINUOUS
10
5.3963377559055115
20
-4.9185009055118112
11
5.3955511811023618
21
-4.9299999999999997
0
LINE
8
BLACK
6
CONTINUOUS
10
5.3955511811023618
20
-4.9299999999999997
11
5.3963377559055115
21
-4.9414990944881891
0
LINE
8
BLACK
6
CONTINUOUS
10
2.2716137401574801
20
-4.3817848425196848
11
2.2830287795275588
21
-4.3840554330708663
0
LINE
8
BLACK
6
CONTINUOUS
10
2.2830287795275588
20
-4.3840554330708663
11
2.2940498031496062
21
-4.387796535433071
0
LINE
8
BLACK
6
CONTINUOUS
10
2.2940498031496062
20
-4.387796535433071
11
2.3044881889763777
21
-4.392944212598425
0
LINE
8
BLACK
6
CONTINUOUS
10
2.3044881889763777
20
-4.392944212598425
11
2.3141653937007876
21
-4.3994102755905509
0
LINE
8
BLACK
6
CONTINUOUS
10
2.3141653937007876
20
-4.3994102755905509
11
2.3229157874015747
21
-4.4070842125984253
0
LINE
8
BLACK
6
CONTINUOUS
10
2.3229157874015747
20
-4.4070842125984253
11
2.3305897244094487
21
-4.4158346062992129
0
LINE
8
BLACK
6
CONTINUOUS
10
2.3305897244094487
20
-4.4158346062992129
11
2.3370557874015749
21
-4.4255118110236218
0
LINE
8
BLACK
6
CONTINUOUS
10
2.3370557874015749
20
-4.4255118110236218
11
2.342203464566929
21
-4.4359501968503938
0
LINE
8
BLACK
6
CONTINUOUS
10
2.342203464566929
20
-4.4359501968503938
11
2.3459445669291337
21
-4.4469712204724408
0
LINE
8
BLACK
6
CONTINUOUS
10
2.3459445669291337
20
-4.4469712204724408
11
2.3482151574803147
21
-4.4583862598425199
0
LINE
8
BLACK
6
CONTINUOUS
10
2.3482151574803147
20
-4.4583862598425199
11
2.3489763779527557
21
-4.4699999999999998
0
LINE
8
BLACK
6
CONTINUOUS
10
2.3489763779527557
20
-4.4699999999999998
11
2.3482151574803147
21
-4.4816137401574805
0
LINE
8
BLACK
6
CONTINUOUS
10
2.3482151574803147
20
-4.4816137401574805
11
2.3459445669291337
21
-4.4930287795275587
0
LINE
8
BLACK
6
CONTINUOUS
10
2.3459445669291337
20
-4.4930287795275587
11
2.342203464566929
21
-4.5040498031496066
0
LINE
8
BLACK
6
CONTINUOUS
10
2.342203464566929
20
-4.5040498031496066
11
2.3370557874015749
21
-4.5144881889763777
0
LINE
8
BLACK
6
CONTINUOUS
10
2.3370557874015749
20
-4.5144881889763777
11
2.3305897244094487
21
-4.5241653937007875
0
LINE
8
BLACK
6
CONTINUOUS
10
2.3305897244094487
20
-4.5241653937007875
11
2.3229157874015747
21
-4.5329157874015751
0
LINE
8
BLACK
6
CONTINUOUS
10
2.3229157874015747
20
-4.5329157874015751
11
2.3141653937007876
21
-4.5405897244094486
0
LINE
8
BLACK
6
CONTINUOUS
10
2.3141653937007876
20
-4.5405897244094486
11
2.3044881889763777
21
-4.5470557874015745
0
LINE
8
BLACK
6
CONTINUOUS
10
2.3044881889763777
20
-4.5470557874015745
11
2.2940498031496062
21
-4.5522034645669294
0
LINE
8
BLACK
6
CONTINUOUS
10
2.2940498031496062
20
-4.5522034645669294
11
2.2830287795275588
21
-4.5559445669291341
0
LINE
8
BLACK
6
CONTINUOUS
10
2.2830287795275588
20
-4.5559445669291341
11
2.2716137401574801
21
-4.5582151574803147
0
LINE
8
BLACK
6
CONTINUOUS
10
2.2716137401574801
20
-4.5582151574803147
11
2.2599999999999998
21
-4.5589763779527557
0
LINE
8
BLACK
6
CONTINUOUS
10
2.2599999999999998
20
-4.5589763779527557
11
2.2483862598425195
21
-4.5582151574803147
0
LINE
8
BLACK
6
CONTINUOUS
10
2.2483862598425195
20
-4.5582151574803147
11
2.2369712204724408
21
-4.5559445669291341
0
LINE
8
BLACK
6
CONTINUOUS
10
2.2369712204724408
20
-4.5559445669291341
11
2.2259501968503939
21
-4.5522034645669294
0
LINE
8
BLACK
6
CONTINUOUS
10
2.2259501968503939
20
-4.5522034645669294
11
2.2155118110236218
21
-4.5470557874015745
0
LINE
8
BLACK
6
CONTINUOUS
10
2.2155118110236218
20
-4.5470557874015745
11
2.2058346062992125
21
-4.5405897244094486
0
LINE
8
BLACK
6
CONTINUOUS
10
2.2058346062992125
20
-4.5405897244094486
11
2.1970842125984253
21
-4.5329157874015751
0
LINE
8
BLACK
6
CONTINUOUS
10
2.1970842125984253
20
-4.5329157874015751
11
2.1894102755905513
21
-4.5241653937007875
0
LINE
8
BLACK
6
CONTINUOUS
10
2.1894102755905513
20
-4.5241653937007875
11
2.1829442125984251
21
-4.5144881889763777
0
LINE
8
BLACK
6
CONTINUOUS
10
2.1829442125984251
20
-4.5144881889763777
11
2.1777965354330706
21
-4.5040498031496066
0
LINE
8
BLACK
6
CONTINUOUS
10
2.1777965354330706
20
-4.5040498031496066
11
2.1740554330708659
21
-4.4930287795275587
0
LINE
8
BLACK
6
CONTINUOUS
10
2.1740554330708659
20
-4.4930287795275587
11
2.1717848425196848
21
-4.4816137401574805
0
LINE
8
BLACK
6
CONTINUOUS
10
2.1717848425196848
20
-4.4816137401574805
11
2.1710236220472439
21
-4.4699999999999998
0
LINE
8
BLACK
6
CONTINUOUS
10
2.1710236220472439
20
-4.4699999999999998
11
2.1717848425196848
21
-4.4583862598425199
0
LINE
8
BLACK
6
CONTINUOUS
10
2.1717848425196848
20
-4.4583862598425199
11
2.1740554330708659
21
-4.4469712204724408
0
LINE
8
BLACK
6
CONTINUOUS
10
2.1740554330708659
20
-4.4469712204724408
11
2.1777965354330706
21
-4.4359501968503938
0
LINE
8
BLACK
6
CONTINUOUS
10
2.1777965354330706
20
-4.4359501968503938
11
2.1829442125984251
21
-4.4255118110236218
0
LINE
8
BLACK
6
CONTINUOUS
10
2.1829442125984251
20
-4.4255118110236218
11
2.1894102755905513
21
-4.4158346062992129
0
LINE
8
BLACK
6
CONTINUOUS
10
2.1894102755905513
20
-4.4158346062992129
11
2.1970842125984253
21
-4.4070842125984253
0
LINE
8
BLACK
6
CONTINUOUS
10
2.1970842125984253
20
-4.4070842125984253
11
2.2058346062992125
21
-4.3994102755905509
0
LINE
8
BLACK
6
CONTINUOUS
10
2.2058346062992125
20
-4.3994102755905509
11
2.2155118110236218
21
-4.392944212598425
0
LINE
8
BLACK
6
CONTINUOUS
10
2.2155118110236218
20
-4.392944212598425
11
2.2259501968503939
21
-4.387796535433071
0
LINE
8
BLACK
6
CONTINUOUS
10
2.2259501968503939
20
-4.387796535433071
11
2.2369712204724408
21
-4.3840554330708663
0
LINE
8
BLACK
6
CONTINUOUS
10
2.2369712204724408
20
-4.3840554330708663
11
2.2483862598425195
21
-4.3817848425196848
0
LINE
8
BLACK
6
CONTINUOUS
10
2.2483862598425195
20
-4.3817848425196848
11
2.2599999999999998
21
-4.3810236220472438
0
LINE
8
BLACK
6
CONTINUOUS
10
2.2599999999999998
20
-4.3810236220472438
11
2.2716137401574801
21
-4.3817848425196848
0
LINE
8
BLACK
6
CONTINUOUS
10
2.1763377559055117
20
-4.4814990944881892
11
2.1786827559055117
21
-4.4927840157480317
0
LINE
8
BLACK
6
CONTINUOUS
10
2.1786827559055117
20
-4.4927840157480317
11
2.1825425984251967
21
-4.5036444881889759
0
LINE
8
BLACK
6
CONTINUOUS
10
2.1825425984251967
20
-4.5036444881889759
11
2.1878452755905511
21
-4.5138782677165352
0
LINE
8
BLACK
6
CONTINUOUS
10
2.1878452755905511
20
-4.5138782677165352
11
2.1944920866141731
21
-4.5232946456692913
0
LINE
8
BLACK
6
CONTINUOUS
10
2.1944920866141731
20
-4.5232946456692913
11
2.202359212598425
21
-4.531718228346457
0
LINE
8
BLACK
6
CONTINUOUS
10
2.202359212598425
20
-4.531718228346457
11
2.2113000393700788
21
-4.5389921259842518
0
LINE
8
BLACK
6
CONTINUOUS
10
2.2113000393700788
20
-4.5389921259842518
11
2.221148031496063
21
-4.5449808661417324
0
LINE
8
BLACK
6
CONTINUOUS
10
2.221148031496063
20
-4.5449808661417324
11
2.2317198031496064
21
-4.5495728346456694
0
LINE
8
BLACK
6
CONTINUOUS
10
2.2317198031496064
20
-4.5495728346456694
11
2.2428183858267716
21
-4.5526824803149601
0
LINE
8
BLACK
6
CONTINUOUS
10
2.2428183858267716
20
-4.5526824803149601
11
2.2542370078740155
21
-4.5542519685039373
0
LINE
8
BLACK
6
CONTINUOUS
10
2.2542370078740155
20
-4.5542519685039373
11
2.2657629921259841
21
-4.5542519685039373
0
LINE
8
BLACK
6
CONTINUOUS
10
2.2657629921259841
20
-4.5542519685039373
11
2.2771816141732284
21
-4.5526824803149601
0
LINE
8
BLACK
6
CONTINUOUS
10
2.2771816141732284
20
-4.5526824803149601
11
2.2882801968503936
21
-4.5495728346456694
0
LINE
8
BLACK
6
CONTINUOUS
10
2.2882801968503936
20
-4.5495728346456694
11
2.298851968503937
21
-4.5449808661417324
0
LINE
8
BLACK
6
CONTINUOUS
10
2.298851968503937
20
-4.5449808661417324
11
2.3086999606299212
21
-4.5389921259842518
0
LINE
8
BLACK
6
CONTINUOUS
10
2.3086999606299212
20
-4.5389921259842518
11
2.3176407874015745
21
-4.531718228346457
0
LINE
8
BLACK
6
CONTINUOUS
10
2.3176407874015745
20
-4.531718228346457
11
2.3255079133858265
21
-4.5232946456692913
0
LINE
8
BLACK
6
CONTINUOUS
10
2.3255079133858265
20
-4.5232946456692913
11
2.3321547244094489
21
-4.5138782677165352
0
LINE
8
BLACK
6
CONTINUOUS
10
2.3321547244094489
20
-4.5138782677165352
11
2.3374574015748033
21
-4.5036444881889759
0
LINE
8
BLACK
6
CONTINUOUS
10
2.3374574015748033
20
-4.5036444881889759
11
2.3413172440944883
21
-4.4927840157480317
0
LINE
8
BLACK
6
CONTINUOUS
10
2.3413172440944883
20
-4.4927840157480317
11
2.3436622440944883
21
-4.4814990944881892
0
LINE
8
BLACK
6
CONTINUOUS
10
2.3436622440944883
20
-4.4814990944881892
11
2.3444488188976376
21
-4.4699999999999998
0
LINE
8
BLACK
6
CONTINUOUS
10
2.3444488188976376
20
-4.4699999999999998
11
2.3436622440944883
21
-4.4585009055118112
0
LINE
8
BLACK
6
CONTINUOUS
10
2.3436622440944883
20
-4.4585009055118112
11
2.3413172440944883
21
-4.4472159842519687
0
LINE
8
BLACK
6
CONTINUOUS
10
2.3413172440944883
20
-4.4472159842519687
11
2.3374574015748033
21
-4.4363555118110236
0
LINE
8
BLACK
6
CONTINUOUS
10
2.3374574015748033
20
-4.4363555118110236
11
2.3321547244094489
21
-4.4261217322834643
0
LINE
8
BLACK
6
CONTINUOUS
10
2.3321547244094489
20
-4.4261217322834643
11
2.3255079133858265
21
-4.4167053543307082
0
LINE
8
BLACK
6
CONTINUOUS
10
2.3255079133858265
20
-4.4167053543307082
11
2.3176407874015745
21
-4.4082817716535434
0
LINE
8
BLACK
6
CONTINUOUS
10
2.3176407874015745
20
-4.4082817716535434
11
2.3086999606299212
21
-4.4010078740157477
0
LINE
8
BLACK
6
CONTINUOUS
10
2.3086999606299212
20
-4.4010078740157477
11
2.298851968503937
21
-4.395019133858268
0
LINE
8
BLACK
6
CONTINUOUS
10
2.298851968503937
20
-4.395019133858268
11
2.2882801968503936
21
-4.390427165354331
0
LINE
8
BLACK
6
CONTINUOUS
10
2.2882801968503936
20
-4.390427165354331
11
2.2771816141732284
21
-4.3873175196850394
0
LINE
8
BLACK
6
CONTINUOUS
10
2.2771816141732284
20
-4.3873175196850394
11
2.2657629921259841
21
-4.3857480314960631
0
LINE
8
BLACK
6
CONTINUOUS
10
2.2657629921259841
20
-4.3857480314960631
11
2.2542370078740155
21
-4.3857480314960631
0
LINE
8
BLACK
6
CONTINUOUS
10
2.2542370078740155
20
-4.3857480314960631
11
2.2428183858267716
21
-4.3873175196850394
0
LINE
8
BLACK
6
CONTINUOUS
10
2.2428183858267716
20
-4.3873175196850394
11
2.2317198031496064
21
-4.390427165354331
0
LINE
8
BLACK
6
CONTINUOUS
10
2.2317198031496064
20
-4.390427165354331
11
2.221148031496063
21
-4.395019133858268
0
LINE
8
BLACK
6
CONTINUOUS
10
2.221148031496063
20
-4.395019133858268
11
2.2113000393700788
21
-4.4010078740157477
0
LINE
8
BLACK
6
CONTINUOUS
10
2.2113000393700788
20
-4.4010078740157477
11
2.202359212598425
21
-4.4082817716535434
0
LINE
8
BLACK
6
CONTINUOUS
10
2.202359212598425
20
-4.4082817716535434
11
2.1944920866141731
21
-4.4167053543307082
0
LINE
8
BLACK
6
CONTINUOUS
10
2.1944920866141731
20
-4.4167053543307082
11
2.1878452755905511
21
-4.4261217322834643
0
LINE
8
BLACK
6
CONTINUOUS
10
2.1878452755905511
20
-4.4261217322834643
11
2.1825425984251967
21
-4.4363555118110236
0
LINE
8
BLACK
6
CONTINUOUS
10
2.1825425984251967
20
-4.4363555118110236
11
2.1786827559055117
21
-4.4472159842519687
0
LINE
8
BLACK
6
CONTINUOUS
10
2.1786827559055117
20
-4.4472159842519687
11
2.1763377559055117
21
-4.4585009055118112
0
LINE
8
BLACK
6
CONTINUOUS
10
2.1763377559055117
20
-4.4585009055118112
11
2.175551181102362
21
-4.4699999999999998
0
LINE
8
BLACK
6
CONTINUOUS
10
2.175551181102362
20
-4.4699999999999998
11
2.1763377559055117
21
-4.4814990944881892
0
LINE
8
BLACK
6
CONTINUOUS
10
2.8134691732283463
20
-3.4874928740157478
11
2.8217221653543305
21
-3.4895114566929135
0
LINE
8
BLACK
6
CONTINUOUS
10
2.8217221653543305
20
-3.4895114566929135
11
2.8295484251968501
21
-3.4928184251968504
0
LINE
8
BLACK
6
CONTINUOUS
10
2.8295484251968501
20
-3.4928184251968504
11
2.8367482283464565
21
-3.4973294488188977
0
LINE
8
BLACK
6
CONTINUOUS
10
2.8367482283464565
20
-3.4973294488188977
11
2.843137834645669
21
-3.5029294094488188
0
LINE
8
BLACK
6
CONTINUOUS
10
2.843137834645669
20
-3.5029294094488188
11
2.8485542125984251
21
-3.5094753543307085
0
LINE
8
BLACK
6
CONTINUOUS
10
2.8485542125984251
20
-3.5094753543307085
11
2.8528591338582676
21
-3.5168002362204724
0
LINE
8
BLACK
6
CONTINUOUS
10
2.8528591338582676
20
-3.5168002362204724
11
2.855942716535433
21
-3.5247172047244093
0
LINE
8
BLACK
6
CONTINUOUS
10
2.855942716535433
20
-3.5247172047244093
11
2.8559427559055117
21
-3.5247171653543306
0
LINE
8
BLACK
6
CONTINUOUS
10
2.8559427559055117
20
-3.5247171653543306
11
2.855940866141732
21
-3.5248002362204724
0
LINE
8
BLACK
6
CONTINUOUS
10
2.855940866141732
20
-3.5248002362204724
11
2.8559764173228346
21
-3.524875590551181
0
LINE
8
BLACK
6
CONTINUOUS
10
2.8559764173228346
20
-3.524875590551181
11
2.858099251968504
21
-3.5415370866141731
0
LINE
8
BLACK
6
CONTINUOUS
10
2.858099251968504
20
-3.5415370866141731
11
2.8637560629921257
21
-3.5746497244094488
0
LINE
8
BLACK
6
CONTINUOUS
10
2.8637560629921257
20
-3.5746497244094488
11
2.8708145275590549
21
-3.6074921653543308
0
LINE
8
BLACK
6
CONTINUOUS
10
2.8708145275590549
20
-3.6074921653543308
11
2.8792618503937009
21
-3.6400050787401574
0
LINE
8
BLACK
6
CONTINUOUS
10
2.8792618503937009
20
-3.6400050787401574
11
2.8890828346456692
21
-3.6721297637795276
0
LINE
8
BLACK
6
CONTINUOUS
10
2.8890828346456692
20
-3.6721297637795276
11
2.9002597244094486
21
-3.7038081889763776
0
LINE
8
BLACK
6
CONTINUOUS
10
2.9002597244094486
20
-3.7038081889763776
11
2.9127723228346456
21
-3.7349832283464566
0
LINE
8
BLACK
6
CONTINUOUS
10
2.9127723228346456
20
-3.7349832283464566
11
2.9265980314960629
21
-3.7655985039370079
0
LINE
8
BLACK
6
CONTINUOUS
10
2.9265980314960629
20
-3.7655985039370079
11
2.941711929133858
21
-3.7955988188976377
0
LINE
8
BLACK
6
CONTINUOUS
10
2.941711929133858
20
-3.7955988188976377
11
2.9580866929133856
21
-3.8249299212598422
0
LINE
8
BLACK
6
CONTINUOUS
10
2.9580866929133856
20
-3.8249299212598422
11
2.9756927559055115
21
-3.8535388976377951
0
LINE
8
BLACK
6
CONTINUOUS
10
2.9756927559055115
20
-3.8535388976377951
11
2.9944983464566928
21
-3.8813740944881889
0
LINE
8
BLACK
6
CONTINUOUS
10
2.9944983464566928
20
-3.8813740944881889
11
3.0144694881889764
21
-3.9083851968503938
0
LINE
8
BLACK
6
CONTINUOUS
10
3.0144694881889764
20
-3.9083851968503938
11
3.0355701181102361
21
-3.9345235039370077
0
LINE
8
BLACK
6
CONTINUOUS
10
3.0355701181102361
20
-3.9345235039370077
11
3.0577621259842518
21
-3.959741771653543
0
LINE
8
BLACK
6
CONTINUOUS
10
3.0577621259842518
20
-3.959741771653543
11
3.0810054724409448
21
-3.9839944881889764
0
LINE
8
BLACK
6
CONTINUOUS
10
3.0810054724409448
20
-3.9839944881889764
11
3.1052581889763777
21
-4.007237834645669
0
LINE
8
BLACK
6
CONTINUOUS
10
3.1052581889763777
20
-4.007237834645669
11
3.1304764566929135
21
-4.0294298425196846
0
LINE
8
BLACK
6
CONTINUOUS
10
3.1304764566929135
20
-4.0294298425196846
11
3.1566147244094487
21
-4.0505304724409452
0
LINE
8
BLACK
6
CONTINUOUS
10
3.1566147244094487
20
-4.0505304724409452
11
3.1836258661417323
21
-4.070501614173228
0
LINE
8
BLACK
6
CONTINUOUS
10
3.1836258661417323
20
-4.070501614173228
11
3.2114610236220473
21
-4.0893072047244097
0
LINE
8
BLACK
6
CONTINUOUS
10
3.2114610236220473
20
-4.0893072047244097
11
3.2400699999999998
21
-4.1069132677165356
0
LINE
8
BLACK
6
CONTINUOUS
10
3.2400699999999998
20
-4.1069132677165356
11
3.2694011417322835
21
-4.1232880314960632
0
LINE
8
BLACK
6
CONTINUOUS
10
3.2694011417322835
20
-4.1232880314960632
11
3.2994014173228345
21
-4.1384019291338578
0
LINE
8
BLACK
6
CONTINUOUS
10
3.2994014173228345
20
-4.1384019291338578
11
3.3300166929133859
21
-4.1522276377952752
0
LINE
8
BLACK
6
CONTINUOUS
10
3.3300166929133859
20
-4.1522276377952752
11
3.3611917322834644
21
-4.1647402362204726
0
LINE
8
BLACK
6
CONTINUOUS
10
3.3611917322834644
20
-4.1647402362204726
11
3.3928701968503936
21
-4.1759171259842516
0
LINE
8
BLACK
6
CONTINUOUS
10
3.3928701968503936
20
-4.1759171259842516
11
3.424994842519685
21
-4.1857381102362208
0
LINE
8
BLACK
6
CONTINUOUS
10
3.424994842519685
20
-4.1857381102362208
11
3.4575077559055116
21
-4.1941854724409451
0
LINE
8
BLACK
6
CONTINUOUS
10
3.4575077559055116
20
-4.1941854724409451
11
3.4903501968503936
21
-4.2012439370078738
0
LINE
8
BLACK
6
CONTINUOUS
10
3.4903501968503936
20
-4.2012439370078738
11
3.5234628346456693
21
-4.2069007480314964
0
LINE
8
BLACK
6
CONTINUOUS
10
3.5234628346456693
20
-4.2069007480314964
11
3.5401243307086614
21
-4.2090235826771654
0
LINE
8
BLACK
6
CONTINUOUS
10
3.5401243307086614
20
-4.2090235826771654
11
3.5401998031496063
21
-4.2090591732283462
0
LINE
8
BLACK
6
CONTINUOUS
10
3.5401998031496063
20
-4.2090591732283462
11
3.5402827952755906
21
-4.2090573228346457
0
LINE
8
BLACK
6
CONTINUOUS
10
3.5402827952755906
20
-4.2090573228346457
11
3.5402827559055119
21
-4.2090573622047245
0
LINE
8
BLACK
6
CONTINUOUS
10
3.5402827559055119
20
-4.2090573622047245
11
3.5481997244094488
21
-4.2121409448818898
0
LINE
8
BLACK
6
CONTINUOUS
10
3.5481997244094488
20
-4.2121409448818898
11
3.5555246062992123
21
-4.2164458661417319
0
LINE
8
BLACK
6
CONTINUOUS
10
3.5555246062992123
20
-4.2164458661417319
11
3.5620705511811024
21
-4.2218622440944884
0
LINE
8
BLACK
6
CONTINUOUS
10
3.5620705511811024
20
-4.2218622440944884
11
3.5676704724409447
21
-4.2282518503937006
0
LINE
8
BLACK
6
CONTINUOUS
10
3.5676704724409447
20
-4.2282518503937006
11
3.5721814960629921
21
-4.2354516535433069
0
LINE
8
BLACK
6
CONTINUOUS
10
3.5721814960629921
20
-4.2354516535433069
11
3.5754885039370077
21
-4.2432779133858265
0
LINE
8
BLACK
6
CONTINUOUS
10
3.5754885039370077
20
-4.2432779133858265
11
3.5775070472440942
21
-4.2515309055118111
0
LINE
8
BLACK
6
CONTINUOUS
10
3.5775070472440942
20
-4.2515309055118111
11
3.5781856692913383
21
-4.2599999999999998
0
LINE
8
BLACK
6
CONTINUOUS
10
3.5781856692913383
20
-4.2599999999999998
11
3.5775070472440942
21
-4.2684691338582672
0
LINE
8
BLACK
6
CONTINUOUS
10
3.5775070472440942
20
-4.2684691338582672
11
3.5754884645669289
21
-4.2767221259842518
0
LINE
8
BLACK
6
CONTINUOUS
10
3.5754884645669289
20
-4.2767221259842518
11
3.5721814960629921
21
-4.2845483858267714
0
LINE
8
BLACK
6
CONTINUOUS
10
3.5721814960629921
20
-4.2845483858267714
11
3.5676704724409447
21
-4.2917481889763778
0
LINE
8
BLACK
6
CONTINUOUS
10
3.5676704724409447
20
-4.2917481889763778
11
3.5620705118110236
21
-4.2981377952755908
0
LINE
8
BLACK
6
CONTINUOUS
10
3.5620705118110236
20
-4.2981377952755908
11
3.555524566929134
21
-4.3035541732283464
0
LINE
8
BLACK
6
CONTINUOUS
10
3.555524566929134
20
-4.3035541732283464
11
3.54819968503937
21
-4.3078590551181097
0
LINE
8
BLACK
6
CONTINUOUS
10
3.54819968503937
20
-4.3078590551181097
11
3.5402827559055119
21
-4.3109426377952751
0
LINE
8
BLACK
6
CONTINUOUS
10
3.5402827559055119
20
-4.3109426377952751
11
3.5402827559055119
21
-4.3109426771653538
0
LINE
8
BLACK
6
CONTINUOUS
10
3.5402827559055119
20
-4.3109426771653538
11
3.5400842125984253
21
-4.3109381496062991
0
LINE
8
BLACK
6
CONTINUOUS
10
3.5400842125984253
20
-4.3109381496062991
11
3.5398894488188977
21
-4.3109779921259843
0
LINE
8
BLACK
6
CONTINUOUS
10
3.5398894488188977
20
-4.3109779921259843
11
3.5398894488188977
21
-4.3109779527559056
0
LINE
8
BLACK
6
CONTINUOUS
10
3.5398894488188977
20
-4.3109779527559056
11
3.5038519291338583
21
-4.306159881889764
0
LINE
8
BLACK
6
CONTINUOUS
10
3.5038519291338583
20
-4.306159881889764
11
3.4680407874015748
21
-4.2998766141732281
0
LINE
8
BLACK
6
CONTINUOUS
10
3.4680407874015748
20
-4.2998766141732281
11
3.4325155905511808
21
-4.2921385433070869
0
LINE
8
BLACK
6
CONTINUOUS
10
3.4325155905511808
20
-4.2921385433070869
11
3.3973353937007875
21
-4.282958582677165
0
LINE
8
BLACK
6
CONTINUOUS
10
3.3973353937007875
20
-4.282958582677165
11
3.3625587401574801
21
-4.2723520078740158
0
LINE
8
BLACK
6
CONTINUOUS
10
3.3625587401574801
20
-4.2723520078740158
11
3.3282433858267715
21
-4.2603363779527559
0
LINE
8
BLACK
6
CONTINUOUS
10
3.3282433858267715
20
-4.2603363779527559
11
3.2944464566929135
21
-4.2469317716535429
0
LINE
8
BLACK
6
CONTINUOUS
10
3.2944464566929135
20
-4.2469317716535429
11
3.2612241338582675
21
-4.232160393700787
0
LINE
8
BLACK
6
CONTINUOUS
10
3.2612241338582675
20
-4.232160393700787
11
3.2286316141732283
21
-4.2160468503937008
0
LINE
8
BLACK
6
CONTINUOUS
10
3.2286316141732283
20
-4.2160468503937008
11
3.1967231496062993
21
-4.1986179527559058
0
LINE
8
BLACK
6
CONTINUOUS
10
3.1967231496062993
20
-4.1986179527559058
11
3.1655518110236218
21
-4.1799026377952755
0
LINE
8
BLACK
6
CONTINUOUS
10
3.1655518110236218
20
-4.1799026377952755
11
3.13516937007874
21
-4.1599320472440944
0
LINE
8
BLACK
6
CONTINUOUS
10
3.13516937007874
20
-4.1599320472440944
11
3.1056263779527558
21
-4.1387393700787403
0
LINE
8
BLACK
6
CONTINUOUS
10
3.1056263779527558
20
-4.1387393700787403
11
3.0769719685039369
21
-4.116359881889764
0
LINE
8
BLACK
6
CONTINUOUS
10
3.0769719685039369
20
-4.116359881889764
11
3.0492537795275592
21
-4.0928307874015744
0
LINE
8
BLACK
6
CONTINUOUS
10
3.0492537795275592
20
-4.0928307874015744
11
3.0225178740157479
21
-4.0681911811023621
0
LINE
8
BLACK
6
CONTINUOUS
10
3.0225178740157479
20
-4.0681911811023621
11
2.9968087795275591
21
-4.0424820472440945
0
LINE
8
BLACK
6
CONTINUOUS
10
2.9968087795275591
20
-4.0424820472440945
11
2.9721691732283464
21
-4.0157461811023625
0
LINE
8
BLACK
6
CONTINUOUS
10
2.9721691732283464
20
-4.0157461811023625
11
2.9486400787401572
21
-3.9880279921259842
0
LINE
8
BLACK
6
CONTINUOUS
10
2.9486400787401572
20
-3.9880279921259842
11
2.9262605905511809
21
-3.9593735826771654
0
LINE
8
BLACK
6
CONTINUOUS
10
2.9262605905511809
20
-3.9593735826771654
11
2.9050679133858268
21
-3.9298305905511812
0
LINE
8
BLACK
6
CONTINUOUS
10
2.9050679133858268
20
-3.9298305905511812
11
2.8850973228346457
21
-3.8994481496062989
0
LINE
8
BLACK
6
CONTINUOUS
10
2.8850973228346457
20
-3.8994481496062989
11
2.8663820078740159
21
-3.8682767716535431
0
LINE
8
BLACK
6
CONTINUOUS
10
2.8663820078740159
20
-3.8682767716535431
11
2.8489531102362204
21
-3.8363683070866141
0
LINE
8
BLACK
6
CONTINUOUS
10
2.8489531102362204
20
-3.8363683070866141
11
2.8328395669291337
21
-3.8037757874015745
0
LINE
8
BLACK
6
CONTINUOUS
10
2.8328395669291337
20
-3.8037757874015745
11
2.8180682283464566
21
-3.770553464566929
0
LINE
8
BLACK
6
CONTINUOUS
10
2.8180682283464566
20
-3.770553464566929
11
2.8046635826771653
21
-3.736756535433071
0
LINE
8
BLACK
6
CONTINUOUS
10
2.8046635826771653
20
-3.736756535433071
11
2.7926479921259841
21
-3.7024411811023623
0
LINE
8
BLACK
6
CONTINUOUS
10
2.7926479921259841
20
-3.7024411811023623
11
2.7820413779527557
21
-3.6676645275590549
0
LINE
8
BLACK
6
CONTINUOUS
10
2.7820413779527557
20
-3.6676645275590549
11
2.7728614173228348
21
-3.6324843307086612
0
LINE
8
BLACK
6
CONTINUOUS
10
2.7728614173228348
20
-3.6324843307086612
11
2.7651233858267714
21
-3.5969591338582676
0
LINE
8
BLACK
6
CONTINUOUS
10
2.7651233858267714
20
-3.5969591338582676
11
2.7588400787401572
21
-3.5611479921259841
0
LINE
8
BLACK
6
CONTINUOUS
10
2.7588400787401572
20
-3.5611479921259841
11
2.7540220472440944
21
-3.5251104724409448
0
LINE
8
BLACK
6
CONTINUOUS
10
2.7540220472440944
20
-3.5251104724409448
11
2.7540220078740156
21
-3.5251104724409448
0
LINE
8
BLACK
6
CONTINUOUS
10
2.7540220078740156
20
-3.5251104724409448
11
2.7540617716535434
21
-3.5249158267716534
0
LINE
8
BLACK
6
CONTINUOUS
10
2.7540617716535434
20
-3.5249158267716534
11
2.7540572834645669
21
-3.524717086614173
0
LINE
8
BLACK
6
CONTINUOUS
10
2.7540572834645669
20
-3.524717086614173
11
2.7540573228346457
21
-3.524717086614173
0
LINE
8
BLACK
6
CONTINUOUS
10
2.7540573228346457
20
-3.524717086614173
11
2.757140905511811
21
-3.5168001574803149
0
LINE
8
BLACK
6
CONTINUOUS
10
2.757140905511811
20
-3.5168001574803149
11
2.7614458267716535
21
-3.5094752755905509
0
LINE
8
BLACK
6
CONTINUOUS
10
2.7614458267716535
20
-3.5094752755905509
11
2.7668622440944883
21
-3.5029293307086613
0
LINE
8
BLACK
6
CONTINUOUS
10
2.7668622440944883
20
-3.5029293307086613
11
2.7732518503937009
21
-3.497329409448819
0
LINE
8
BLACK
6
CONTINUOUS
10
2.7732518503937009
20
-3.497329409448819
11
2.7804516535433068
21
-3.4928183858267716
0
LINE
8
BLACK
6
CONTINUOUS
10
2.7804516535433068
20
-3.4928183858267716
11
2.7882779133858269
21
-3.4895114173228348
0
LINE
8
BLACK
6
CONTINUOUS
10
2.7882779133858269
20
-3.4895114173228348
11
2.7965309448818898
21
-3.4874928740157478
0
LINE
8
BLACK
6
CONTINUOUS
10
2.7965309448818898
20
-3.4874928740157478
11
2.8050000393700785
21
-3.4868142519685037
0
LINE
8
BLACK
6
CONTINUOUS
10
2.8050000393700785
20
-3.4868142519685037
11
2.8134691732283463
21
-3.4874928740157478
0
LINE
8
BLACK
6
CONTINUOUS
10
2.7927921653543306
20
-3.4900874015748031
11
2.7850000000000001
21
-3.4926681889763778
0
LINE
8
BLACK
6
CONTINUOUS
10
2.7850000000000001
20
-3.4926681889763778
11
2.7777182283464565
21
-3.4964568503937006
0
LINE
8
BLACK
6
CONTINUOUS
10
2.7777182283464565
20
-3.4964568503937006
11
2.7711326771653542
21
-3.5013566929133857
0
LINE
8
BLACK
6
CONTINUOUS
10
2.7711326771653542
20
-3.5013566929133857
11
2.765411377952756
21
-3.5072426771653542
0
LINE
8
BLACK
6
CONTINUOUS
10
2.765411377952756
20
-3.5072426771653542
11
2.7607003543307087
21
-3.5139646062992127
0
LINE
8
BLACK
6
CONTINUOUS
10
2.7607003543307087
20
-3.5139646062992127
11
2.7571198031496063
21
-3.5213509448818896
0
LINE
8
BLACK
6
CONTINUOUS
10
2.7571198031496063
20
-3.5213509448818896
11
2.7560006299212598
21
-3.5250894094488188
0
LINE
8
BLACK
6
CONTINUOUS
10
2.7560006299212598
20
-3.5250894094488188
11
2.7580149606299211
21
-3.5429174803149603
0
LINE
8
BLACK
6
CONTINUOUS
10
2.7580149606299211
20
-3.5429174803149603
11
2.7635556692913386
21
-3.5787774015748033
0
LINE
8
BLACK
6
CONTINUOUS
10
2.7635556692913386
20
-3.5787774015748033
11
2.770553779527559
21
-3.6143816141732281
0
LINE
8
BLACK
6
CONTINUOUS
10
2.770553779527559
20
-3.6143816141732281
11
2.7789976377952756
21
-3.6496709448818896
0
LINE
8
BLACK
6
CONTINUOUS
10
2.7789976377952756
20
-3.6496709448818896
11
2.7888731889763778
21
-3.6845866929133857
0
LINE
8
BLACK
6
CONTINUOUS
10
2.7888731889763778
20
-3.6845866929133857
11
2.8001639763779527
21
-3.7190707480314962
0
LINE
8
BLACK
6
CONTINUOUS
10
2.8001639763779527
20
-3.7190707480314962
11
2.8128513385826772
21
-3.7530658267716537
0
LINE
8
BLACK
6
CONTINUOUS
10
2.8128513385826772
20
-3.7530658267716537
11
2.82691405511811
21
-3.7865153937007872
0
LINE
8
BLACK
6
CONTINUOUS
10
2.82691405511811
20
-3.7865153937007872
11
2.8423288188976379
21
-3.8193638582677165
0
LINE
8
BLACK
6
CONTINUOUS
10
2.8423288188976379
20
-3.8193638582677165
11
2.85907
21
-3.851556496062992
0
LINE
8
BLACK
6
CONTINUOUS
10
2.85907
20
-3.851556496062992
11
2.8771097244094488
21
-3.8830398818897636
0
LINE
8
BLACK
6
CONTINUOUS
10
2.8771097244094488
20
-3.8830398818897636
11
2.8964179921259841
21
-3.9137616141732283
0
LINE
8
BLACK
6
CONTINUOUS
10
2.8964179921259841
20
-3.9137616141732283
11
2.916962716535433
21
-3.9436706299212596
0
LINE
8
BLACK
6
CONTINUOUS
10
2.916962716535433
20
-3.9436706299212596
11
2.9387097244094487
21
-3.9727171653543305
0
LINE
8
BLACK
6
CONTINUOUS
10
2.9387097244094487
20
-3.9727171653543305
11
2.961622874015748
21
-4.0008529527559054
0
LINE
8
BLACK
6
CONTINUOUS
10
2.961622874015748
20
-4.0008529527559054
11
2.9856640551181099
21
-4.0280311811023619
0
LINE
8
BLACK
6
CONTINUOUS
10
2.9856640551181099
20
-4.0280311811023619
11
3.0107932677165352
21
-4.0542066535433072
0
LINE
8
BLACK
6
CONTINUOUS
10
3.0107932677165352
20
-4.0542066535433072
11
3.0369687795275588
21
-4.0793359055118108
0
LINE
8
BLACK
6
CONTINUOUS
10
3.0369687795275588
20
-4.0793359055118108
11
3.0641470078740158
21
-4.1033770866141728
0
LINE
8
BLACK
6
CONTINUOUS
10
3.0641470078740158
20
-4.1033770866141728
11
3.0922827952755907
21
-4.1262902362204725
0
LINE
8
BLACK
6
CONTINUOUS
10
3.0922827952755907
20
-4.1262902362204725
11
3.1213293307086611
21
-4.1480372440944882
0
LINE
8
BLACK
6
CONTINUOUS
10
3.1213293307086611
20
-4.1480372440944882
11
3.1512383070866141
21
-4.1685819685039371
0
LINE
8
BLACK
6
CONTINUOUS
10
3.1512383070866141
20
-4.1685819685039371
11
3.1819600393700789
21
-4.187890236220472
0
LINE
8
BLACK
6
CONTINUOUS
10
3.1819600393700789
20
-4.187890236220472
11
3.2134434251968504
21
-4.2059299606299207
0
LINE
8
BLACK
6
CONTINUOUS
10
3.2134434251968504
20
-4.2059299606299207
11
3.2456361023622047
21
-4.2226711417322838
0
LINE
8
BLACK
6
CONTINUOUS
10
3.2456361023622047
20
-4.2226711417322838
11
3.2784845275590548
21
-4.2380859055118112
0
LINE
8
BLACK
6
CONTINUOUS
10
3.2784845275590548
20
-4.2380859055118112
11
3.3119340944881888
21
-4.2521486614173227
0
LINE
8
BLACK
6
CONTINUOUS
10
3.3119340944881888
20
-4.2521486614173227
11
3.3459291732283463
21
-4.2648359842519685
0
LINE
8
BLACK
6
CONTINUOUS
10
3.3459291732283463
20
-4.2648359842519685
11
3.3804132677165355
21
-4.2761268110236221
0
LINE
8
BLACK
6
CONTINUOUS
10
3.3804132677165355
20
-4.2761268110236221
11
3.4153289763779529
21
-4.2860023622047247
0
LINE
8
BLACK
6
CONTINUOUS
10
3.4153289763779529
20
-4.2860023622047247
11
3.4506183070866139
21
-4.2944461811023622
0
LINE
8
BLACK
6
CONTINUOUS
10
3.4506183070866139
20
-4.2944461811023622
11
3.4862225196850392
21
-4.3014442913385826
0
LINE
8
BLACK
6
CONTINUOUS
10
3.4862225196850392
20
-4.3014442913385826
11
3.5220824409448817
21
-4.3069850000000001
0
LINE
8
BLACK
6
CONTINUOUS
10
3.5220824409448817
20
-4.3069850000000001
11
3.5399103937007874
21
-4.3089992519685039
0
LINE
8
BLACK
6
CONTINUOUS
10
3.5399103937007874
20
-4.3089992519685039
11
3.5436488976377953
21
-4.3078801574803149
0
LINE
8
BLACK
6
CONTINUOUS
10
3.5436488976377953
20
-4.3078801574803149
11
3.5510352362204722
21
-4.3042996456692908
0
LINE
8
BLACK
6
CONTINUOUS
10
3.5510352362204722
20
-4.3042996456692908
11
3.5577571653543307
21
-4.2995886220472439
0
LINE
8
BLACK
6
CONTINUOUS
10
3.5577571653543307
20
-4.2995886220472439
11
3.563643188976378
21
-4.2938673622047245
0
LINE
8
BLACK
6
CONTINUOUS
10
3.563643188976378
20
-4.2938673622047245
11
3.5685430314960631
21
-4.2872818110236217
0
LINE
8
BLACK
6
CONTINUOUS
10
3.5685430314960631
20
-4.2872818110236217
11
3.5723317322834647
21
-4.280000039370079
0
LINE
8
BLACK
6
CONTINUOUS
10
3.5723317322834647
20
-4.280000039370079
11
3.5749125196850393
21
-4.2722079133858264
0
LINE
8
BLACK
6
CONTINUOUS
10
3.5749125196850393
20
-4.2722079133858264
11
3.5762196062992126
21
-4.2641042125984248
0
LINE
8
BLACK
6
CONTINUOUS
10
3.5762196062992126
20
-4.2641042125984248
11
3.5762196062992126
21
-4.2558958267716536
0
LINE
8
BLACK
6
CONTINUOUS
10
3.5762196062992126
20
-4.2558958267716536
11
3.5749125196850393
21
-4.2477921259842519
0
LINE
8
BLACK
6
CONTINUOUS
10
3.5749125196850393
20
-4.2477921259842519
11
3.5723317322834647
21
-4.2400000000000002
0
LINE
8
BLACK
6
CONTINUOUS
10
3.5723317322834647
20
-4.2400000000000002
11
3.5685430708661419
21
-4.2327182283464566
0
LINE
8
BLACK
6
CONTINUOUS
10
3.5685430708661419
20
-4.2327182283464566
11
3.563643188976378
21
-4.2261326771653547
0
LINE
8
BLACK
6
CONTINUOUS
10
3.563643188976378
20
-4.2261326771653547
11
3.5577572047244095
21
-4.2204113779527557
0
LINE
8
BLACK
6
CONTINUOUS
10
3.5577572047244095
20
-4.2204113779527557
11
3.551035275590551
21
-4.2157003543307088
0
LINE
8
BLACK
6
CONTINUOUS
10
3.551035275590551
20
-4.2157003543307088
11
3.5436489370078741
21
-4.2121198425196846
0
LINE
8
BLACK
6
CONTINUOUS
10
3.5436489370078741
20
-4.2121198425196846
11
3.5397825984251967
21
-4.2109624409448818
0
LINE
8
BLACK
6
CONTINUOUS
10
3.5397825984251967
20
-4.2109624409448818
11
3.506574960629921
21
-4.2060130708661418
0
LINE
8
BLACK
6
CONTINUOUS
10
3.506574960629921
20
-4.2060130708661418
11
3.4735152755905512
21
-4.1996395669291342
0
LINE
8
BLACK
6
CONTINUOUS
10
3.4735152755905512
20
-4.1996395669291342
11
3.4407562204724407
21
-4.1918673622047242
0
LINE
8
BLACK
6
CONTINUOUS
10
3.4407562204724407
20
-4.1918673622047242
11
3.4083569291338582
21
-4.1827104330708664
0
LINE
8
BLACK
6
CONTINUOUS
10
3.4083569291338582
20
-4.1827104330708664
11
3.376375866141732
21
-4.1721853543307086
0
LINE
8
BLACK
6
CONTINUOUS
10
3.376375866141732
20
-4.1721853543307086
11
3.3448708661417323
21
-4.160311102362205
0
LINE
8
BLACK
6
CONTINUOUS
10
3.3448708661417323
20
-4.160311102362205
11
3.3138987401574802
21
-4.147109133858268
0
LINE
8
BLACK
6
CONTINUOUS
10
3.3138987401574802
20
-4.147109133858268
11
3.2835154330708662
21
-4.1326032677165356
0
LINE
8
BLACK
6
CONTINUOUS
10
3.2835154330708662
20
-4.1326032677165356
11
3.2537758661417322
21
-4.1168197244094484
0
LINE
8
BLACK
6
CONTINUOUS
10
3.2537758661417322
20
-4.1168197244094484
11
3.224733622047244
21
-4.0997870078740153
0
LINE
8
BLACK
6
CONTINUOUS
10
3.224733622047244
20
-4.0997870078740153
11
3.1964412598425196
21
-4.0815358267716535
0
LINE
8
BLACK
6
CONTINUOUS
10
3.1964412598425196
20
-4.0815358267716535
11
3.1689498031496064
21
-4.0620991732283462
0
LINE
8
BLACK
6
CONTINUOUS
10
3.1689498031496064
20
-4.0620991732283462
11
3.1423088976377951
21
-4.0415121259842515
0
LINE
8
BLACK
6
CONTINUOUS
10
3.1423088976377951
20
-4.0415121259842515
11
3.1165666535433072
21
-4.0198118897637798
0
LINE
8
BLACK
6
CONTINUOUS
10
3.1165666535433072
20
-4.0198118897637798
11
3.0917695275590549
21
-3.9970375984251967
0
LINE
8
BLACK
6
CONTINUOUS
10
3.0917695275590549
20
-3.9970375984251967
11
3.0679623622047245
21
-3.9732303937007871
0
LINE
8
BLACK
6
CONTINUOUS
10
3.0679623622047245
20
-3.9732303937007871
11
3.0451880708661418
21
-3.948433307086614
0
LINE
8
BLACK
6
CONTINUOUS
10
3.0451880708661418
20
-3.948433307086614
11
3.0234878346456693
21
-3.9226910629921261
0
LINE
8
BLACK
6
CONTINUOUS
10
3.0234878346456693
20
-3.9226910629921261
11
3.002900787401575
21
-3.8960501574803148
0
LINE
8
BLACK
6
CONTINUOUS
10
3.002900787401575
20
-3.8960501574803148
11
2.9834641338582677
21
-3.8685586614173229
0
LINE
8
BLACK
6
CONTINUOUS
10
2.9834641338582677
20
-3.8685586614173229
11
2.9652129527559055
21
-3.8402662992125984
0
LINE
8
BLACK
6
CONTINUOUS
10
2.9652129527559055
20
-3.8402662992125984
11
2.9481802362204723
21
-3.811224094488189
0
LINE
8
BLACK
6
CONTINUOUS
10
2.9481802362204723
20
-3.811224094488189
11
2.9323966929133856
21
-3.7814844881889762
0
LINE
8
BLACK
6
CONTINUOUS
10
2.9323966929133856
20
-3.7814844881889762
11
2.9178908267716537
21
-3.7511011811023622
0
LINE
8
BLACK
6
CONTINUOUS
10
2.9178908267716537
20
-3.7511011811023622
11
2.9046888582677166
21
-3.7201290551181101
0
LINE
8
BLACK
6
CONTINUOUS
10
2.9046888582677166
20
-3.7201290551181101
11
2.8928146062992126
21
-3.68862405511811
0
LINE
8
BLACK
6
CONTINUOUS
10
2.8928146062992126
20
-3.68862405511811
11
2.8822895275590552
21
-3.656643031496063
0
LINE
8
BLACK
6
CONTINUOUS
10
2.8822895275590552
20
-3.656643031496063
11
2.873132598425197
21
-3.6242437007874013
0
LINE
8
BLACK
6
CONTINUOUS
10
2.873132598425197
20
-3.6242437007874013
11
2.8653603937007874
21
-3.5914846456692913
0
LINE
8
BLACK
6
CONTINUOUS
10
2.8653603937007874
20
-3.5914846456692913
11
2.8589869291338581
21
-3.558424960629921
0
LINE
8
BLACK
6
CONTINUOUS
10
2.8589869291338581
20
-3.558424960629921
11
2.8540375196850394
21
-3.5252170866141732
0
LINE
8
BLACK
6
CONTINUOUS
10
2.8540375196850394
20
-3.5252170866141732
11
2.8528802362204724
21
-3.5213510236220471
0
LINE
8
BLACK
6
CONTINUOUS
10
2.8528802362204724
20
-3.5213510236220471
11
2.8492996850393699
21
-3.5139646850393702
0
LINE
8
BLACK
6
CONTINUOUS
10
2.8492996850393699
20
-3.5139646850393702
11
2.8445886614173226
21
-3.5072427559055117
0
LINE
8
BLACK
6
CONTINUOUS
10
2.8445886614173226
20
-3.5072427559055117
11
2.8388674015748032
21
-3.5013567322834644
0
LINE
8
BLACK
6
CONTINUOUS
10
2.8388674015748032
20
-3.5013567322834644
11
2.8322818503937008
21
-3.4964568897637793
0
LINE
8
BLACK
6
CONTINUOUS
10
2.8322818503937008
20
-3.4964568897637793
11
2.8250000787401572
21
-3.4926682283464565
0
LINE
8
BLACK
6
CONTINUOUS
10
2.8250000787401572
20
-3.4926682283464565
11
2.8172079133858268
21
-3.4900874015748031
0
LINE
8
BLACK
6
CONTINUOUS
10
2.8172079133858268
20
-3.4900874015748031
11
2.8091042519685039
21
-3.4887803149606298
0
LINE
8
BLACK
6
CONTINUOUS
10
2.8091042519685039
20
-3.4887803149606298
11
2.8008958267716535
21
-3.4887803149606298
0
LINE
8
BLACK
6
CONTINUOUS
10
2.8008958267716535
20
-3.4887803149606298
11
2.7927921653543306
21
-3.4900874015748031
0
LINE
8
BLACK
6
CONTINUOUS
10
4.483469133858268
20
-3.4874929527559053
11
4.4917221259842517
21
-3.4895115354330706
0
LINE
8
BLACK
6
CONTINUOUS
10
4.4917221259842517
20
-3.4895115354330706
11
4.4995483858267713
21
-3.4928185039370079
0
LINE
8
BLACK
6
CONTINUOUS
10
4.4995483858267713
20
-3.4928185039370079
11
4.5067481889763776
21
-3.4973295275590552
0
LINE
8
BLACK
6
CONTINUOUS
10
4.5067481889763776
20
-3.4973295275590552
11
4.5131377952755907
21
-3.5029294881889763
0
LINE
8
BLACK
6
CONTINUOUS
10
4.5131377952755907
20
-3.5029294881889763
11
4.5185541732283463
21
-3.509475433070866
0
LINE
8
BLACK
6
CONTINUOUS
10
4.5185541732283463
20
-3.509475433070866
11
4.5228590551181105
21
-3.5168003149606299
0
LINE
8
BLACK
6
CONTINUOUS
10
4.5228590551181105
20
-3.5168003149606299
11
4.5259426377952758
21
-3.5247172440944881
0
LINE
8
BLACK
6
CONTINUOUS
10
4.5259426377952758
20
-3.5247172440944881
11
4.5259426771653546
21
-3.5247172440944881
0
LINE
8
BLACK
6
CONTINUOUS
10
4.5259426771653546
20
-3.5247172440944881
11
4.5259381496062989
21
-3.5249157480314959
0
LINE
8
BLACK
6
CONTINUOUS
10
4.5259381496062989
20
-3.5249157480314959
11
4.5259779921259842
21
-3.5251105511811023
0
LINE
8
BLACK
6
CONTINUOUS
10
4.5259779921259842
20
-3.5251105511811023
11
4.5259779527559054
21
-3.5251105511811023
0
LINE
8
BLACK
6
CONTINUOUS
10
4.5259779527559054
20
-3.5251105511811023
11
4.5211598818897638
21
-3.5611480708661416
0
LINE
8
BLACK
6
CONTINUOUS
10
4.5211598818897638
20
-3.5611480708661416
11
4.5148766141732279
21
-3.5969592125984251
0
LINE
8
BLACK
6
CONTINUOUS
10
4.5148766141732279
20
-3.5969592125984251
11
4.5071385433070867
21
-3.6324844094488187
0
LINE
8
BLACK
6
CONTINUOUS
10
4.5071385433070867
20
-3.6324844094488187
11
4.4979585826771649
21
-3.6676646062992124
0
LINE
8
BLACK
6
CONTINUOUS
10
4.4979585826771649
20
-3.6676646062992124
11
4.4873520078740157
21
-3.7024412598425198
0
LINE
8
BLACK
6
CONTINUOUS
10
4.4873520078740157
20
-3.7024412598425198
11
4.4753363779527557
21
-3.7367566141732285
0
LINE
8
BLACK
6
CONTINUOUS
10
4.4753363779527557
20
-3.7367566141732285
11
4.4619317716535436
21
-3.7705535433070865
0
LINE
8
BLACK
6
CONTINUOUS
10
4.4619317716535436
20
-3.7705535433070865
11
4.4471603937007869
21
-3.803775866141732
0
LINE
8
BLACK
6
CONTINUOUS
10
4.4471603937007869
20
-3.803775866141732
11
4.4310468503937006
21
-3.8363683858267716
0
LINE
8
BLACK
6
CONTINUOUS
10
4.4310468503937006
20
-3.8363683858267716
11
4.4136179527559056
21
-3.8682768503937006
0
LINE
8
BLACK
6
CONTINUOUS
10
4.4136179527559056
20
-3.8682768503937006
11
4.3949026377952753
21
-3.8994481889763777
0
LINE
8
BLACK
6
CONTINUOUS
10
4.3949026377952753
20
-3.8994481889763777
11
4.3749320472440942
21
-3.9298306299212595
0
LINE
8
BLACK
6
CONTINUOUS
10
4.3749320472440942
20
-3.9298306299212595
11
4.3537393700787401
21
-3.9593736220472442
0
LINE
8
BLACK
6
CONTINUOUS
10
4.3537393700787401
20
-3.9593736220472442
11
4.3313598818897638
21
-3.988028031496063
0
LINE
8
BLACK
6
CONTINUOUS
10
4.3313598818897638
20
-3.988028031496063
11
4.3078307874015751
21
-4.0157462204724412
0
LINE
8
BLACK
6
CONTINUOUS
10
4.3078307874015751
20
-4.0157462204724412
11
4.283191181102362
21
-4.0424821259842521
0
LINE
8
BLACK
6
CONTINUOUS
10
4.283191181102362
20
-4.0424821259842521
11
4.2574820472440944
21
-4.0681912204724409
0
LINE
8
BLACK
6
CONTINUOUS
10
4.2574820472440944
20
-4.0681912204724409
11
4.2307461811023623
21
-4.0928308267716531
0
LINE
8
BLACK
6
CONTINUOUS
10
4.2307461811023623
20
-4.0928308267716531
11
4.2030279921259845
21
-4.1163599212598427
0
LINE
8
BLACK
6
CONTINUOUS
10
4.2030279921259845
20
-4.1163599212598427
11
4.1743735826771653
21
-4.138739409448819
0
LINE
8
BLACK
6
CONTINUOUS
10
4.1743735826771653
20
-4.138739409448819
11
4.1448305905511811
21
-4.1599320866141731
0
LINE
8
BLACK
6
CONTINUOUS
10
4.1448305905511811
20
-4.1599320866141731
11
4.1144481496062992
21
-4.1799026771653542
0
LINE
8
BLACK
6
CONTINUOUS
10
4.1144481496062992
20
-4.1799026771653542
11
4.0832767716535434
21
-4.1986179921259845
0
LINE
8
BLACK
6
CONTINUOUS
10
4.0832767716535434
20
-4.1986179921259845
11
4.051368307086614
21
-4.2160468897637795
0
LINE
8
BLACK
6
CONTINUOUS
10
4.051368307086614
20
-4.2160468897637795
11
4.0187757874015748
21
-4.2321604330708658
0
LINE
8
BLACK
6
CONTINUOUS
10
4.0187757874015748
20
-4.2321604330708658
11
3.9855534645669288
21
-4.2469317716535429
0
LINE
8
BLACK
6
CONTINUOUS
10
3.9855534645669288
20
-4.2469317716535429
11
3.9517565354330708
21
-4.2603364173228346
0
LINE
8
BLACK
6
CONTINUOUS
10
3.9517565354330708
20
-4.2603364173228346
11
3.9174411811023622
21
-4.2723520078740158
0
LINE
8
BLACK
6
CONTINUOUS
10
3.9174411811023622
20
-4.2723520078740158
11
3.8826645275590552
21
-4.2829586220472438
0
LINE
8
BLACK
6
CONTINUOUS
10
3.8826645275590552
20
-4.2829586220472438
11
3.8474843307086615
21
-4.2921385826771656
0
LINE
8
BLACK
6
CONTINUOUS
10
3.8474843307086615
20
-4.2921385826771656
11
3.8119591338582675
21
-4.2998766141732281
0
LINE
8
BLACK
6
CONTINUOUS
10
3.8119591338582675
20
-4.2998766141732281
11
3.776147992125984
21
-4.3061599212598427
0
LINE
8
BLACK
6
CONTINUOUS
10
3.776147992125984
20
-4.3061599212598427
11
3.7401104724409446
21
-4.3109779527559056
0
LINE
8
BLACK
6
CONTINUOUS
10
3.7401104724409446
20
-4.3109779527559056
11
3.7401104724409446
21
-4.3109779921259843
0
LINE
8
BLACK
6
CONTINUOUS
10
3.7401104724409446
20
-4.3109779921259843
11
3.7399158267716532
21
-4.3109381889763778
0
LINE
8
BLACK
6
CONTINUOUS
10
3.7399158267716532
20
-4.3109381889763778
11
3.7397170866141733
21
-4.3109427165354326
0
LINE
8
BLACK
6
CONTINUOUS
10
3.7397170866141733
20
-4.3109427165354326
11
3.7397170866141733
21
-4.3109426771653538
0
LINE
8
BLACK
6
CONTINUOUS
10
3.7397170866141733
20
-4.3109426771653538
11
3.7318001574803148
21
-4.3078590944881885
0
LINE
8
BLACK
6
CONTINUOUS
10
3.7318001574803148
20
-4.3078590944881885
11
3.7244752755905512
21
-4.3035541732283464
0
LINE
8
BLACK
6
CONTINUOUS
10
3.7244752755905512
20
-4.3035541732283464
11
3.7179293307086612
21
-4.2981377559055121
0
LINE
8
BLACK
6
CONTINUOUS
10
3.7179293307086612
20
-4.2981377559055121
11
3.7123294094488188
21
-4.291748149606299
0
LINE
8
BLACK
6
CONTINUOUS
10
3.7123294094488188
20
-4.291748149606299
11
3.7078183858267715
21
-4.2845483464566927
0
LINE
8
BLACK
6
CONTINUOUS
10
3.7078183858267715
20
-4.2845483464566927
11
3.7045114173228346
21
-4.2767220866141731
0
LINE
8
BLACK
6
CONTINUOUS
10
3.7045114173228346
20
-4.2767220866141731
11
3.7024928740157481
21
-4.2684690551181097
0
LINE
8
BLACK
6
CONTINUOUS
10
3.7024928740157481
20
-4.2684690551181097
11
3.701814251968504
21
-4.259999960629921
0
LINE
8
BLACK
6
CONTINUOUS
10
3.701814251968504
20
-4.259999960629921
11
3.7024928740157481
21
-4.2515308267716536
0
LINE
8
BLACK
6
CONTINUOUS
10
3.7024928740157481
20
-4.2515308267716536
11
3.7045114566929134
21
-4.243277834645669
0
LINE
8
BLACK
6
CONTINUOUS
10
3.7045114566929134
20
-4.243277834645669
11
3.7078184251968502
21
-4.2354515748031494
0
LINE
8
BLACK
6
CONTINUOUS
10
3.7078184251968502
20
-4.2354515748031494
11
3.7123294488188976
21
-4.228251771653543
0
LINE
8
BLACK
6
CONTINUOUS
10
3.7123294488188976
20
-4.228251771653543
11
3.7179294094488187
21
-4.2218621653543309
0
LINE
8
BLACK
6
CONTINUOUS
10
3.7179294094488187
20
-4.2218621653543309
11
3.7244753543307088
21
-4.2164457874015744
0
LINE
8
BLACK
6
CONTINUOUS
10
3.7244753543307088
20
-4.2164457874015744
11
3.7318002362204723
21
-4.2121408661417323
0
LINE
8
BLACK
6
CONTINUOUS
10
3.7318002362204723
20
-4.2121408661417323
11
3.7397172047244092
21
-4.209057283464567
0
LINE
8
BLACK
6
CONTINUOUS
10
3.7397172047244092
20
-4.209057283464567
11
3.7397171653543304
21
-4.2090572440944882
0
LINE
8
BLACK
6
CONTINUOUS
10
3.7397171653543304
20
-4.2090572440944882
11
3.7398002362204723
21
-4.2090590944881887
0
LINE
8
BLACK
6
CONTINUOUS
10
3.7398002362204723
20
-4.2090590944881887
11
3.7398755905511809
21
-4.2090235826771654
0
LINE
8
BLACK
6
CONTINUOUS
10
3.7398755905511809
20
-4.2090235826771654
11
3.756537086614173
21
-4.2069007480314964
0
LINE
8
BLACK
6
CONTINUOUS
10
3.756537086614173
20
-4.2069007480314964
11
3.7896497244094487
21
-4.2012439370078738
0
LINE
8
BLACK
6
CONTINUOUS
10
3.7896497244094487
20
-4.2012439370078738
11
3.8224921653543307
21
-4.1941854724409451
0
LINE
8
BLACK
6
CONTINUOUS
10
3.8224921653543307
20
-4.1941854724409451
11
3.8550050787401573
21
-4.1857381496062995
0
LINE
8
BLACK
6
CONTINUOUS
10
3.8550050787401573
20
-4.1857381496062995
11
3.8871297637795275
21
-4.1759171653543303
0
LINE
8
BLACK
6
CONTINUOUS
10
3.8871297637795275
20
-4.1759171653543303
11
3.9188081889763779
21
-4.1647402755905514
0
LINE
8
BLACK
6
CONTINUOUS
10
3.9188081889763779
20
-4.1647402755905514
11
3.9499832283464564
21
-4.1522276771653539
0
LINE
8
BLACK
6
CONTINUOUS
10
3.9499832283464564
20
-4.1522276771653539
11
3.9805985039370078
21
-4.1384019685039366
0
LINE
8
BLACK
6
CONTINUOUS
10
3.9805985039370078
20
-4.1384019685039366
11
4.0105988188976376
21
-4.1232880708661419
0
LINE
8
BLACK
6
CONTINUOUS
10
4.0105988188976376
20
-4.1232880708661419
11
4.0399299212598425
21
-4.1069133070866144
0
LINE
8
BLACK
6
CONTINUOUS
10
4.0399299212598425
20
-4.1069133070866144
11
4.0685388976377954
21
-4.0893072440944884
0
LINE
8
BLACK
6
CONTINUOUS
10
4.0685388976377954
20
-4.0893072440944884
11
4.0963740944881888
21
-4.0705016535433067
0
LINE
8
BLACK
6
CONTINUOUS
10
4.0963740944881888
20
-4.0705016535433067
11
4.1233851968503936
21
-4.050530511811024
0
LINE
8
BLACK
6
CONTINUOUS
10
4.1233851968503936
20
-4.050530511811024
11
4.149523503937008
21
-4.0294298818897634
0
LINE
8
BLACK
6
CONTINUOUS
10
4.149523503937008
20
-4.0294298818897634
11
4.1747417716535429
21
-4.0072378740157477
0
LINE
8
BLACK
6
CONTINUOUS
10
4.1747417716535429
20
-4.0072378740157477
11
4.1989944881889762
21
-3.9839945275590551
0
LINE
8
BLACK
6
CONTINUOUS
10
4.1989944881889762
20
-3.9839945275590551
11
4.2222378346456688
21
-3.9597418110236218
0
LINE
8
BLACK
6
CONTINUOUS
10
4.2222378346456688
20
-3.9597418110236218
11
4.2444298425196854
21
-3.9345235433070864
0
LINE
8
BLACK
6
CONTINUOUS
10
4.2444298425196854
20
-3.9345235433070864
11
4.2655304724409451
21
-3.9083852755905513
0
LINE
8
BLACK
6
CONTINUOUS
10
4.2655304724409451
20
-3.9083852755905513
11
4.2855016141732278
21
-3.8813741338582677
0
LINE
8
BLACK
6
CONTINUOUS
10
4.2855016141732278
20
-3.8813741338582677
11
4.3043072047244095
21
-3.8535389763779526
0
LINE
8
BLACK
6
CONTINUOUS
10
4.3043072047244095
20
-3.8535389763779526
11
4.3219132677165355
21
-3.8249299999999997
0
LINE
8
BLACK
6
CONTINUOUS
10
4.3219132677165355
20
-3.8249299999999997
11
4.338288031496063
21
-3.7955988582677165
0
LINE
8
BLACK
6
CONTINUOUS
10
4.338288031496063
20
-3.7955988582677165
11
4.3534019291338586
21
-3.7655985826771654
0
LINE
8
BLACK
6
CONTINUOUS
10
4.3534019291338586
20
-3.7655985826771654
11
4.3672276377952759
21
-3.7349833070866141
0
LINE
8
BLACK
6
CONTINUOUS
10
4.3672276377952759
20
-3.7349833070866141
11
4.3797402362204725
21
-3.7038082677165352
0
LINE
8
BLACK
6
CONTINUOUS
10
4.3797402362204725
20
-3.7038082677165352
11
4.3909171259842514
21
-3.6721298031496064
0
LINE
8
BLACK
6
CONTINUOUS
10
4.3909171259842514
20
-3.6721298031496064
11
4.4007381102362206
21
-3.6400051574803149
0
LINE
8
BLACK
6
CONTINUOUS
10
4.4007381102362206
20
-3.6400051574803149
11
4.4091854724409449
21
-3.6074922440944883
0
LINE
8
BLACK
6
CONTINUOUS
10
4.4091854724409449
20
-3.6074922440944883
11
4.4162439370078737
21
-3.5746498031496063
0
LINE
8
BLACK
6
CONTINUOUS
10
4.4162439370078737
20
-3.5746498031496063
11
4.4219007480314962
21
-3.5415371653543306
0
LINE
8
BLACK
6
CONTINUOUS
10
4.4219007480314962
20
-3.5415371653543306
11
4.4240235826771652
21
-3.5248756692913386
0
LINE
8
BLACK
6
CONTINUOUS
10
4.4240235826771652
20
-3.5248756692913386
11
4.4240591732283461
21
-3.5248001574803149
0
LINE
8
BLACK
6
CONTINUOUS
10
4.4240591732283461
20
-3.5248001574803149
11
4.4240573228346456
21
-3.5247172047244093
0
LINE
8
BLACK
6
CONTINUOUS
10
4.4240573228346456
20
-3.5247172047244093
11
4.4240573622047243
21
-3.5247172440944881
0
LINE
8
BLACK
6
CONTINUOUS
10
4.4240573622047243
20
-3.5247172440944881
11
4.4271409448818897
21
-3.5168002755905512
0
LINE
8
BLACK
6
CONTINUOUS
10
4.4271409448818897
20
-3.5168002755905512
11
4.4314458661417317
21
-3.5094753937007872
0
LINE
8
BLACK
6
CONTINUOUS
10
4.4314458661417317
20
-3.5094753937007872
11
4.4368622440944883
21
-3.5029294488188976
0
LINE
8
BLACK
6
CONTINUOUS
10
4.4368622440944883
20
-3.5029294488188976
11
4.4432518503937004
21
-3.4973295275590552
0
LINE
8
BLACK
6
CONTINUOUS
10
4.4432518503937004
20
-3.4973295275590552
11
4.4504516535433067
21
-3.4928185039370079
0
LINE
8
BLACK
6
CONTINUOUS
10
4.4504516535433067
20
-3.4928185039370079
11
4.4582779133858264
21
-3.4895114960629923
0
LINE
8
BLACK
6
CONTINUOUS
10
4.4582779133858264
20
-3.4895114960629923
11
4.466530905511811
21
-3.4874929527559053
0
LINE
8
BLACK
6
CONTINUOUS
10
4.466530905511811
20
-3.4874929527559053
11
4.4749999999999996
21
-3.4868143307086612
0
LINE
8
BLACK
6
CONTINUOUS
10
4.4749999999999996
20
-3.4868143307086612
11
4.483469133858268
21
-3.4874929527559053
0
LINE
8
BLACK
6
CONTINUOUS
10
4.4627921259842518
20
-3.4900874803149606
11
4.4550000000000001
21
-3.4926682677165353
0
LINE
8
BLACK
6
CONTINUOUS
10
4.4550000000000001
20
-3.4926682677165353
11
4.4477182283464565
21
-3.4964569291338581
0
LINE
8
BLACK
6
CONTINUOUS
10
4.4477182283464565
20
-3.4964569291338581
11
4.4411326771653545
21
-3.501356811023622
0
LINE
8
BLACK
6
CONTINUOUS
10
4.4411326771653545
20
-3.501356811023622
11
4.4354113779527555
21
-3.5072427952755905
0
LINE
8
BLACK
6
CONTINUOUS
10
4.4354113779527555
20
-3.5072427952755905
11
4.4307003543307086
21
-3.513964724409449
0
LINE
8
BLACK
6
CONTINUOUS
10
4.4307003543307086
20
-3.513964724409449
11
4.4271198425196854
21
-3.5213510629921259
0
LINE
8
BLACK
6
CONTINUOUS
10
4.4271198425196854
20
-3.5213510629921259
11
4.4259624409448817
21
-3.5252173622047245
0
LINE
8
BLACK
6
CONTINUOUS
10
4.4259624409448817
20
-3.5252173622047245
11
4.4210130708661417
21
-3.5584250393700785
0
LINE
8
BLACK
6
CONTINUOUS
10
4.4210130708661417
20
-3.5584250393700785
11
4.4146395669291341
21
-3.5914847244094488
0
LINE
8
BLACK
6
CONTINUOUS
10
4.4146395669291341
20
-3.5914847244094488
11
4.4068673622047241
21
-3.6242437795275588
0
LINE
8
BLACK
6
CONTINUOUS
10
4.4068673622047241
20
-3.6242437795275588
11
4.3977104330708663
21
-3.6566430708661417
0
LINE
8
BLACK
6
CONTINUOUS
10
4.3977104330708663
20
-3.6566430708661417
11
4.3871853543307084
21
-3.6886241338582675
0
LINE
8
BLACK
6
CONTINUOUS
10
4.3871853543307084
20
-3.6886241338582675
11
4.3753111023622049
21
-3.7201291338582676
0
LINE
8
BLACK
6
CONTINUOUS
10
4.3753111023622049
20
-3.7201291338582676
11
4.3621091338582678
21
-3.7511012598425197
0
LINE
8
BLACK
6
CONTINUOUS
10
4.3621091338582678
20
-3.7511012598425197
11
4.3476032677165355
21
-3.7814845669291337
0
LINE
8
BLACK
6
CONTINUOUS
10
4.3476032677165355
20
-3.7814845669291337
11
4.3318197244094483
21
-3.8112241338582677
0
LINE
8
BLACK
6
CONTINUOUS
10
4.3318197244094483
20
-3.8112241338582677
11
4.314787007874016
21
-3.8402663779527559
0
LINE
8
BLACK
6
CONTINUOUS
10
4.314787007874016
20
-3.8402663779527559
11
4.2965358267716534
21
-3.8685587401574804
0
LINE
8
BLACK
6
CONTINUOUS
10
4.2965358267716534
20
-3.8685587401574804
11
4.2770991732283461
21
-3.8960501968503936
0
LINE
8
BLACK
6
CONTINUOUS
10
4.2770991732283461
20
-3.8960501968503936
11
4.2565121259842522
21
-3.9226911023622044
0
LINE
8
BLACK
6
CONTINUOUS
10
4.2565121259842522
20
-3.9226911023622044
11
4.2348118897637796
21
-3.9484333464566927
0
LINE
8
BLACK
6
CONTINUOUS
10
4.2348118897637796
20
-3.9484333464566927
11
4.212037598425197
21
-3.9732304724409446
0
LINE
8
BLACK
6
CONTINUOUS
10
4.212037598425197
20
-3.9732304724409446
11
4.1882303937007874
21
-3.9970376377952754
0
LINE
8
BLACK
6
CONTINUOUS
10
4.1882303937007874
20
-3.9970376377952754
11
4.1634333070866143
21
-4.0198119291338585
0
LINE
8
BLACK
6
CONTINUOUS
10
4.1634333070866143
20
-4.0198119291338585
11
4.1376910629921255
21
-4.0415121653543302
0
LINE
8
BLACK
6
CONTINUOUS
10
4.1376910629921255
20
-4.0415121653543302
11
4.1110501574803147
21
-4.062099212598425
0
LINE
8
BLACK
6
CONTINUOUS
10
4.1110501574803147
20
-4.062099212598425
11
4.0835586614173227
21
-4.0815358661417322
0
LINE
8
BLACK
6
CONTINUOUS
10
4.0835586614173227
20
-4.0815358661417322
11
4.0552662992125983
21
-4.099787047244094
0
LINE
8
BLACK
6
CONTINUOUS
10
4.0552662992125983
20
-4.099787047244094
11
4.0262240944881889
21
-4.1168197637795272
0
LINE
8
BLACK
6
CONTINUOUS
10
4.0262240944881889
20
-4.1168197637795272
11
3.9964844881889765
21
-4.1326033070866144
0
LINE
8
BLACK
6
CONTINUOUS
10
3.9964844881889765
20
-4.1326033070866144
11
3.9661011811023621
21
-4.1471091732283467
0
LINE
8
BLACK
6
CONTINUOUS
10
3.9661011811023621
20
-4.1471091732283467
11
3.93512905511811
21
-4.1603111417322838
0
LINE
8
BLACK
6
CONTINUOUS
10
3.93512905511811
20
-4.1603111417322838
11
3.9036240551181103
21
-4.1721853937007873
0
LINE
8
BLACK
6
CONTINUOUS
10
3.9036240551181103
20
-4.1721853937007873
11
3.8716430314960628
21
-4.1827104724409452
0
LINE
8
BLACK
6
CONTINUOUS
10
3.8716430314960628
20
-4.1827104724409452
11
3.8392437007874016
21
-4.191867401574803
0
LINE
8
BLACK
6
CONTINUOUS
10
3.8392437007874016
20
-4.191867401574803
11
3.8064846456692911
21
-4.1996396062992121
0
LINE
8
BLACK
6
CONTINUOUS
10
3.8064846456692911
20
-4.1996396062992121
11
3.7734249606299213
21
-4.2060130708661418
0
LINE
8
BLACK
6
CONTINUOUS
10
3.7734249606299213
20
-4.2060130708661418
11
3.7402170866141731
21
-4.2109624409448818
0
LINE
8
BLACK
6
CONTINUOUS
10
3.7402170866141731
20
-4.2109624409448818
11
3.736351023622047
21
-4.2121197637795271
0
LINE
8
BLACK
6
CONTINUOUS
10
3.736351023622047
20
-4.2121197637795271
11
3.7289646850393701
21
-4.21570031496063
0
LINE
8
BLACK
6
CONTINUOUS
10
3.7289646850393701
20
-4.21570031496063
11
3.7222427559055116
21
-4.2204113385826769
0
LINE
8
BLACK
6
CONTINUOUS
10
3.7222427559055116
20
-4.2204113385826769
11
3.7163567322834643
21
-4.2261325984251972
0
LINE
8
BLACK
6
CONTINUOUS
10
3.7163567322834643
20
-4.2261325984251972
11
3.7114568897637796
21
-4.2327181496062991
0
LINE
8
BLACK
6
CONTINUOUS
10
3.7114568897637796
20
-4.2327181496062991
11
3.7076682283464568
21
-4.2399999212598427
0
LINE
8
BLACK
6
CONTINUOUS
10
3.7076682283464568
20
-4.2399999212598427
11
3.705087401574803
21
-4.2477920866141732
0
LINE
8
BLACK
6
CONTINUOUS
10
3.705087401574803
20
-4.2477920866141732
11
3.7037803149606296
21
-4.2558957480314961
0
LINE
8
BLACK
6
CONTINUOUS
10
3.7037803149606296
20
-4.2558957480314961
11
3.7037803149606296
21
-4.264104173228346
0
LINE
8
BLACK
6
CONTINUOUS
10
3.7037803149606296
20
-4.264104173228346
11
3.705087401574803
21
-4.2722078346456689
0
LINE
8
BLACK
6
CONTINUOUS
10
3.705087401574803
20
-4.2722078346456689
11
3.7076681889763781
21
-4.2800000000000002
0
LINE
8
BLACK
6
CONTINUOUS
10
3.7076681889763781
20
-4.2800000000000002
11
3.7114568503937009
21
-4.287281771653543
0
LINE
8
BLACK
6
CONTINUOUS
10
3.7114568503937009
20
-4.287281771653543
11
3.7163566929133856
21
-4.2938673228346458
0
LINE
8
BLACK
6
CONTINUOUS
10
3.7163566929133856
20
-4.2938673228346458
11
3.7222426771653541
21
-4.2995886220472439
0
LINE
8
BLACK
6
CONTINUOUS
10
3.7222426771653541
20
-4.2995886220472439
11
3.7289646062992126
21
-4.3042996456692908
0
LINE
8
BLACK
6
CONTINUOUS
10
3.7289646062992126
20
-4.3042996456692908
11
3.7363509448818895
21
-4.3078801968503937
0
LINE
8
BLACK
6
CONTINUOUS
10
3.7363509448818895
20
-4.3078801968503937
11
3.7400894094488186
21
-4.3089993307086614
0
LINE
8
BLACK
6
CONTINUOUS
10
3.7400894094488186
20
-4.3089993307086614
11
3.7579174803149606
21
-4.3069850393700788
0
LINE
8
BLACK
6
CONTINUOUS
10
3.7579174803149606
20
-4.3069850393700788
11
3.7937774015748031
21
-4.3014443307086614
0
LINE
8
BLACK
6
CONTINUOUS
10
3.7937774015748031
20
-4.3014443307086614
11
3.8293816141732284
21
-4.294446220472441
0
LINE
8
BLACK
6
CONTINUOUS
10
3.8293816141732284
20
-4.294446220472441
11
3.8646709448818899
21
-4.2860023622047247
0
LINE
8
BLACK
6
CONTINUOUS
10
3.8646709448818899
20
-4.2860023622047247
11
3.8995866929133856
21
-4.2761268110236221
0
LINE
8
BLACK
6
CONTINUOUS
10
3.8995866929133856
20
-4.2761268110236221
11
3.934070748031496
21
-4.2648360236220473
0
LINE
8
BLACK
6
CONTINUOUS
10
3.934070748031496
20
-4.2648360236220473
11
3.9680658267716535
21
-4.2521486614173227
0
LINE
8
BLACK
6
CONTINUOUS
10
3.9680658267716535
20
-4.2521486614173227
11
4.001515393700787
21
-4.2380859448818899
0
LINE
8
BLACK
6
CONTINUOUS
10
4.001515393700787
20
-4.2380859448818899
11
4.0343638582677164
21
-4.2226711811023625
0
LINE
8
BLACK
6
CONTINUOUS
10
4.0343638582677164
20
-4.2226711811023625
11
4.0665564960629919
21
-4.2059299999999995
0
LINE
8
BLACK
6
CONTINUOUS
10
4.0665564960629919
20
-4.2059299999999995
11
4.0980398818897639
21
-4.1878902755905507
0
LINE
8
BLACK
6
CONTINUOUS
10
4.0980398818897639
20
-4.1878902755905507
11
4.1287616141732286
21
-4.1685820078740159
0
LINE
8
BLACK
6
CONTINUOUS
10
4.1287616141732286
20
-4.1685820078740159
11
4.1586706299212599
21
-4.1480372834645669
0
LINE
8
BLACK
6
CONTINUOUS
10
4.1586706299212599
20
-4.1480372834645669
11
4.1877171653543304
21
-4.1262902755905513
0
LINE
8
BLACK
6
CONTINUOUS
10
4.1877171653543304
20
-4.1262902755905513
11
4.2158529527559052
21
-4.1033771259842515
0
LINE
8
BLACK
6
CONTINUOUS
10
4.2158529527559052
20
-4.1033771259842515
11
4.2430311811023618
21
-4.0793359448818896
0
LINE
8
BLACK
6
CONTINUOUS
10
4.2430311811023618
20
-4.0793359448818896
11
4.2692066535433071
21
-4.0542067322834647
0
LINE
8
BLACK
6
CONTINUOUS
10
4.2692066535433071
20
-4.0542067322834647
11
4.2943359055118107
21
-4.0280312204724407
0
LINE
8
BLACK
6
CONTINUOUS
10
4.2943359055118107
20
-4.0280312204724407
11
4.3183770866141735
21
-4.0008529921259841
0
LINE
8
BLACK
6
CONTINUOUS
10
4.3183770866141735
20
-4.0008529921259841
11
4.3412902362204724
21
-3.9727172047244093
0
LINE
8
BLACK
6
CONTINUOUS
10
4.3412902362204724
20
-3.9727172047244093
11
4.363037244094488
21
-3.9436706692913384
0
LINE
8
BLACK
6
CONTINUOUS
10
4.363037244094488
20
-3.9436706692913384
11
4.383581968503937
21
-3.9137616929133858
0
LINE
8
BLACK
6
CONTINUOUS
10
4.383581968503937
20
-3.9137616929133858
11
4.4028902362204727
21
-3.8830399606299211
0
LINE
8
BLACK
6
CONTINUOUS
10
4.4028902362204727
20
-3.8830399606299211
11
4.4209299606299215
21
-3.8515565748031495
0
LINE
8
BLACK
6
CONTINUOUS
10
4.4209299606299215
20
-3.8515565748031495
11
4.4376711417322836
21
-3.8193638976377953
0
LINE
8
BLACK
6
CONTINUOUS
10
4.4376711417322836
20
-3.8193638976377953
11
4.453085905511811
21
-3.7865154724409447
0
LINE
8
BLACK
6
CONTINUOUS
10
4.453085905511811
20
-3.7865154724409447
11
4.4671486614173226
21
-3.7530659055118107
0
LINE
8
BLACK
6
CONTINUOUS
10
4.4671486614173226
20
-3.7530659055118107
11
4.4798359842519684
21
-3.7190708267716532
0
LINE
8
BLACK
6
CONTINUOUS
10
4.4798359842519684
20
-3.7190708267716532
11
4.491126811023622
21
-3.6845867322834644
0
LINE
8
BLACK
6
CONTINUOUS
10
4.491126811023622
20
-3.6845867322834644
11
4.5010023622047246
21
-3.6496710236220471
0
LINE
8
BLACK
6
CONTINUOUS
10
4.5010023622047246
20
-3.6496710236220471
11
4.5094461811023621
21
-3.6143816929133856
0
LINE
8
BLACK
6
CONTINUOUS
10
4.5094461811023621
20
-3.6143816929133856
11
4.5164442913385825
21
-3.5787774803149603
0
LINE
8
BLACK
6
CONTINUOUS
10
4.5164442913385825
20
-3.5787774803149603
11
4.5219849999999999
21
-3.5429175590551178
0
LINE
8
BLACK
6
CONTINUOUS
10
4.5219849999999999
20
-3.5429175590551178
11
4.5239992519685037
21
-3.5250895669291338
0
LINE
8
BLACK
6
CONTINUOUS
10
4.5239992519685037
20
-3.5250895669291338
11
4.5228801574803148
21
-3.5213511023622046
0
LINE
8
BLACK
6
CONTINUOUS
10
4.5228801574803148
20
-3.5213511023622046
11
4.5192996456692915
21
-3.5139647637795273
0
LINE
8
BLACK
6
CONTINUOUS
10
4.5192996456692915
20
-3.5139647637795273
11
4.5145886220472438
21
-3.5072428346456692
0
LINE
8
BLACK
6
CONTINUOUS
10
4.5145886220472438
20
-3.5072428346456692
11
4.5088673622047244
21
-3.501356811023622
0
LINE
8
BLACK
6
CONTINUOUS
10
4.5088673622047244
20
-3.501356811023622
11
4.5022818110236216
21
-3.4964569685039368
0
LINE
8
BLACK
6
CONTINUOUS
10
4.5022818110236216
20
-3.4964569685039368
11
4.4950000393700789
21
-3.4926682677165353
0
LINE
8
BLACK
6
CONTINUOUS
10
4.4950000393700789
20
-3.4926682677165353
11
4.4872079133858263
21
-3.4900874803149606
0
LINE
8
BLACK
6
CONTINUOUS
10
4.4872079133858263
20
-3.4900874803149606
11
4.4791042125984255
21
-3.4887803937007873
0
LINE
8
BLACK
6
CONTINUOUS
10
4.4791042125984255
20
-3.4887803937007873
11
4.4708958267716534
21
-3.4887803937007873
0
LINE
8
BLACK
6
CONTINUOUS
10
4.4708958267716534
20
-3.4887803937007873
11
4.4627921259842518
21
-3.4900874803149606
0
LINE
8
BLACK
6
CONTINUOUS
10
3.7401105511811021
20
-2.5390220472440945
11
3.7761480708661415
21
-2.5438401181102361
0
LINE
8
BLACK
6
CONTINUOUS
10
3.7761480708661415
20
-2.5438401181102361
11
3.811959212598425
21
-2.5501233858267716
0
LINE
8
BLACK
6
CONTINUOUS
10
3.811959212598425
20
-2.5501233858267716
11
3.847484409448819
21
-2.5578614566929132
0
LINE
8
BLACK
6
CONTINUOUS
10
3.847484409448819
20
-2.5578614566929132
11
3.8826646062992127
21
-2.5670414173228346
0
LINE
8
BLACK
6
CONTINUOUS
10
3.8826646062992127
20
-2.5670414173228346
11
3.9174412598425197
21
-2.5776479921259843
0
LINE
8
BLACK
6
CONTINUOUS
10
3.9174412598425197
20
-2.5776479921259843
11
3.9517566141732283
21
-2.5896636220472442
0
LINE
8
BLACK
6
CONTINUOUS
10
3.9517566141732283
20
-2.5896636220472442
11
3.9855535433070863
21
-2.6030682283464568
0
LINE
8
BLACK
6
CONTINUOUS
10
3.9855535433070863
20
-2.6030682283464568
11
4.0187758661417323
21
-2.6178396062992126
0
LINE
8
BLACK
6
CONTINUOUS
10
4.0187758661417323
20
-2.6178396062992126
11
4.0513683858267715
21
-2.6339531496062993
0
LINE
8
BLACK
6
CONTINUOUS
10
4.0513683858267715
20
-2.6339531496062993
11
4.0832768503937009
21
-2.6513820472440943
0
LINE
8
BLACK
6
CONTINUOUS
10
4.0832768503937009
20
-2.6513820472440943
11
4.114448188976378
21
-2.6700973622047242
0
LINE
8
BLACK
6
CONTINUOUS
10
4.114448188976378
20
-2.6700973622047242
11
4.1448306299212598
21
-2.6900679527559053
0
LINE
8
BLACK
6
CONTINUOUS
10
4.1448306299212598
20
-2.6900679527559053
11
4.174373622047244
21
-2.7112606299212598
0
LINE
8
BLACK
6
CONTINUOUS
10
4.174373622047244
20
-2.7112606299212598
11
4.2030280314960633
21
-2.7336401181102361
0
LINE
8
BLACK
6
CONTINUOUS
10
4.2030280314960633
20
-2.7336401181102361
11
4.2307462204724411
21
-2.7571692125984253
0
LINE
8
BLACK
6
CONTINUOUS
10
4.2307462204724411
20
-2.7571692125984253
11
4.2574821259842519
21
-2.7818088188976375
0
LINE
8
BLACK
6
CONTINUOUS
10
4.2574821259842519
20
-2.7818088188976375
11
4.2831912204724407
21
-2.8075179527559055
0
LINE
8
BLACK
6
CONTINUOUS
10
4.2831912204724407
20
-2.8075179527559055
11
4.3078308267716539
21
-2.8342538188976376
0
LINE
8
BLACK
6
CONTINUOUS
10
4.3078308267716539
20
-2.8342538188976376
11
4.3313599212598426
21
-2.8619720078740158
0
LINE
8
BLACK
6
CONTINUOUS
10
4.3313599212598426
20
-2.8619720078740158
11
4.3537394094488189
21
-2.8906264173228347
0
LINE
8
BLACK
6
CONTINUOUS
10
4.3537394094488189
20
-2.8906264173228347
11
4.374932086614173
21
-2.9201694094488189
0
LINE
8
BLACK
6
CONTINUOUS
10
4.374932086614173
20
-2.9201694094488189
11
4.3949026771653541
21
-2.9505518503937007
0
LINE
8
BLACK
6
CONTINUOUS
10
4.3949026771653541
20
-2.9505518503937007
11
4.4136179921259844
21
-2.9817232283464565
0
LINE
8
BLACK
6
CONTINUOUS
10
4.4136179921259844
20
-2.9817232283464565
11
4.4310468897637794
21
-3.013631692913386
0
LINE
8
BLACK
6
CONTINUOUS
10
4.4310468897637794
20
-3.013631692913386
11
4.4471604330708656
21
-3.0462242125984251
0
LINE
8
BLACK
6
CONTINUOUS
10
4.4471604330708656
20
-3.0462242125984251
11
4.4619317716535436
21
-3.0794465354330707
0
LINE
8
BLACK
6
CONTINUOUS
10
4.4619317716535436
20
-3.0794465354330707
11
4.4753364173228345
21
-3.1132434645669291
0
LINE
8
BLACK
6
CONTINUOUS
10
4.4753364173228345
20
-3.1132434645669291
11
4.4873520078740157
21
-3.1475588188976378
0
LINE
8
BLACK
6
CONTINUOUS
10
4.4873520078740157
20
-3.1475588188976378
11
4.4979586220472436
21
-3.1823354724409447
0
LINE
8
BLACK
6
CONTINUOUS
10
4.4979586220472436
20
-3.1823354724409447
11
4.5071385826771655
21
-3.2175156692913385
0
LINE
8
BLACK
6
CONTINUOUS
10
4.5071385826771655
20
-3.2175156692913385
11
4.5148766141732279
21
-3.253040866141732
0
LINE
8
BLACK
6
CONTINUOUS
10
4.5148766141732279
20
-3.253040866141732
11
4.5211599212598426
21
-3.2888520078740155
0
LINE
8
BLACK
6
CONTINUOUS
10
4.5211599212598426
20
-3.2888520078740155
11
4.5259779527559054
21
-3.3248895275590549
0
LINE
8
BLACK
6
CONTINUOUS
10
4.5259779527559054
20
-3.3248895275590549
11
4.5259779921259842
21
-3.3248895275590549
0
LINE
8
BLACK
6
CONTINUOUS
10
4.5259779921259842
20
-3.3248895275590549
11
4.5259381889763777
21
-3.3250841338582675
0
LINE
8
BLACK
6
CONTINUOUS
10
4.5259381889763777
20
-3.3250841338582675
11
4.5259427165354333
21
-3.3252829133858266
0
LINE
8
BLACK
6
CONTINUOUS
10
4.5259427165354333
20
-3.3252829133858266
11
4.5259426771653546
21
-3.3252829133858266
0
LINE
8
BLACK
6
CONTINUOUS
10
4.5259426771653546
20
-3.3252829133858266
11
4.5228590944881892
21
-3.3331998425196852
0
LINE
8
BLACK
6
CONTINUOUS
10
4.5228590944881892
20
-3.3331998425196852
11
4.5185541732283463
21
-3.3405247244094487
0
LINE
8
BLACK
6
CONTINUOUS
10
4.5185541732283463
20
-3.3405247244094487
11
4.5131377559055119
21
-3.3470706692913383
0
LINE
8
BLACK
6
CONTINUOUS
10
4.5131377559055119
20
-3.3470706692913383
11
4.5067481496062989
21
-3.3526705905511811
0
LINE
8
BLACK
6
CONTINUOUS
10
4.5067481496062989
20
-3.3526705905511811
11
4.4995483464566925
21
-3.3571816141732285
0
LINE
8
BLACK
6
CONTINUOUS
10
4.4995483464566925
20
-3.3571816141732285
11
4.4917220866141729
21
-3.3604885826771653
0
LINE
8
BLACK
6
CONTINUOUS
10
4.4917220866141729
20
-3.3604885826771653
11
4.4834690551181104
21
-3.3625071259842518
0
LINE
8
BLACK
6
CONTINUOUS
10
4.4834690551181104
20
-3.3625071259842518
11
4.4749999606299209
21
-3.3631857480314959
0
LINE
8
BLACK
6
CONTINUOUS
10
4.4749999606299209
20
-3.3631857480314959
11
4.4665308267716535
21
-3.3625071259842518
0
LINE
8
BLACK
6
CONTINUOUS
10
4.4665308267716535
20
-3.3625071259842518
11
4.4582778346456688
21
-3.3604885433070866
0
LINE
8
BLACK
6
CONTINUOUS
10
4.4582778346456688
20
-3.3604885433070866
11
4.4504515748031492
21
-3.3571815748031497
0
LINE
8
BLACK
6
CONTINUOUS
10
4.4504515748031492
20
-3.3571815748031497
11
4.4432517716535429
21
-3.3526705511811024
0
LINE
8
BLACK
6
CONTINUOUS
10
4.4432517716535429
20
-3.3526705511811024
11
4.4368621653543308
21
-3.3470705905511808
0
LINE
8
BLACK
6
CONTINUOUS
10
4.4368621653543308
20
-3.3470705905511808
11
4.4314457874015751
21
-3.3405246456692912
0
LINE
8
BLACK
6
CONTINUOUS
10
4.4314457874015751
20
-3.3405246456692912
11
4.4271408661417322
21
-3.3331997637795276
0
LINE
8
BLACK
6
CONTINUOUS
10
4.4271408661417322
20
-3.3331997637795276
11
4.4240572834645668
21
-3.3252827952755903
0
LINE
8
BLACK
6
CONTINUOUS
10
4.4240572834645668
20
-3.3252827952755903
11
4.4240572440944881
21
-3.3252828346456691
0
LINE
8
BLACK
6
CONTINUOUS
10
4.4240572440944881
20
-3.3252828346456691
11
4.4240590944881886
21
-3.3251997244094489
0
LINE
8
BLACK
6
CONTINUOUS
10
4.4240590944881886
20
-3.3251997244094489
11
4.4240235826771652
21
-3.325124409448819
0
LINE
8
BLACK
6
CONTINUOUS
10
4.4240235826771652
20
-3.325124409448819
11
4.4219007480314962
21
-3.3084629133858265
0
LINE
8
BLACK
6
CONTINUOUS
10
4.4219007480314962
20
-3.3084629133858265
11
4.4162439370078737
21
-3.2753502755905513
0
LINE
8
BLACK
6
CONTINUOUS
10
4.4162439370078737
20
-3.2753502755905513
11
4.4091854724409449
21
-3.2425078346456693
0
LINE
8
BLACK
6
CONTINUOUS
10
4.4091854724409449
20
-3.2425078346456693
11
4.4007381496062994
21
-3.2099949212598426
0
LINE
8
BLACK
6
CONTINUOUS
10
4.4007381496062994
20
-3.2099949212598426
11
4.3909171653543302
21
-3.1778702362204725
0
LINE
8
BLACK
6
CONTINUOUS
10
4.3909171653543302
20
-3.1778702362204725
11
4.3797402755905512
21
-3.146191811023622
0
LINE
8
BLACK
6
CONTINUOUS
10
4.3797402755905512
20
-3.146191811023622
11
4.3672276771653546
21
-3.1150167716535431
0
LINE
8
BLACK
6
CONTINUOUS
10
4.3672276771653546
20
-3.1150167716535431
11
4.3534019685039373
21
-3.0844014960629922
0
LINE
8
BLACK
6
CONTINUOUS
10
4.3534019685039373
20
-3.0844014960629922
11
4.3382880708661418
21
-3.0544011811023619
0
LINE
8
BLACK
6
CONTINUOUS
10
4.3382880708661418
20
-3.0544011811023619
11
4.3219133070866143
21
-3.0250700787401574
0
LINE
8
BLACK
6
CONTINUOUS
10
4.3219133070866143
20
-3.0250700787401574
11
4.3043072440944883
21
-2.9964611023622045
0
LINE
8
BLACK
6
CONTINUOUS
10
4.3043072440944883
20
-2.9964611023622045
11
4.2855016535433066
21
-2.9686259055118112
0
LINE
8
BLACK
6
CONTINUOUS
10
4.2855016535433066
20
-2.9686259055118112
11
4.2655305118110238
21
-2.9416148031496063
0
LINE
8
BLACK
6
CONTINUOUS
10
4.2655305118110238
20
-2.9416148031496063
11
4.2444298818897641
21
-2.915476496062992
0
LINE
8
BLACK
6
CONTINUOUS
10
4.2444298818897641
20
-2.915476496062992
11
4.2222378740157476
21
-2.8902582283464566
0
LINE
8
BLACK
6
CONTINUOUS
10
4.2222378740157476
20
-2.8902582283464566
11
4.198994527559055
21
-2.8660055118110237
0
LINE
8
BLACK
6
CONTINUOUS
10
4.198994527559055
20
-2.8660055118110237
11
4.1747418110236216
21
-2.8427621653543307
0
LINE
8
BLACK
6
CONTINUOUS
10
4.1747418110236216
20
-2.8427621653543307
11
4.1495235433070867
21
-2.820570157480315
0
LINE
8
BLACK
6
CONTINUOUS
10
4.1495235433070867
20
-2.820570157480315
11
4.1233852755905511
21
-2.7994695275590549
0
LINE
8
BLACK
6
CONTINUOUS
10
4.1233852755905511
20
-2.7994695275590549
11
4.0963741338582675
21
-2.7794983858267717
0
LINE
8
BLACK
6
CONTINUOUS
10
4.0963741338582675
20
-2.7794983858267717
11
4.0685389763779529
21
-2.7606927952755904
0
LINE
8
BLACK
6
CONTINUOUS
10
4.0685389763779529
20
-2.7606927952755904
11
4.03993
21
-2.7430867322834644
0
LINE
8
BLACK
6
CONTINUOUS
10
4.03993
20
-2.7430867322834644
11
4.0105988582677163
21
-2.7267119685039369
0
LINE
8
BLACK
6
CONTINUOUS
10
4.0105988582677163
20
-2.7267119685039369
11
3.9805985826771653
21
-2.7115980708661418
0
LINE
8
BLACK
6
CONTINUOUS
10
3.9805985826771653
20
-2.7115980708661418
11
3.9499833070866139
21
-2.6977723622047245
0
LINE
8
BLACK
6
CONTINUOUS
10
3.9499833070866139
20
-2.6977723622047245
11
3.9188082677165355
21
-2.6852597637795275
0
LINE
8
BLACK
6
CONTINUOUS
10
3.9188082677165355
20
-2.6852597637795275
11
3.8871298031496062
21
-2.6740828740157481
0
LINE
8
BLACK
6
CONTINUOUS
10
3.8871298031496062
20
-2.6740828740157481
11
3.8550051574803148
21
-2.6642618897637793
0
LINE
8
BLACK
6
CONTINUOUS
10
3.8550051574803148
20
-2.6642618897637793
11
3.8224922440944882
21
-2.655814527559055
0
LINE
8
BLACK
6
CONTINUOUS
10
3.8224922440944882
20
-2.655814527559055
11
3.7896498031496062
21
-2.6487560629921258
0
LINE
8
BLACK
6
CONTINUOUS
10
3.7896498031496062
20
-2.6487560629921258
11
3.7565371653543305
21
-2.6430992519685037
0
LINE
8
BLACK
6
CONTINUOUS
10
3.7565371653543305
20
-2.6430992519685037
11
3.7398756692913384
21
-2.6409764173228347
0
LINE
8
BLACK
6
CONTINUOUS
10
3.7398756692913384
20
-2.6409764173228347
11
3.7398001574803148
21
-2.6409407874015747
0
LINE
8
BLACK
6
CONTINUOUS
10
3.7398001574803148
20
-2.6409407874015747
11
3.7397172047244092
21
-2.6409426771653544
0
LINE
8
BLACK
6
CONTINUOUS
10
3.7397172047244092
20
-2.6409426771653544
11
3.7397172440944879
21
-2.6409426377952756
0
LINE
8
BLACK
6
CONTINUOUS
10
3.7397172440944879
20
-2.6409426377952756
11
3.7318002755905511
21
-2.6378590551181103
0
LINE
8
BLACK
6
CONTINUOUS
10
3.7318002755905511
20
-2.6378590551181103
11
3.7244753937007875
21
-2.6335541338582678
0
LINE
8
BLACK
6
CONTINUOUS
10
3.7244753937007875
20
-2.6335541338582678
11
3.7179294488188974
21
-2.6281377559055117
0
LINE
8
BLACK
6
CONTINUOUS
10
3.7179294488188974
20
-2.6281377559055117
11
3.7123295275590551
21
-2.6217481496062991
0
LINE
8
BLACK
6
CONTINUOUS
10
3.7123295275590551
20
-2.6217481496062991
11
3.7078185039370077
21
-2.6145483464566928
0
LINE
8
BLACK
6
CONTINUOUS
10
3.7078185039370077
20
-2.6145483464566928
11
3.7045114960629921
21
-2.6067220866141732
0
LINE
8
BLACK
6
CONTINUOUS
10
3.7045114960629921
20
-2.6067220866141732
11
3.7024929527559056
21
-2.598469094488189
0
LINE
8
BLACK
6
CONTINUOUS
10
3.7024929527559056
20
-2.598469094488189
11
3.7018143307086615
21
-2.5899999999999999
0
LINE
8
BLACK
6
CONTINUOUS
10
3.7018143307086615
20
-2.5899999999999999
11
3.7024929527559056
21
-2.5815308661417324
0
LINE
8
BLACK
6
CONTINUOUS
10
3.7024929527559056
20
-2.5815308661417324
11
3.7045115354330709
21
-2.5732778740157478
0
LINE
8
BLACK
6
CONTINUOUS
10
3.7045115354330709
20
-2.5732778740157478
11
3.7078185039370077
21
-2.5654516141732282
0
LINE
8
BLACK
6
CONTINUOUS
10
3.7078185039370077
20
-2.5654516141732282
11
3.7123295275590551
21
-2.5582518110236219
0
LINE
8
BLACK
6
CONTINUOUS
10
3.7123295275590551
20
-2.5582518110236219
11
3.7179294881889762
21
-2.5518622047244093
0
LINE
8
BLACK
6
CONTINUOUS
10
3.7179294881889762
20
-2.5518622047244093
11
3.7244754330708663
21
-2.5464458267716537
0
LINE
8
BLACK
6
CONTINUOUS
10
3.7244754330708663
20
-2.5464458267716537
11
3.7318003149606298
21
-2.5421409448818899
0
LINE
8
BLACK
6
CONTINUOUS
10
3.7318003149606298
20
-2.5421409448818899
11
3.7397172440944879
21
-2.5390573622047246
0
LINE
8
BLACK
6
CONTINUOUS
10
3.7397172440944879
20
-2.5390573622047246
11
3.7397172440944879
21
-2.5390573228346458
0
LINE
8
BLACK
6
CONTINUOUS
10
3.7397172440944879
20
-2.5390573228346458
11
3.7399157480314962
21
-2.5390618110236218
0
LINE
8
BLACK
6
CONTINUOUS
10
3.7399157480314962
20
-2.5390618110236218
11
3.7401105511811021
21
-2.5390220078740158
0
LINE
8
BLACK
6
CONTINUOUS
10
3.7401105511811021
20
-2.5390220078740158
11
3.7401105511811021
21
-2.5390220472440945
0
LINE
8
BLACK
6
CONTINUOUS
10
3.7363511023622045
20
-2.5421198425196851
11
3.7289647637795276
21
-2.5457003543307084
0
LINE
8
BLACK
6
CONTINUOUS
10
3.7289647637795276
20
-2.5457003543307084
11
3.7222428346456691
21
-2.5504113779527557
0
LINE
8
BLACK
6
CONTINUOUS
10
3.7222428346456691
20
-2.5504113779527557
11
3.7163568110236218
21
-2.5561326377952756
0
LINE
8
BLACK
6
CONTINUOUS
10
3.7163568110236218
20
-2.5561326377952756
11
3.7114569685039371
21
-2.5627181889763779
0
LINE
8
BLACK
6
CONTINUOUS
10
3.7114569685039371
20
-2.5627181889763779
11
3.7076682677165356
21
-2.5699999606299211
0
LINE
8
BLACK
6
CONTINUOUS
10
3.7076682677165356
20
-2.5699999606299211
11
3.7050874803149605
21
-2.5777920866141733
0
LINE
8
BLACK
6
CONTINUOUS
10
3.7050874803149605
20
-2.5777920866141733
11
3.7037803937007872
21
-2.5858957874015749
0
LINE
8
BLACK
6
CONTINUOUS
10
3.7037803937007872
20
-2.5858957874015749
11
3.7037803937007872
21
-2.5941041732283465
0
LINE
8
BLACK
6
CONTINUOUS
10
3.7037803937007872
20
-2.5941041732283465
11
3.7050874803149605
21
-2.6022078740157482
0
LINE
8
BLACK
6
CONTINUOUS
10
3.7050874803149605
20
-2.6022078740157482
11
3.7076682677165356
21
-2.6099999999999999
0
LINE
8
BLACK
6
CONTINUOUS
10
3.7076682677165356
20
-2.6099999999999999
11
3.7114569291338584
21
-2.617281771653543
0
LINE
8
BLACK
6
CONTINUOUS
10
3.7114569291338584
20
-2.617281771653543
11
3.7163568110236218
21
-2.6238673228346454
0
LINE
8
BLACK
6
CONTINUOUS
10
3.7163568110236218
20
-2.6238673228346454
11
3.7222427952755903
21
-2.629588622047244
0
LINE
8
BLACK
6
CONTINUOUS
10
3.7222427952755903
20
-2.629588622047244
11
3.7289647244094488
21
-2.6342996456692913
0
LINE
8
BLACK
6
CONTINUOUS
10
3.7289647244094488
20
-2.6342996456692913
11
3.7363510629921257
21
-2.637880157480315
0
LINE
8
BLACK
6
CONTINUOUS
10
3.7363510629921257
20
-2.637880157480315
11
3.7402173622047243
21
-2.6390375196850395
0
LINE
8
BLACK
6
CONTINUOUS
10
3.7402173622047243
20
-2.6390375196850395
11
3.7734250393700788
21
-2.6439869291338582
0
LINE
8
BLACK
6
CONTINUOUS
10
3.7734250393700788
20
-2.6439869291338582
11
3.8064847244094486
21
-2.6503604330708659
0
LINE
8
BLACK
6
CONTINUOUS
10
3.8064847244094486
20
-2.6503604330708659
11
3.8392437795275591
21
-2.6581326377952754
0
LINE
8
BLACK
6
CONTINUOUS
10
3.8392437795275591
20
-2.6581326377952754
11
3.8716430708661416
21
-2.6672895669291337
0
LINE
8
BLACK
6
CONTINUOUS
10
3.8716430708661416
20
-2.6672895669291337
11
3.9036241338582678
21
-2.6778146456692911
0
LINE
8
BLACK
6
CONTINUOUS
10
3.9036241338582678
20
-2.6778146456692911
11
3.9351291338582675
21
-2.6896888976377951
0
LINE
8
BLACK
6
CONTINUOUS
10
3.9351291338582675
20
-2.6896888976377951
11
3.9661012598425196
21
-2.7028908661417321
0
LINE
8
BLACK
6
CONTINUOUS
10
3.9661012598425196
20
-2.7028908661417321
11
3.9964845669291336
21
-2.7173967322834645
0
LINE
8
BLACK
6
CONTINUOUS
10
3.9964845669291336
20
-2.7173967322834645
11
4.0262241338582676
21
-2.7331802755905512
0
LINE
8
BLACK
6
CONTINUOUS
10
4.0262241338582676
20
-2.7331802755905512
11
4.0552663779527558
21
-2.7502129921259844
0
LINE
8
BLACK
6
CONTINUOUS
10
4.0552663779527558
20
-2.7502129921259844
11
4.0835587401574802
21
-2.7684641732283466
0
LINE
8
BLACK
6
CONTINUOUS
10
4.0835587401574802
20
-2.7684641732283466
11
4.1110501968503934
21
-2.7879008267716534
0
LINE
8
BLACK
6
CONTINUOUS
10
4.1110501968503934
20
-2.7879008267716534
11
4.1376911023622043
21
-2.8084878740157482
0
LINE
8
BLACK
6
CONTINUOUS
10
4.1376911023622043
20
-2.8084878740157482
11
4.1634333464566931
21
-2.8301881102362203
0
LINE
8
BLACK
6
CONTINUOUS
10
4.1634333464566931
20
-2.8301881102362203
11
4.1882304724409449
21
-2.852962401574803
0
LINE
8
BLACK
6
CONTINUOUS
10
4.1882304724409449
20
-2.852962401574803
11
4.2120376377952757
21
-2.8767696062992125
0
LINE
8
BLACK
6
CONTINUOUS
10
4.2120376377952757
20
-2.8767696062992125
11
4.2348119291338584
21
-2.9015666929133856
0
LINE
8
BLACK
6
CONTINUOUS
10
4.2348119291338584
20
-2.9015666929133856
11
4.256512165354331
21
-2.927308937007874
0
LINE
8
BLACK
6
CONTINUOUS
10
4.256512165354331
20
-2.927308937007874
11
4.2770992125984248
21
-2.9539498425196848
0
LINE
8
BLACK
6
CONTINUOUS
10
4.2770992125984248
20
-2.9539498425196848
11
4.2965358661417321
21
-2.9814413385826772
0
LINE
8
BLACK
6
CONTINUOUS
10
4.2965358661417321
20
-2.9814413385826772
11
4.3147870472440948
21
-3.0097337007874017
0
LINE
8
BLACK
6
CONTINUOUS
10
4.3147870472440948
20
-3.0097337007874017
11
4.331819763779527
21
-3.0387759055118111
0
LINE
8
BLACK
6
CONTINUOUS
10
4.331819763779527
20
-3.0387759055118111
11
4.3476033070866142
21
-3.0685155118110234
0
LINE
8
BLACK
6
CONTINUOUS
10
4.3476033070866142
20
-3.0685155118110234
11
4.3621091732283466
21
-3.0988988188976379
0
LINE
8
BLACK
6
CONTINUOUS
10
4.3621091732283466
20
-3.0988988188976379
11
4.3753111417322836
21
-3.1298709448818895
0
LINE
8
BLACK
6
CONTINUOUS
10
4.3753111417322836
20
-3.1298709448818895
11
4.3871853937007872
21
-3.1613759448818897
0
LINE
8
BLACK
6
CONTINUOUS
10
4.3871853937007872
20
-3.1613759448818897
11
4.397710472440945
21
-3.1933569685039371
0
LINE
8
BLACK
6
CONTINUOUS
10
4.397710472440945
20
-3.1933569685039371
11
4.4068674015748028
21
-3.2257562992125983
0
LINE
8
BLACK
6
CONTINUOUS
10
4.4068674015748028
20
-3.2257562992125983
11
4.4146396062992128
21
-3.2585153543307084
0
LINE
8
BLACK
6
CONTINUOUS
10
4.4146396062992128
20
-3.2585153543307084
11
4.4210130708661417
21
-3.2915750393700787
0
LINE
8
BLACK
6
CONTINUOUS
10
4.4210130708661417
20
-3.2915750393700787
11
4.4259624409448817
21
-3.3247828740157481
0
LINE
8
BLACK
6
CONTINUOUS
10
4.4259624409448817
20
-3.3247828740157481
11
4.4271197637795279
21
-3.3286489763779525
0
LINE
8
BLACK
6
CONTINUOUS
10
4.4271197637795279
20
-3.3286489763779525
11
4.4307003149606299
21
-3.3360353149606299
0
LINE
8
BLACK
6
CONTINUOUS
10
4.4307003149606299
20
-3.3360353149606299
11
4.4354113385826768
21
-3.3427572440944879
0
LINE
8
BLACK
6
CONTINUOUS
10
4.4354113385826768
20
-3.3427572440944879
11
4.441132598425197
21
-3.3486432677165352
0
LINE
8
BLACK
6
CONTINUOUS
10
4.441132598425197
20
-3.3486432677165352
11
4.447718149606299
21
-3.3535431102362203
0
LINE
8
BLACK
6
CONTINUOUS
10
4.447718149606299
20
-3.3535431102362203
11
4.4549999212598426
21
-3.3573317716535431
0
LINE
8
BLACK
6
CONTINUOUS
10
4.4549999212598426
20
-3.3573317716535431
11
4.462792086614173
21
-3.359912598425197
0
LINE
8
BLACK
6
CONTINUOUS
10
4.462792086614173
20
-3.359912598425197
11
4.4708957480314959
21
-3.3612196850393699
0
LINE
8
BLACK
6
CONTINUOUS
10
4.4708957480314959
20
-3.3612196850393699
11
4.4791041732283468
21
-3.3612196850393699
0
LINE
8
BLACK
6
CONTINUOUS
10
4.4791041732283468
20
-3.3612196850393699
11
4.4872078346456687
21
-3.359912598425197
0
LINE
8
BLACK
6
CONTINUOUS
10
4.4872078346456687
20
-3.359912598425197
11
4.4950000000000001
21
-3.3573318110236219
0
LINE
8
BLACK
6
CONTINUOUS
10
4.4950000000000001
20
-3.3573318110236219
11
4.5022817716535428
21
-3.3535431496062991
0
LINE
8
BLACK
6
CONTINUOUS
10
4.5022817716535428
20
-3.3535431496062991
11
4.5088673228346456
21
-3.348643307086614
0
LINE
8
BLACK
6
CONTINUOUS
10
4.5088673228346456
20
-3.348643307086614
11
4.5145886220472438
21
-3.3427573228346454
0
LINE
8
BLACK
6
CONTINUOUS
10
4.5145886220472438
20
-3.3427573228346454
11
4.5192996456692915
21
-3.3360353937007874
0
LINE
8
BLACK
6
CONTINUOUS
10
4.5192996456692915
20
-3.3360353937007874
11
4.5228801968503936
21
-3.32864905511811
0
LINE
8
BLACK
6
CONTINUOUS
10
4.5228801968503936
20
-3.32864905511811
11
4.5239993307086612
21
-3.3249105511811021
0
LINE
8
BLACK
6
CONTINUOUS
10
4.5239993307086612
20
-3.3249105511811021
11
4.5219850393700787
21
-3.3070825196850393
0
LINE
8
BLACK
6
CONTINUOUS
10
4.5219850393700787
20
-3.3070825196850393
11
4.5164443307086612
21
-3.2712225984251968
0
LINE
8
BLACK
6
CONTINUOUS
10
4.5164443307086612
20
-3.2712225984251968
11
4.5094462204724408
21
-3.2356183858267715
0
LINE
8
BLACK
6
CONTINUOUS
10
4.5094462204724408
20
-3.2356183858267715
11
4.5010023622047246
21
-3.2003290551181101
0
LINE
8
BLACK
6
CONTINUOUS
10
4.5010023622047246
20
-3.2003290551181101
11
4.491126811023622
21
-3.1654133070866139
0
LINE
8
BLACK
6
CONTINUOUS
10
4.491126811023622
20
-3.1654133070866139
11
4.4798360236220471
21
-3.1309292519685039
0
LINE
8
BLACK
6
CONTINUOUS
10
4.4798360236220471
20
-3.1309292519685039
11
4.4671486614173226
21
-3.0969341732283464
0
LINE
8
BLACK
6
CONTINUOUS
10
4.4671486614173226
20
-3.0969341732283464
11
4.4530859448818898
21
-3.0634846062992125
0
LINE
8
BLACK
6
CONTINUOUS
10
4.4530859448818898
20
-3.0634846062992125
11
4.4376711811023624
21
-3.0306361417322836
0
LINE
8
BLACK
6
CONTINUOUS
10
4.4376711811023624
20
-3.0306361417322836
11
4.4209300000000002
21
-2.9984435039370076
0
LINE
8
BLACK
6
CONTINUOUS
10
4.4209300000000002
20
-2.9984435039370076
11
4.4028902755905515
21
-2.9669601181102361
0
LINE
8
BLACK
6
CONTINUOUS
10
4.4028902755905515
20
-2.9669601181102361
11
4.3835820078740158
21
-2.9362383858267718
0
LINE
8
BLACK
6
CONTINUOUS
10
4.3835820078740158
20
-2.9362383858267718
11
4.3630372834645668
21
-2.90632937007874
0
LINE
8
BLACK
6
CONTINUOUS
10
4.3630372834645668
20
-2.90632937007874
11
4.3412902755905511
21
-2.8772828346456691
0
LINE
8
BLACK
6
CONTINUOUS
10
4.3412902755905511
20
-2.8772828346456691
11
4.3183771259842523
21
-2.8491470472440943
0
LINE
8
BLACK
6
CONTINUOUS
10
4.3183771259842523
20
-2.8491470472440943
11
4.2943359448818894
21
-2.8219688188976377
0
LINE
8
BLACK
6
CONTINUOUS
10
4.2943359448818894
20
-2.8219688188976377
11
4.2692067322834646
21
-2.7957933464566929
0
LINE
8
BLACK
6
CONTINUOUS
10
4.2692067322834646
20
-2.7957933464566929
11
4.2430312204724405
21
-2.7706640944881888
0
LINE
8
BLACK
6
CONTINUOUS
10
4.2430312204724405
20
-2.7706640944881888
11
4.215852992125984
21
-2.7466229133858269
0
LINE
8
BLACK
6
CONTINUOUS
10
4.215852992125984
20
-2.7466229133858269
11
4.1877172047244091
21
-2.7237097637795276
0
LINE
8
BLACK
6
CONTINUOUS
10
4.1877172047244091
20
-2.7237097637795276
11
4.1586706692913387
21
-2.7019627559055119
0
LINE
8
BLACK
6
CONTINUOUS
10
4.1586706692913387
20
-2.7019627559055119
11
4.1287616929133861
21
-2.6814180314960629
0
LINE
8
BLACK
6
CONTINUOUS
10
4.1287616929133861
20
-2.6814180314960629
11
4.0980399606299214
21
-2.6621097637795277
0
LINE
8
BLACK
6
CONTINUOUS
10
4.0980399606299214
20
-2.6621097637795277
11
4.0665565748031494
21
-2.6440700393700789
0
LINE
8
BLACK
6
CONTINUOUS
10
4.0665565748031494
20
-2.6440700393700789
11
4.0343638976377951
21
-2.6273288582677163
0
LINE
8
BLACK
6
CONTINUOUS
10
4.0343638976377951
20
-2.6273288582677163
11
4.0015154724409445
21
-2.6119140944881889
0
LINE
8
BLACK
6
CONTINUOUS
10
4.0015154724409445
20
-2.6119140944881889
11
3.968065905511811
21
-2.5978513385826769
0
LINE
8
BLACK
6
CONTINUOUS
10
3.968065905511811
20
-2.5978513385826769
11
3.9340708267716535
21
-2.5851640157480316
0
LINE
8
BLACK
6
CONTINUOUS
10
3.9340708267716535
20
-2.5851640157480316
11
3.8995867322834643
21
-2.573873188976378
0
LINE
8
BLACK
6
CONTINUOUS
10
3.8995867322834643
20
-2.573873188976378
11
3.864671023622047
21
-2.5639976377952753
0
LINE
8
BLACK
6
CONTINUOUS
10
3.864671023622047
20
-2.5639976377952753
11
3.8293816929133859
21
-2.5555538188976379
0
LINE
8
BLACK
6
CONTINUOUS
10
3.8293816929133859
20
-2.5555538188976379
11
3.7937774803149606
21
-2.5485557086614175
0
LINE
8
BLACK
6
CONTINUOUS
10
3.7937774803149606
20
-2.5485557086614175
11
3.7579175590551182
21
-2.543015
0
LINE
8
BLACK
6
CONTINUOUS
10
3.7579175590551182
20
-2.543015
11
3.7400895669291336
21
-2.5410007086614175
0
LINE
8
BLACK
6
CONTINUOUS
10
3.7400895669291336
20
-2.5410007086614175
11
3.7363511023622045
21
-2.5421198425196851
0
LINE
8
BLACK
6
CONTINUOUS
10
3.5400841338582678
20
-2.5390617716535431
11
3.5402829133858269
21
-2.539057283464567
0
LINE
8
BLACK
6
CONTINUOUS
10
3.5402829133858269
20
-2.539057283464567
11
3.5402829133858269
21
-2.5390573228346458
0
LINE
8
BLACK
6
CONTINUOUS
10
3.5402829133858269
20
-2.5390573228346458
11
3.548199842519685
21
-2.5421409055118112
0
LINE
8
BLACK
6
CONTINUOUS
10
3.548199842519685
20
-2.5421409055118112
11
3.5555247244094486
21
-2.5464458267716537
0
LINE
8
BLACK
6
CONTINUOUS
10
3.5555247244094486
20
-2.5464458267716537
11
3.5620706692913386
21
-2.551862244094488
0
LINE
8
BLACK
6
CONTINUOUS
10
3.5620706692913386
20
-2.551862244094488
11
3.567670590551181
21
-2.5582518503937006
0
LINE
8
BLACK
6
CONTINUOUS
10
3.567670590551181
20
-2.5582518503937006
11
3.5721816141732283
21
-2.565451653543307
0
LINE
8
BLACK
6
CONTINUOUS
10
3.5721816141732283
20
-2.565451653543307
11
3.5754885826771652
21
-2.5732779133858266
0
LINE
8
BLACK
6
CONTINUOUS
10
3.5754885826771652
20
-2.5732779133858266
11
3.5775071259842517
21
-2.5815309448818895
0
LINE
8
BLACK
6
CONTINUOUS
10
3.5775071259842517
20
-2.5815309448818895
11
3.5781857480314958
21
-2.5900000393700786
0
LINE
8
BLACK
6
CONTINUOUS
10
3.5781857480314958
20
-2.5900000393700786
11
3.5775071259842517
21
-2.5984691732283465
0
LINE
8
BLACK
6
CONTINUOUS
10
3.5775071259842517
20
-2.5984691732283465
11
3.5754885433070864
21
-2.6067221653543307
0
LINE
8
BLACK
6
CONTINUOUS
10
3.5754885433070864
20
-2.6067221653543307
11
3.5721815748031496
21
-2.6145484251968503
0
LINE
8
BLACK
6
CONTINUOUS
10
3.5721815748031496
20
-2.6145484251968503
11
3.5676705511811022
21
-2.6217482283464566
0
LINE
8
BLACK
6
CONTINUOUS
10
3.5676705511811022
20
-2.6217482283464566
11
3.5620705905511811
21
-2.6281378346456692
0
LINE
8
BLACK
6
CONTINUOUS
10
3.5620705905511811
20
-2.6281378346456692
11
3.5555246456692911
21
-2.6335542125984253
0
LINE
8
BLACK
6
CONTINUOUS
10
3.5555246456692911
20
-2.6335542125984253
11
3.5481997637795275
21
-2.6378591338582678
0
LINE
8
BLACK
6
CONTINUOUS
10
3.5481997637795275
20
-2.6378591338582678
11
3.5402827952755906
21
-2.6409427165354331
0
LINE
8
BLACK
6
CONTINUOUS
10
3.5402827952755906
20
-2.6409427165354331
11
3.5402828346456694
21
-2.6409427559055119
0
LINE
8
BLACK
6
CONTINUOUS
10
3.5402828346456694
20
-2.6409427559055119
11
3.5401997244094487
21
-2.6409408661417322
0
LINE
8
BLACK
6
CONTINUOUS
10
3.5401997244094487
20
-2.6409408661417322
11
3.5401244094488189
21
-2.6409764173228347
0
LINE
8
BLACK
6
CONTINUOUS
10
3.5401244094488189
20
-2.6409764173228347
11
3.5234629133858268
21
-2.6430992519685037
0
LINE
8
BLACK
6
CONTINUOUS
10
3.5234629133858268
20
-2.6430992519685037
11
3.4903502755905511
21
-2.6487560629921258
0
LINE
8
BLACK
6
CONTINUOUS
10
3.4903502755905511
20
-2.6487560629921258
11
3.4575078346456691
21
-2.655814527559055
0
LINE
8
BLACK
6
CONTINUOUS
10
3.4575078346456691
20
-2.655814527559055
11
3.4249949212598425
21
-2.6642618503937006
0
LINE
8
BLACK
6
CONTINUOUS
10
3.4249949212598425
20
-2.6642618503937006
11
3.3928702362204723
21
-2.6740828346456693
0
LINE
8
BLACK
6
CONTINUOUS
10
3.3928702362204723
20
-2.6740828346456693
11
3.3611918110236219
21
-2.6852597244094487
0
LINE
8
BLACK
6
CONTINUOUS
10
3.3611918110236219
20
-2.6852597244094487
11
3.3300167716535434
21
-2.6977723228346457
0
LINE
8
BLACK
6
CONTINUOUS
10
3.3300167716535434
20
-2.6977723228346457
11
3.299401496062992
21
-2.711598031496063
0
LINE
8
BLACK
6
CONTINUOUS
10
3.299401496062992
20
-2.711598031496063
11
3.2694011811023622
21
-2.7267119291338582
0
LINE
8
BLACK
6
CONTINUOUS
10
3.2694011811023622
20
-2.7267119291338582
11
3.2400700787401573
21
-2.7430866929133857
0
LINE
8
BLACK
6
CONTINUOUS
10
3.2400700787401573
20
-2.7430866929133857
11
3.2114611023622048
21
-2.7606927559055117
0
LINE
8
BLACK
6
CONTINUOUS
10
3.2114611023622048
20
-2.7606927559055117
11
3.183625905511811
21
-2.7794983464566929
0
LINE
8
BLACK
6
CONTINUOUS
10
3.183625905511811
20
-2.7794983464566929
11
3.1566148031496062
21
-2.7994694881889761
0
LINE
8
BLACK
6
CONTINUOUS
10
3.1566148031496062
20
-2.7994694881889761
11
3.1304764960629923
21
-2.8205701181102363
0
LINE
8
BLACK
6
CONTINUOUS
10
3.1304764960629923
20
-2.8205701181102363
11
3.1052582283464565
21
-2.8427621259842519
0
LINE
8
BLACK
6
CONTINUOUS
10
3.1052582283464565
20
-2.8427621259842519
11
3.0810055118110236
21
-2.8660054724409449
0
LINE
8
BLACK
6
CONTINUOUS
10
3.0810055118110236
20
-2.8660054724409449
11
3.0577621653543305
21
-2.8902581889763779
0
LINE
8
BLACK
6
CONTINUOUS
10
3.0577621653543305
20
-2.8902581889763779
11
3.0355701574803149
21
-2.9154764566929132
0
LINE
8
BLACK
6
CONTINUOUS
10
3.0355701574803149
20
-2.9154764566929132
11
3.0144695275590552
21
-2.9416147244094488
0
LINE
8
BLACK
6
CONTINUOUS
10
3.0144695275590552
20
-2.9416147244094488
11
2.9944983858267715
21
-2.9686258661417324
0
LINE
8
BLACK
6
CONTINUOUS
10
2.9944983858267715
20
-2.9686258661417324
11
2.9756927952755903
21
-2.996461023622047
0
LINE
8
BLACK
6
CONTINUOUS
10
2.9756927952755903
20
-2.996461023622047
11
2.9580867322834643
21
-3.0250699999999999
0
LINE
8
BLACK
6
CONTINUOUS
10
2.9580867322834643
20
-3.0250699999999999
11
2.9417119685039368
21
-3.0544011417322836
0
LINE
8
BLACK
6
CONTINUOUS
10
2.9417119685039368
20
-3.0544011417322836
11
2.9265980708661417
21
-3.0844014173228347
0
LINE
8
BLACK
6
CONTINUOUS
10
2.9265980708661417
20
-3.0844014173228347
11
2.9127723622047244
21
-3.1150166929133856
0
LINE
8
BLACK
6
CONTINUOUS
10
2.9127723622047244
20
-3.1150166929133856
11
2.9002597637795273
21
-3.1461917322834645
0
LINE
8
BLACK
6
CONTINUOUS
10
2.9002597637795273
20
-3.1461917322834645
11
2.8890828740157479
21
-3.1778701968503937
0
LINE
8
BLACK
6
CONTINUOUS
10
2.8890828740157479
20
-3.1778701968503937
11
2.8792618897637796
21
-3.2099948425196851
0
LINE
8
BLACK
6
CONTINUOUS
10
2.8792618897637796
20
-3.2099948425196851
11
2.8708145275590549
21
-3.2425077559055118
0
LINE
8
BLACK
6
CONTINUOUS
10
2.8708145275590549
20
-3.2425077559055118
11
2.8637560629921257
21
-3.2753501968503937
0
LINE
8
BLACK
6
CONTINUOUS
10
2.8637560629921257
20
-3.2753501968503937
11
2.858099251968504
21
-3.308462834645669
0
LINE
8
BLACK
6
CONTINUOUS
10
2.858099251968504
20
-3.308462834645669
11
2.8559764173228346
21
-3.3251243307086615
0
LINE
8
BLACK
6
CONTINUOUS
10
2.8559764173228346
20
-3.3251243307086615
11
2.8559407874015745
21
-3.3251998031496064
0
LINE
8
BLACK
6
CONTINUOUS
10
2.8559407874015745
20
-3.3251998031496064
11
2.8559426771653542
21
-3.3252827952755903
0
LINE
8
BLACK
6
CONTINUOUS
10
2.8559426771653542
20
-3.3252827952755903
11
2.8559426377952755
21
-3.3252827559055116
0
LINE
8
BLACK
6
CONTINUOUS
10
2.8559426377952755
20
-3.3252827559055116
11
2.8528590551181101
21
-3.3331997244094489
0
LINE
8
BLACK
6
CONTINUOUS
10
2.8528590551181101
20
-3.3331997244094489
11
2.8485541338582676
21
-3.3405246062992124
0
LINE
8
BLACK
6
CONTINUOUS
10
2.8485541338582676
20
-3.3405246062992124
11
2.8431377559055115
21
-3.3470705511811021
0
LINE
8
BLACK
6
CONTINUOUS
10
2.8431377559055115
20
-3.3470705511811021
11
2.836748149606299
21
-3.3526704724409448
0
LINE
8
BLACK
6
CONTINUOUS
10
2.836748149606299
20
-3.3526704724409448
11
2.8295483464566931
21
-3.3571814960629922
0
LINE
8
BLACK
6
CONTINUOUS
10
2.8295483464566931
20
-3.3571814960629922
11
2.821722086614173
21
-3.3604885039370078
0
LINE
8
BLACK
6
CONTINUOUS
10
2.821722086614173
20
-3.3604885039370078
11
2.8134690944881888
21
-3.3625070472440943
0
LINE
8
BLACK
6
CONTINUOUS
10
2.8134690944881888
20
-3.3625070472440943
11
2.8049999999999997
21
-3.3631856692913384
0
LINE
8
BLACK
6
CONTINUOUS
10
2.8049999999999997
20
-3.3631856692913384
11
2.7965308661417323
21
-3.3625070472440943
0
LINE
8
BLACK
6
CONTINUOUS
10
2.7965308661417323
20
-3.3625070472440943
11
2.7882778740157481
21
-3.3604884645669291
0
LINE
8
BLACK
6
CONTINUOUS
10
2.7882778740157481
20
-3.3604884645669291
11
2.7804516141732285
21
-3.3571814960629922
0
LINE
8
BLACK
6
CONTINUOUS
10
2.7804516141732285
20
-3.3571814960629922
11
2.7732518110236222
21
-3.3526704724409448
0
LINE
8
BLACK
6
CONTINUOUS
10
2.7732518110236222
20
-3.3526704724409448
11
2.7668622047244096
21
-3.3470705118110233
0
LINE
8
BLACK
6
CONTINUOUS
10
2.7668622047244096
20
-3.3470705118110233
11
2.7614458267716535
21
-3.3405245669291337
0
LINE
8
BLACK
6
CONTINUOUS
10
2.7614458267716535
20
-3.3405245669291337
11
2.7571409448818898
21
-3.3331996850393701
0
LINE
8
BLACK
6
CONTINUOUS
10
2.7571409448818898
20
-3.3331996850393701
11
2.7540573622047244
21
-3.3252827559055116
0
LINE
8
BLACK
6
CONTINUOUS
10
2.7540573622047244
20
-3.3252827559055116
11
2.7540573228346457
21
-3.3252827559055116
0
LINE
8
BLACK
6
CONTINUOUS
10
2.7540573228346457
20
-3.3252827559055116
11
2.7540618110236221
21
-3.325084212598425
0
LINE
8
BLACK
6
CONTINUOUS
10
2.7540618110236221
20
-3.325084212598425
11
2.7540220078740156
21
-3.3248894488188974
0
LINE
8
BLACK
6
CONTINUOUS
10
2.7540220078740156
20
-3.3248894488188974
11
2.7540220472440944
21
-3.3248894488188974
0
LINE
8
BLACK
6
CONTINUOUS
10
2.7540220472440944
20
-3.3248894488188974
11
2.758840118110236
21
-3.288851929133858
0
LINE
8
BLACK
6
CONTINUOUS
10
2.758840118110236
20
-3.288851929133858
11
2.7651233858267714
21
-3.2530407874015745
0
LINE
8
BLACK
6
CONTINUOUS
10
2.7651233858267714
20
-3.2530407874015745
11
2.7728614566929135
21
-3.217515590551181
0
LINE
8
BLACK
6
CONTINUOUS
10
2.7728614566929135
20
-3.217515590551181
11
2.7820414173228345
21
-3.1823353937007872
0
LINE
8
BLACK
6
CONTINUOUS
10
2.7820414173228345
20
-3.1823353937007872
11
2.7926479921259841
21
-3.1475587401574803
0
LINE
8
BLACK
6
CONTINUOUS
10
2.7926479921259841
20
-3.1475587401574803
11
2.8046636220472441
21
-3.1132433858267716
0
LINE
8
BLACK
6
CONTINUOUS
10
2.8046636220472441
20
-3.1132433858267716
11
2.8180682283464566
21
-3.0794464566929132
0
LINE
8
BLACK
6
CONTINUOUS
10
2.8180682283464566
20
-3.0794464566929132
11
2.8328396062992125
21
-3.0462241338582676
0
LINE
8
BLACK
6
CONTINUOUS
10
2.8328396062992125
20
-3.0462241338582676
11
2.8489531496062992
21
-3.0136316141732284
0
LINE
8
BLACK
6
CONTINUOUS
10
2.8489531496062992
20
-3.0136316141732284
11
2.8663820472440946
21
-2.981723149606299
0
LINE
8
BLACK
6
CONTINUOUS
10
2.8663820472440946
20
-2.981723149606299
11
2.8850973622047245
21
-2.950551811023622
0
LINE
8
BLACK
6
CONTINUOUS
10
2.8850973622047245
20
-2.950551811023622
11
2.9050679527559056
21
-2.9201693700787401
0
LINE
8
BLACK
6
CONTINUOUS
10
2.9050679527559056
20
-2.9201693700787401
11
2.9262606299212597
21
-2.8906263779527559
0
LINE
8
BLACK
6
CONTINUOUS
10
2.9262606299212597
20
-2.8906263779527559
11
2.948640118110236
21
-2.8619719685039371
0
LINE
8
BLACK
6
CONTINUOUS
10
2.948640118110236
20
-2.8619719685039371
11
2.9721692125984251
21
-2.8342537795275589
0
LINE
8
BLACK
6
CONTINUOUS
10
2.9721692125984251
20
-2.8342537795275589
11
2.9968088188976378
21
-2.807517874015748
0
LINE
8
BLACK
6
CONTINUOUS
10
2.9968088188976378
20
-2.807517874015748
11
3.0225179527559054
21
-2.7818087795275588
0
LINE
8
BLACK
6
CONTINUOUS
10
3.0225179527559054
20
-2.7818087795275588
11
3.0492538188976379
21
-2.7571691732283465
0
LINE
8
BLACK
6
CONTINUOUS
10
3.0492538188976379
20
-2.7571691732283465
11
3.0769720078740157
21
-2.7336400787401574
0
LINE
8
BLACK
6
CONTINUOUS
10
3.0769720078740157
20
-2.7336400787401574
11
3.1056264173228345
21
-2.7112605905511811
0
LINE
8
BLACK
6
CONTINUOUS
10
3.1056264173228345
20
-2.7112605905511811
11
3.1351694094488187
21
-2.6900679133858265
0
LINE
8
BLACK
6
CONTINUOUS
10
3.1351694094488187
20
-2.6900679133858265
11
3.1655518503937006
21
-2.6700973228346454
0
LINE
8
BLACK
6
CONTINUOUS
10
3.1655518503937006
20
-2.6700973228346454
11
3.1967232283464568
21
-2.6513820078740156
0
LINE
8
BLACK
6
CONTINUOUS
10
3.1967232283464568
20
-2.6513820078740156
11
3.2286316929133858
21
-2.6339531102362206
0
LINE
8
BLACK
6
CONTINUOUS
10
3.2286316929133858
20
-2.6339531102362206
11
3.261224212598425
21
-2.6178395669291339
0
LINE
8
BLACK
6
CONTINUOUS
10
3.261224212598425
20
-2.6178395669291339
11
3.294446535433071
21
-2.6030682283464568
0
LINE
8
BLACK
6
CONTINUOUS
10
3.294446535433071
20
-2.6030682283464568
11
3.328243464566929
21
-2.5896635826771655
0
LINE
8
BLACK
6
CONTINUOUS
10
3.328243464566929
20
-2.5896635826771655
11
3.3625588188976376
21
-2.5776479921259843
0
LINE
8
BLACK
6
CONTINUOUS
10
3.3625588188976376
20
-2.5776479921259843
11
3.397335472440945
21
-2.5670413779527559
0
LINE
8
BLACK
6
CONTINUOUS
10
3.397335472440945
20
-2.5670413779527559
11
3.4325156692913383
21
-2.5578614173228345
0
LINE
8
BLACK
6
CONTINUOUS
10
3.4325156692913383
20
-2.5578614173228345
11
3.4680408661417323
21
-2.5501233858267716
0
LINE
8
BLACK
6
CONTINUOUS
10
3.4680408661417323
20
-2.5501233858267716
11
3.5038520078740159
21
-2.5438400787401574
0
LINE
8
BLACK
6
CONTINUOUS
10
3.5038520078740159
20
-2.5438400787401574
11
3.5398895275590552
21
-2.5390220472440945
0
LINE
8
BLACK
6
CONTINUOUS
10
3.5398895275590552
20
-2.5390220472440945
11
3.5398895275590552
21
-2.5390220078740158
0
LINE
8
BLACK
6
CONTINUOUS
10
3.5398895275590552
20
-2.5390220078740158
11
3.5400841338582678
21
-2.5390617716535431
0
LINE
8
BLACK
6
CONTINUOUS
10
3.5220825196850392
20
-2.5430149606299213
11
3.4862225984251967
21
-2.5485556692913387
0
LINE
8
BLACK
6
CONTINUOUS
10
3.4862225984251967
20
-2.5485556692913387
11
3.4506183858267714
21
-2.5555537795275591
0
LINE
8
BLACK
6
CONTINUOUS
10
3.4506183858267714
20
-2.5555537795275591
11
3.4153290551181104
21
-2.5639976377952753
0
LINE
8
BLACK
6
CONTINUOUS
10
3.4153290551181104
20
-2.5639976377952753
11
3.3804133070866142
21
-2.573873188976378
0
LINE
8
BLACK
6
CONTINUOUS
10
3.3804133070866142
20
-2.573873188976378
11
3.3459292519685038
21
-2.5851639763779528
0
LINE
8
BLACK
6
CONTINUOUS
10
3.3459292519685038
20
-2.5851639763779528
11
3.3119341732283463
21
-2.5978513385826769
0
LINE
8
BLACK
6
CONTINUOUS
10
3.3119341732283463
20
-2.5978513385826769
11
3.2784846062992123
21
-2.6119140551181101
0
LINE
8
BLACK
6
CONTINUOUS
10
3.2784846062992123
20
-2.6119140551181101
11
3.2456361417322834
21
-2.6273288188976376
0
LINE
8
BLACK
6
CONTINUOUS
10
3.2456361417322834
20
-2.6273288188976376
11
3.213443503937008
21
-2.6440700000000001
0
LINE
8
BLACK
6
CONTINUOUS
10
3.213443503937008
20
-2.6440700000000001
11
3.1819601181102359
21
-2.6621097244094489
0
LINE
8
BLACK
6
CONTINUOUS
10
3.1819601181102359
20
-2.6621097244094489
11
3.1512383858267716
21
-2.6814179921259842
0
LINE
8
BLACK
6
CONTINUOUS
10
3.1512383858267716
20
-2.6814179921259842
11
3.1213293700787399
21
-2.7019627165354332
0
LINE
8
BLACK
6
CONTINUOUS
10
3.1213293700787399
20
-2.7019627165354332
11
3.0922828346456694
21
-2.7237097244094488
0
LINE
8
BLACK
6
CONTINUOUS
10
3.0922828346456694
20
-2.7237097244094488
11
3.0641470472440946
21
-2.7466228740157481
0
LINE
8
BLACK
6
CONTINUOUS
10
3.0641470472440946
20
-2.7466228740157481
11
3.0369688188976376
21
-2.7706640551181101
0
LINE
8
BLACK
6
CONTINUOUS
10
3.0369688188976376
20
-2.7706640551181101
11
3.0107933464566927
21
-2.7957932677165354
0
LINE
8
BLACK
6
CONTINUOUS
10
3.0107933464566927
20
-2.7957932677165354
11
2.9856640944881887
21
-2.821968779527559
0
LINE
8
BLACK
6
CONTINUOUS
10
2.9856640944881887
20
-2.821968779527559
11
2.9616229133858267
21
-2.8491470078740155
0
LINE
8
BLACK
6
CONTINUOUS
10
2.9616229133858267
20
-2.8491470078740155
11
2.9387097637795274
21
-2.8772827952755904
0
LINE
8
BLACK
6
CONTINUOUS
10
2.9387097637795274
20
-2.8772827952755904
11
2.9169627559055118
21
-2.9063293307086613
0
LINE
8
BLACK
6
CONTINUOUS
10
2.9169627559055118
20
-2.9063293307086613
11
2.8964180314960628
21
-2.9362383070866143
0
LINE
8
BLACK
6
CONTINUOUS
10
2.8964180314960628
20
-2.9362383070866143
11
2.8771097637795275
21
-2.9669600393700786
0
LINE
8
BLACK
6
CONTINUOUS
10
2.8771097637795275
20
-2.9669600393700786
11
2.8590700393700788
21
-2.9984434251968501
0
LINE
8
BLACK
6
CONTINUOUS
10
2.8590700393700788
20
-2.9984434251968501
11
2.8423288582677166
21
-3.0306361023622048
0
LINE
8
BLACK
6
CONTINUOUS
10
2.8423288582677166
20
-3.0306361023622048
11
2.8269140944881888
21
-3.063484527559055
0
LINE
8
BLACK
6
CONTINUOUS
10
2.8269140944881888
20
-3.063484527559055
11
2.8128513385826772
21
-3.0969340944881889
0
LINE
8
BLACK
6
CONTINUOUS
10
2.8128513385826772
20
-3.0969340944881889
11
2.8001640157480314
21
-3.1309291732283464
0
LINE
8
BLACK
6
CONTINUOUS
10
2.8001640157480314
20
-3.1309291732283464
11
2.7888731889763778
21
-3.1654132677165352
0
LINE
8
BLACK
6
CONTINUOUS
10
2.7888731889763778
20
-3.1654132677165352
11
2.7789976377952756
21
-3.2003289763779526
0
LINE
8
BLACK
6
CONTINUOUS
10
2.7789976377952756
20
-3.2003289763779526
11
2.7705538188976377
21
-3.235618307086614
0
LINE
8
BLACK
6
CONTINUOUS
10
2.7705538188976377
20
-3.235618307086614
11
2.7635557086614173
21
-3.2712225196850393
0
LINE
8
BLACK
6
CONTINUOUS
10
2.7635557086614173
20
-3.2712225196850393
11
2.7580149999999999
21
-3.3070824409448818
0
LINE
8
BLACK
6
CONTINUOUS
10
2.7580149999999999
20
-3.3070824409448818
11
2.7560007086614173
21
-3.3249103937007871
0
LINE
8
BLACK
6
CONTINUOUS
10
2.7560007086614173
20
-3.3249103937007871
11
2.757119842519685
21
-3.328648897637795
0
LINE
8
BLACK
6
CONTINUOUS
10
2.757119842519685
20
-3.328648897637795
11
2.7607003543307087
21
-3.3360352362204724
0
LINE
8
BLACK
6
CONTINUOUS
10
2.7607003543307087
20
-3.3360352362204724
11
2.765411377952756
21
-3.3427571653543304
0
LINE
8
BLACK
6
CONTINUOUS
10
2.765411377952756
20
-3.3427571653543304
11
2.7711326377952754
21
-3.3486431889763777
0
LINE
8
BLACK
6
CONTINUOUS
10
2.7711326377952754
20
-3.3486431889763777
11
2.7777181889763778
21
-3.3535430314960628
0
LINE
8
BLACK
6
CONTINUOUS
10
2.7777181889763778
20
-3.3535430314960628
11
2.7849999606299214
21
-3.3573317322834644
0
LINE
8
BLACK
6
CONTINUOUS
10
2.7849999606299214
20
-3.3573317322834644
11
2.7927920866141731
21
-3.3599125196850395
0
LINE
8
BLACK
6
CONTINUOUS
10
2.7927920866141731
20
-3.3599125196850395
11
2.8008957874015747
21
-3.3612196062992123
0
LINE
8
BLACK
6
CONTINUOUS
10
2.8008957874015747
20
-3.3612196062992123
11
2.8091041732283464
21
-3.3612196062992123
0
LINE
8
BLACK
6
CONTINUOUS
10
2.8091041732283464
20
-3.3612196062992123
11
2.817207874015748
21
-3.3599125196850395
0
LINE
8
BLACK
6
CONTINUOUS
10
2.817207874015748
20
-3.3599125196850395
11
2.8249999999999997
21
-3.3573317322834644
0
LINE
8
BLACK
6
CONTINUOUS
10
2.8249999999999997
20
-3.3573317322834644
11
2.8322817716535433
21
-3.3535430708661416
0
LINE
8
BLACK
6
CONTINUOUS
10
2.8322817716535433
20
-3.3535430708661416
11
2.8388673228346457
21
-3.3486431889763777
0
LINE
8
BLACK
6
CONTINUOUS
10
2.8388673228346457
20
-3.3486431889763777
11
2.8445886220472438
21
-3.3427572047244092
0
LINE
8
BLACK
6
CONTINUOUS
10
2.8445886220472438
20
-3.3427572047244092
11
2.8492996456692912
21
-3.3360352755905511
0
LINE
8
BLACK
6
CONTINUOUS
10
2.8492996456692912
20
-3.3360352755905511
11
2.8528801574803149
21
-3.3286489370078738
0
LINE
8
BLACK
6
CONTINUOUS
10
2.8528801574803149
20
-3.3286489370078738
11
2.8540375196850394
21
-3.3247825984251969
0
LINE
8
BLACK
6
CONTINUOUS
10
2.8540375196850394
20
-3.3247825984251969
11
2.8589869291338581
21
-3.2915749606299212
0
LINE
8
BLACK
6
CONTINUOUS
10
2.8589869291338581
20
-3.2915749606299212
11
2.8653604330708662
21
-3.2585152755905513
0
LINE
8
BLACK
6
CONTINUOUS
10
2.8653604330708662
20
-3.2585152755905513
11
2.8731326377952757
21
-3.2257562204724408
0
LINE
8
BLACK
6
CONTINUOUS
10
2.8731326377952757
20
-3.2257562204724408
11
2.882289566929134
21
-3.1933569291338584
0
LINE
8
BLACK
6
CONTINUOUS
10
2.882289566929134
20
-3.1933569291338584
11
2.8928146456692914
21
-3.1613758661417322
0
LINE
8
BLACK
6
CONTINUOUS
10
2.8928146456692914
20
-3.1613758661417322
11
2.9046888976377954
21
-3.129870866141732
0
LINE
8
BLACK
6
CONTINUOUS
10
2.9046888976377954
20
-3.129870866141732
11
2.9178908661417324
21
-3.0988987401574803
0
LINE
8
BLACK
6
CONTINUOUS
10
2.9178908661417324
20
-3.0988987401574803
11
2.9323967322834643
21
-3.0685154330708659
0
LINE
8
BLACK
6
CONTINUOUS
10
2.9323967322834643
20
-3.0685154330708659
11
2.9481802755905511
21
-3.0387758661417323
0
LINE
8
BLACK
6
CONTINUOUS
10
2.9481802755905511
20
-3.0387758661417323
11
2.9652129921259842
21
-3.0097336220472442
0
LINE
8
BLACK
6
CONTINUOUS
10
2.9652129921259842
20
-3.0097336220472442
11
2.9834641732283464
21
-2.9814412598425197
0
LINE
8
BLACK
6
CONTINUOUS
10
2.9834641732283464
20
-2.9814412598425197
11
3.0029008267716533
21
-2.9539498031496061
0
LINE
8
BLACK
6
CONTINUOUS
10
3.0029008267716533
20
-2.9539498031496061
11
3.023487874015748
21
-2.9273088976377952
0
LINE
8
BLACK
6
CONTINUOUS
10
3.023487874015748
20
-2.9273088976377952
11
3.0451881102362206
21
-2.9015666535433069
0
LINE
8
BLACK
6
CONTINUOUS
10
3.0451881102362206
20
-2.9015666535433069
11
3.0679624015748033
21
-2.876769527559055
0
LINE
8
BLACK
6
CONTINUOUS
10
3.0679624015748033
20
-2.876769527559055
11
3.0917696062992124
21
-2.8529623622047242
0
LINE
8
BLACK
6
CONTINUOUS
10
3.0917696062992124
20
-2.8529623622047242
11
3.1165666929133859
21
-2.8301880708661415
0
LINE
8
BLACK
6
CONTINUOUS
10
3.1165666929133859
20
-2.8301880708661415
11
3.1423089370078738
21
-2.8084878346456694
0
LINE
8
BLACK
6
CONTINUOUS
10
3.1423089370078738
20
-2.8084878346456694
11
3.1689498425196851
21
-2.7879007874015747
0
LINE
8
BLACK
6
CONTINUOUS
10
3.1689498425196851
20
-2.7879007874015747
11
3.1964413385826771
21
-2.7684641338582678
0
LINE
8
BLACK
6
CONTINUOUS
10
3.1964413385826771
20
-2.7684641338582678
11
3.2247337007874015
21
-2.7502129527559056
0
LINE
8
BLACK
6
CONTINUOUS
10
3.2247337007874015
20
-2.7502129527559056
11
3.253775905511811
21
-2.7331802362204725
0
LINE
8
BLACK
6
CONTINUOUS
10
3.253775905511811
20
-2.7331802362204725
11
3.2835155118110237
21
-2.7173966929133857
0
LINE
8
BLACK
6
CONTINUOUS
10
3.2835155118110237
20
-2.7173966929133857
11
3.3138988188976377
21
-2.7028908267716534
0
LINE
8
BLACK
6
CONTINUOUS
10
3.3138988188976377
20
-2.7028908267716534
11
3.3448709448818899
21
-2.6896888582677163
0
LINE
8
BLACK
6
CONTINUOUS
10
3.3448709448818899
20
-2.6896888582677163
11
3.3763759448818895
21
-2.6778146062992128
0
LINE
8
BLACK
6
CONTINUOUS
10
3.3763759448818895
20
-2.6778146062992128
11
3.408356968503937
21
-2.6672895275590549
0
LINE
8
BLACK
6
CONTINUOUS
10
3.408356968503937
20
-2.6672895275590549
11
3.4407562992125982
21
-2.6581325984251967
0
LINE
8
BLACK
6
CONTINUOUS
10
3.4407562992125982
20
-2.6581325984251967
11
3.4735153543307087
21
-2.6503603937007871
0
LINE
8
BLACK
6
CONTINUOUS
10
3.4735153543307087
20
-2.6503603937007871
11
3.5065750393700785
21
-2.6439869291338582
0
LINE
8
BLACK
6
CONTINUOUS
10
3.5065750393700785
20
-2.6439869291338582
11
3.539782874015748
21
-2.6390375196850395
0
LINE
8
BLACK
6
CONTINUOUS
10
3.539782874015748
20
-2.6390375196850395
11
3.5436489763779528
21
-2.6378802362204725
0
LINE
8
BLACK
6
CONTINUOUS
10
3.5436489763779528
20
-2.6378802362204725
11
3.5510353149606297
21
-2.6342996850393701
0
LINE
8
BLACK
6
CONTINUOUS
10
3.5510353149606297
20
-2.6342996850393701
11
3.5577572440944882
21
-2.6295886614173227
0
LINE
8
BLACK
6
CONTINUOUS
10
3.5577572440944882
20
-2.6295886614173227
11
3.5636432677165355
21
-2.6238674015748029
0
LINE
8
BLACK
6
CONTINUOUS
10
3.5636432677165355
20
-2.6238674015748029
11
3.5685431102362202
21
-2.6172818503937005
0
LINE
8
BLACK
6
CONTINUOUS
10
3.5685431102362202
20
-2.6172818503937005
11
3.5723317716535434
21
-2.6100000787401574
0
LINE
8
BLACK
6
CONTINUOUS
10
3.5723317716535434
20
-2.6100000787401574
11
3.5749125984251968
21
-2.6022079133858269
0
LINE
8
BLACK
6
CONTINUOUS
10
3.5749125984251968
20
-2.6022079133858269
11
3.5762196850393702
21
-2.594104251968504
0
LINE
8
BLACK
6
CONTINUOUS
10
3.5762196850393702
20
-2.594104251968504
11
3.5762196850393702
21
-2.5858958267716536
0
LINE
8
BLACK
6
CONTINUOUS
10
3.5762196850393702
20
-2.5858958267716536
11
3.5749125984251968
21
-2.5777921653543308
0
LINE
8
BLACK
6
CONTINUOUS
10
3.5749125984251968
20
-2.5777921653543308
11
3.5723318110236222
21
-2.5699999999999998
0
LINE
8
BLACK
6
CONTINUOUS
10
3.5723318110236222
20
-2.5699999999999998
11
3.5685431496062989
21
-2.5627182283464567
0
LINE
8
BLACK
6
CONTINUOUS
10
3.5685431496062989
20
-2.5627182283464567
11
3.5636433070866143
21
-2.5561326771653543
0
LINE
8
BLACK
6
CONTINUOUS
10
3.5636433070866143
20
-2.5561326771653543
11
3.5577573228346457
21
-2.5504113779527557
0
LINE
8
BLACK
6
CONTINUOUS
10
3.5577573228346457
20
-2.5504113779527557
11
3.5510353937007872
21
-2.5457003543307084
0
LINE
8
BLACK
6
CONTINUOUS
10
3.5510353937007872
20
-2.5457003543307084
11
3.5436490551181103
21
-2.5421198031496064
0
LINE
8
BLACK
6
CONTINUOUS
10
3.5436490551181103
20
-2.5421198031496064
11
3.5399105511811024
21
-2.54100062992126
0
LINE
8
BLACK
6
CONTINUOUS
10
3.5399105511811024
20
-2.54100062992126
11
3.5220825196850392
21
-2.5430149606299213
0
LINE
8
BLACK
6
CONTINUOUS
10
2.0666137401574804
20
-2.5217848425196849
11
2.0780287795275592
21
-2.524055433070866
0
LINE
8
BLACK
6
CONTINUOUS
10
2.0780287795275592
20
-2.524055433070866
11
2.0890498031496061
21
-2.5277965354330707
0
LINE
8
BLACK
6
CONTINUOUS
10
2.0890498031496061
20
-2.5277965354330707
11
2.0994881889763781
21
-2.5329442125984252
0
LINE
8
BLACK
6
CONTINUOUS
10
2.0994881889763781
20
-2.5329442125984252
11
2.1091653937007875
21
-2.539410275590551
0
LINE
8
BLACK
6
CONTINUOUS
10
2.1091653937007875
20
-2.539410275590551
11
2.1179157874015746
21
-2.547084212598425
0
LINE
8
BLACK
6
CONTINUOUS
10
2.1179157874015746
20
-2.547084212598425
11
2.1255897244094486
21
-2.5558346062992126
0
LINE
8
BLACK
6
CONTINUOUS
10
2.1255897244094486
20
-2.5558346062992126
11
2.1320557874015749
21
-2.5655118110236219
0
LINE
8
BLACK
6
CONTINUOUS
10
2.1320557874015749
20
-2.5655118110236219
11
2.1372034645669289
21
-2.5759501968503935
0
LINE
8
BLACK
6
CONTINUOUS
10
2.1372034645669289
20
-2.5759501968503935
11
2.1409445669291336
21
-2.5869712204724409
0
LINE
8
BLACK
6
CONTINUOUS
10
2.1409445669291336
20
-2.5869712204724409
11
2.1432151574803151
21
-2.5983862598425196
0
LINE
8
BLACK
6
CONTINUOUS
10
2.1432151574803151
20
-2.5983862598425196
11
2.1439763779527556
21
-2.6099999999999999
0
LINE
8
BLACK
6
CONTINUOUS
10
2.1439763779527556
20
-2.6099999999999999
11
2.1432151574803151
21
-2.6216137401574802
0
LINE
8
BLACK
6
CONTINUOUS
10
2.1432151574803151
20
-2.6216137401574802
11
2.1409445669291336
21
-2.6330287795275589
0
LINE
8
BLACK
6
CONTINUOUS
10
2.1409445669291336
20
-2.6330287795275589
11
2.1372034645669289
21
-2.6440498031496062
0
LINE
8
BLACK
6
CONTINUOUS
10
2.1372034645669289
20
-2.6440498031496062
11
2.1320557874015749
21
-2.6544881889763778
0
LINE
8
BLACK
6
CONTINUOUS
10
2.1320557874015749
20
-2.6544881889763778
11
2.1255897244094486
21
-2.6641653937007872
0
LINE
8
BLACK
6
CONTINUOUS
10
2.1255897244094486
20
-2.6641653937007872
11
2.1179157874015746
21
-2.6729157874015748
0
LINE
8
BLACK
6
CONTINUOUS
10
2.1179157874015746
20
-2.6729157874015748
11
2.1091653937007875
21
-2.6805897244094488
0
LINE
8
BLACK
6
CONTINUOUS
10
2.1091653937007875
20
-2.6805897244094488
11
2.0994881889763781
21
-2.6870557874015746
0
LINE
8
BLACK
6
CONTINUOUS
10
2.0994881889763781
20
-2.6870557874015746
11
2.0890498031496061
21
-2.692203464566929
0
LINE
8
BLACK
6
CONTINUOUS
10
2.0890498031496061
20
-2.692203464566929
11
2.0780287795275592
21
-2.6959445669291338
0
LINE
8
BLACK
6
CONTINUOUS
10
2.0780287795275592
20
-2.6959445669291338
11
2.0666137401574804
21
-2.6982151574803148
0
LINE
8
BLACK
6
CONTINUOUS
10
2.0666137401574804
20
-2.6982151574803148
11
2.0550000000000002
21
-2.6989763779527558
0
LINE
8
BLACK
6
CONTINUOUS
10
2.0550000000000002
20
-2.6989763779527558
11
2.0433862598425194
21
-2.6982151574803148
0
LINE
8
BLACK
6
CONTINUOUS
10
2.0433862598425194
20
-2.6982151574803148
11
2.0319712204724407
21
-2.6959445669291338
0
LINE
8
BLACK
6
CONTINUOUS
10
2.0319712204724407
20
-2.6959445669291338
11
2.0209501968503938
21
-2.692203464566929
0
LINE
8
BLACK
6
CONTINUOUS
10
2.0209501968503938
20
-2.692203464566929
11
2.0105118110236222
21
-2.6870557874015746
0
LINE
8
BLACK
6
CONTINUOUS
10
2.0105118110236222
20
-2.6870557874015746
11
2.0008346062992124
21
-2.6805897244094488
0
LINE
8
BLACK
6
CONTINUOUS
10
2.0008346062992124
20
-2.6805897244094488
11
1.9920842125984251
21
-2.6729157874015748
0
LINE
8
BLACK
6
CONTINUOUS
10
1.9920842125984251
20
-2.6729157874015748
11
1.9844102755905511
21
-2.6641653937007872
0
LINE
8
BLACK
6
CONTINUOUS
10
1.9844102755905511
20
-2.6641653937007872
11
1.9779442125984252
21
-2.6544881889763778
0
LINE
8
BLACK
6
CONTINUOUS
10
1.9779442125984252
20
-2.6544881889763778
11
1.9727965354330708
21
-2.6440498031496062
0
LINE
8
BLACK
6
CONTINUOUS
10
1.9727965354330708
20
-2.6440498031496062
11
1.9690554330708661
21
-2.6330287795275589
0
LINE
8
BLACK
6
CONTINUOUS
10
1.9690554330708661
20
-2.6330287795275589
11
1.966784842519685
21
-2.6216137401574802
0
LINE
8
BLACK
6
CONTINUOUS
10
1.966784842519685
20
-2.6216137401574802
11
1.966023622047244
21
-2.6099999999999999
0
LINE
8
BLACK
6
CONTINUOUS
10
1.966023622047244
20
-2.6099999999999999
11
1.966784842519685
21
-2.5983862598425196
0
LINE
8
BLACK
6
CONTINUOUS
10
1.966784842519685
20
-2.5983862598425196
11
1.9690554330708661
21
-2.5869712204724409
0
LINE
8
BLACK
6
CONTINUOUS
10
1.9690554330708661
20
-2.5869712204724409
11
1.9727965354330708
21
-2.5759501968503935
0
LINE
8
BLACK
6
CONTINUOUS
10
1.9727965354330708
20
-2.5759501968503935
11
1.9779442125984252
21
-2.5655118110236219
0
LINE
8
BLACK
6
CONTINUOUS
10
1.9779442125984252
20
-2.5655118110236219
11
1.9844102755905511
21
-2.5558346062992126
0
LINE
8
BLACK
6
CONTINUOUS
10
1.9844102755905511
20
-2.5558346062992126
11
1.9920842125984251
21
-2.547084212598425
0
LINE
8
BLACK
6
CONTINUOUS
10
1.9920842125984251
20
-2.547084212598425
11
2.0008346062992124
21
-2.539410275590551
0
LINE
8
BLACK
6
CONTINUOUS
10
2.0008346062992124
20
-2.539410275590551
11
2.0105118110236222
21
-2.5329442125984252
0
LINE
8
BLACK
6
CONTINUOUS
10
2.0105118110236222
20
-2.5329442125984252
11
2.0209501968503938
21
-2.5277965354330707
0
LINE
8
BLACK
6
CONTINUOUS
10
2.0209501968503938
20
-2.5277965354330707
11
2.0319712204724407
21
-2.524055433070866
0
LINE
8
BLACK
6
CONTINUOUS
10
2.0319712204724407
20
-2.524055433070866
11
2.0433862598425194
21
-2.5217848425196849
0
LINE
8
BLACK
6
CONTINUOUS
10
2.0433862598425194
20
-2.5217848425196849
11
2.0550000000000002
21
-2.521023622047244
0
LINE
8
BLACK
6
CONTINUOUS
10
2.0550000000000002
20
-2.521023622047244
11
2.0666137401574804
21
-2.5217848425196849
0
LINE
8
BLACK
6
CONTINUOUS
10
1.9713377559055119
20
-2.6214990944881889
11
1.9736827559055117
21
-2.6327840157480313
0
LINE
8
BLACK
6
CONTINUOUS
10
1.9736827559055117
20
-2.6327840157480313
11
1.9775425984251969
21
-2.6436444881889765
0
LINE
8
BLACK
6
CONTINUOUS
10
1.9775425984251969
20
-2.6436444881889765
11
1.9828452755905512
21
-2.6538782677165353
0
LINE
8
BLACK
6
CONTINUOUS
10
1.9828452755905512
20
-2.6538782677165353
11
1.9894920866141732
21
-2.6632946456692914
0
LINE
8
BLACK
6
CONTINUOUS
10
1.9894920866141732
20
-2.6632946456692914
11
1.9973592125984252
21
-2.6717182283464567
0
LINE
8
BLACK
6
CONTINUOUS
10
1.9973592125984252
20
-2.6717182283464567
11
2.0063000393700787
21
-2.678992125984252
0
LINE
8
BLACK
6
CONTINUOUS
10
2.0063000393700787
20
-2.678992125984252
11
2.0161480314960629
21
-2.684980866141732
0
LINE
8
BLACK
6
CONTINUOUS
10
2.0161480314960629
20
-2.684980866141732
11
2.0267198031496063
21
-2.6895728346456691
0
LINE
8
BLACK
6
CONTINUOUS
10
2.0267198031496063
20
-2.6895728346456691
11
2.0378183858267716
21
-2.6926824803149607
0
LINE
8
BLACK
6
CONTINUOUS
10
2.0378183858267716
20
-2.6926824803149607
11
2.0492370078740159
21
-2.694251968503937
0
LINE
8
BLACK
6
CONTINUOUS
10
2.0492370078740159
20
-2.694251968503937
11
2.060762992125984
21
-2.694251968503937
0
LINE
8
BLACK
6
CONTINUOUS
10
2.060762992125984
20
-2.694251968503937
11
2.0721816141732283
21
-2.6926824803149607
0
LINE
8
BLACK
6
CONTINUOUS
10
2.0721816141732283
20
-2.6926824803149607
11
2.0832801968503936
21
-2.6895728346456691
0
LINE
8
BLACK
6
CONTINUOUS
10
2.0832801968503936
20
-2.6895728346456691
11
2.093851968503937
21
-2.684980866141732
0
LINE
8
BLACK
6
CONTINUOUS
10
2.093851968503937
20
-2.684980866141732
11
2.1036999606299212
21
-2.678992125984252
0
LINE
8
BLACK
6
CONTINUOUS
10
2.1036999606299212
20
-2.678992125984252
11
2.1126407874015749
21
-2.6717182283464567
0
LINE
8
BLACK
6
CONTINUOUS
10
2.1126407874015749
20
-2.6717182283464567
11
2.1205079133858269
21
-2.6632946456692914
0
LINE
8
BLACK
6
CONTINUOUS
10
2.1205079133858269
20
-2.6632946456692914
11
2.1271547244094489
21
-2.6538782677165353
0
LINE
8
BLACK
6
CONTINUOUS
10
2.1271547244094489
20
-2.6538782677165353
11
2.1324574015748032
21
-2.6436444881889765
0
LINE
8
BLACK
6
CONTINUOUS
10
2.1324574015748032
20
-2.6436444881889765
11
2.1363172440944882
21
-2.6327840157480313
0
LINE
8
BLACK
6
CONTINUOUS
10
2.1363172440944882
20
-2.6327840157480313
11
2.1386622440944882
21
-2.6214990944881889
0
LINE
8
BLACK
6
CONTINUOUS
10
2.1386622440944882
20
-2.6214990944881889
11
2.1394488188976379
21
-2.6099999999999999
0
LINE
8
BLACK
6
CONTINUOUS
10
2.1394488188976379
20
-2.6099999999999999
11
2.1386622440944882
21
-2.5985009055118109
0
LINE
8
BLACK
6
CONTINUOUS
10
2.1386622440944882
20
-2.5985009055118109
11
2.1363172440944882
21
-2.5872159842519684
0
LINE
8
BLACK
6
CONTINUOUS
10
2.1363172440944882
20
-2.5872159842519684
11
2.1324574015748032
21
-2.5763555118110237
0
LINE
8
BLACK
6
CONTINUOUS
10
2.1324574015748032
20
-2.5763555118110237
11
2.1271547244094489
21
-2.5661217322834644
0
LINE
8
BLACK
6
CONTINUOUS
10
2.1271547244094489
20
-2.5661217322834644
11
2.1205079133858269
21
-2.5567053543307088
0
LINE
8
BLACK
6
CONTINUOUS
10
2.1205079133858269
20
-2.5567053543307088
11
2.1126407874015749
21
-2.5482817716535431
0
LINE
8
BLACK
6
CONTINUOUS
10
2.1126407874015749
20
-2.5482817716535431
11
2.1036999606299212
21
-2.5410078740157478
0
LINE
8
BLACK
6
CONTINUOUS
10
2.1036999606299212
20
-2.5410078740157478
11
2.093851968503937
21
-2.5350191338582677
0
LINE
8
BLACK
6
CONTINUOUS
10
2.093851968503937
20
-2.5350191338582677
11
2.0832801968503936
21
-2.5304271653543307
0
LINE
8
BLACK
6
CONTINUOUS
10
2.0832801968503936
20
-2.5304271653543307
11
2.0721816141732283
21
-2.5273175196850395
0
LINE
8
BLACK
6
CONTINUOUS
10
2.0721816141732283
20
-2.5273175196850395
11
2.060762992125984
21
-2.5257480314960628
0
LINE
8
BLACK
6
CONTINUOUS
10
2.060762992125984
20
-2.5257480314960628
11
2.0492370078740159
21
-2.5257480314960628
0
LINE
8
BLACK
6
CONTINUOUS
10
2.0492370078740159
20
-2.5257480314960628
11
2.0378183858267716
21
-2.5273175196850395
0
LINE
8
BLACK
6
CONTINUOUS
10
2.0378183858267716
20
-2.5273175196850395
11
2.0267198031496063
21
-2.5304271653543307
0
LINE
8
BLACK
6
CONTINUOUS
10
2.0267198031496063
20
-2.5304271653543307
11
2.0161480314960629
21
-2.5350191338582677
0
LINE
8
BLACK
6
CONTINUOUS
10
2.0161480314960629
20
-2.5350191338582677
11
2.0063000393700787
21
-2.5410078740157478
0
LINE
8
BLACK
6
CONTINUOUS
10
2.0063000393700787
20
-2.5410078740157478
11
1.9973592125984252
21
-2.5482817716535431
0
LINE
8
BLACK
6
CONTINUOUS
10
1.9973592125984252
20
-2.5482817716535431
11
1.9894920866141732
21
-2.5567053543307088
0
LINE
8
BLACK
6
CONTINUOUS
10
1.9894920866141732
20
-2.5567053543307088
11
1.9828452755905512
21
-2.5661217322834644
0
LINE
8
BLACK
6
CONTINUOUS
10
1.9828452755905512
20
-2.5661217322834644
11
1.9775425984251969
21
-2.5763555118110237
0
LINE
8
BLACK
6
CONTINUOUS
10
1.9775425984251969
20
-2.5763555118110237
11
1.9736827559055117
21
-2.5872159842519684
0
LINE
8
BLACK
6
CONTINUOUS
10
1.9736827559055117
20
-2.5872159842519684
11
1.9713377559055119
21
-2.5985009055118109
0
LINE
8
BLACK
6
CONTINUOUS
10
1.9713377559055119
20
-2.5985009055118109
11
1.9705511811023622
21
-2.6099999999999999
0
LINE
8
BLACK
6
CONTINUOUS
10
1.9705511811023622
20
-2.6099999999999999
11
1.9713377559055119
21
-2.6214990944881889
0
LINE
8
BLACK
6
CONTINUOUS
10
4.4516137401574802
20
-2.1317848425196848
11
4.4630287795275594
21
-2.1340554330708663
0
LINE
8
BLACK
6
CONTINUOUS
10
4.4630287795275594
20
-2.1340554330708663
11
4.4740498031496063
21
-2.137796535433071
0
LINE
8
BLACK
6
CONTINUOUS
10
4.4740498031496063
20
-2.137796535433071
11
4.4844881889763775
21
-2.142944212598425
0
LINE
8
BLACK
6
CONTINUOUS
10
4.4844881889763775
20
-2.142944212598425
11
4.4941653937007873
21
-2.1494102755905513
0
LINE
8
BLACK
6
CONTINUOUS
10
4.4941653937007873
20
-2.1494102755905513
11
4.5029157874015748
21
-2.1570842125984253
0
LINE
8
BLACK
6
CONTINUOUS
10
4.5029157874015748
20
-2.1570842125984253
11
4.5105897244094484
21
-2.1658346062992124
0
LINE
8
BLACK
6
CONTINUOUS
10
4.5105897244094484
20
-2.1658346062992124
11
4.5170557874015751
21
-2.1755118110236218
0
LINE
8
BLACK
6
CONTINUOUS
10
4.5170557874015751
20
-2.1755118110236218
11
4.5222034645669291
21
-2.1859501968503938
0
LINE
8
BLACK
6
CONTINUOUS
10
4.5222034645669291
20
-2.1859501968503938
11
4.5259445669291338
21
-2.1969712204724408
0
LINE
8
BLACK
6
CONTINUOUS
10
4.5259445669291338
20
-2.1969712204724408
11
4.5282151574803144
21
-2.2083862598425195
0
LINE
8
BLACK
6
CONTINUOUS
10
4.5282151574803144
20
-2.2083862598425195
11
4.5289763779527554
21
-2.2199999999999998
0
LINE
8
BLACK
6
CONTINUOUS
10
4.5289763779527554
20
-2.2199999999999998
11
4.5282151574803144
21
-2.2316137401574805
0
LINE
8
BLACK
6
CONTINUOUS
10
4.5282151574803144
20
-2.2316137401574805
11
4.5259445669291338
21
-2.2430287795275592
0
LINE
8
BLACK
6
CONTINUOUS
10
4.5259445669291338
20
-2.2430287795275592
11
4.5222034645669291
21
-2.2540498031496061
0
LINE
8
BLACK
6
CONTINUOUS
10
4.5222034645669291
20
-2.2540498031496061
11
4.5170557874015751
21
-2.2644881889763777
0
LINE
8
BLACK
6
CONTINUOUS
10
4.5170557874015751
20
-2.2644881889763777
11
4.5105897244094484
21
-2.2741653937007875
0
LINE
8
BLACK
6
CONTINUOUS
10
4.5105897244094484
20
-2.2741653937007875
11
4.5029157874015748
21
-2.2829157874015746
0
LINE
8
BLACK
6
CONTINUOUS
10
4.5029157874015748
20
-2.2829157874015746
11
4.4941653937007873
21
-2.2905897244094486
0
LINE
8
BLACK
6
CONTINUOUS
10
4.4941653937007873
20
-2.2905897244094486
11
4.4844881889763775
21
-2.2970557874015749
0
LINE
8
BLACK
6
CONTINUOUS
10
4.4844881889763775
20
-2.2970557874015749
11
4.4740498031496063
21
-2.3022034645669289
0
LINE
8
BLACK
6
CONTINUOUS
10
4.4740498031496063
20
-2.3022034645669289
11
4.4630287795275594
21
-2.3059445669291336
0
LINE
8
BLACK
6
CONTINUOUS
10
4.4630287795275594
20
-2.3059445669291336
11
4.4516137401574802
21
-2.3082151574803147
0
LINE
8
BLACK
6
CONTINUOUS
10
4.4516137401574802
20
-2.3082151574803147
11
4.4399999999999995
21
-2.3089763779527557
0
LINE
8
BLACK
6
CONTINUOUS
10
4.4399999999999995
20
-2.3089763779527557
11
4.4283862598425197
21
-2.3082151574803147
0
LINE
8
BLACK
6
CONTINUOUS
10
4.4283862598425197
20
-2.3082151574803147
11
4.4169712204724405
21
-2.3059445669291336
0
LINE
8
BLACK
6
CONTINUOUS
10
4.4169712204724405
20
-2.3059445669291336
11
4.4059501968503936
21
-2.3022034645669289
0
LINE
8
BLACK
6
CONTINUOUS
10
4.4059501968503936
20
-2.3022034645669289
11
4.3955118110236215
21
-2.2970557874015749
0
LINE
8
BLACK
6
CONTINUOUS
10
4.3955118110236215
20
-2.2970557874015749
11
4.3858346062992126
21
-2.2905897244094486
0
LINE
8
BLACK
6
CONTINUOUS
10
4.3858346062992126
20
-2.2905897244094486
11
4.3770842125984251
21
-2.2829157874015746
0
LINE
8
BLACK
6
CONTINUOUS
10
4.3770842125984251
20
-2.2829157874015746
11
4.3694102755905515
21
-2.2741653937007875
0
LINE
8
BLACK
6
CONTINUOUS
10
4.3694102755905515
20
-2.2741653937007875
11
4.3629442125984248
21
-2.2644881889763777
0
LINE
8
BLACK
6
CONTINUOUS
10
4.3629442125984248
20
-2.2644881889763777
11
4.3577965354330708
21
-2.2540498031496061
0
LINE
8
BLACK
6
CONTINUOUS
10
4.3577965354330708
20
-2.2540498031496061
11
4.3540554330708661
21
-2.2430287795275592
0
LINE
8
BLACK
6
CONTINUOUS
10
4.3540554330708661
20
-2.2430287795275592
11
4.3517848425196846
21
-2.2316137401574805
0
LINE
8
BLACK
6
CONTINUOUS
10
4.3517848425196846
20
-2.2316137401574805
11
4.3510236220472436
21
-2.2199999999999998
0
LINE
8
BLACK
6
CONTINUOUS
10
4.3510236220472436
20
-2.2199999999999998
11
4.3517848425196846
21
-2.2083862598425195
0
LINE
8
BLACK
6
CONTINUOUS
10
4.3517848425196846
20
-2.2083862598425195
11
4.3540554330708661
21
-2.1969712204724408
0
LINE
8
BLACK
6
CONTINUOUS
10
4.3540554330708661
20
-2.1969712204724408
11
4.3577965354330708
21
-2.1859501968503938
0
LINE
8
BLACK
6
CONTINUOUS
10
4.3577965354330708
20
-2.1859501968503938
11
4.3629442125984248
21
-2.1755118110236218
0
LINE
8
BLACK
6
CONTINUOUS
10
4.3629442125984248
20
-2.1755118110236218
11
4.3694102755905515
21
-2.1658346062992124
0
LINE
8
BLACK
6
CONTINUOUS
10
4.3694102755905515
20
-2.1658346062992124
11
4.3770842125984251
21
-2.1570842125984253
0
LINE
8
BLACK
6
CONTINUOUS
10
4.3770842125984251
20
-2.1570842125984253
11
4.3858346062992126
21
-2.1494102755905513
0
LINE
8
BLACK
6
CONTINUOUS
10
4.3858346062992126
20
-2.1494102755905513
11
4.3955118110236215
21
-2.142944212598425
0
LINE
8
BLACK
6
CONTINUOUS
10
4.3955118110236215
20
-2.142944212598425
11
4.4059501968503936
21
-2.137796535433071
0
LINE
8
BLACK
6
CONTINUOUS
10
4.4059501968503936
20
-2.137796535433071
11
4.4169712204724405
21
-2.1340554330708663
0
LINE
8
BLACK
6
CONTINUOUS
10
4.4169712204724405
20
-2.1340554330708663
11
4.4283862598425197
21
-2.1317848425196848
0
LINE
8
BLACK
6
CONTINUOUS
10
4.4283862598425197
20
-2.1317848425196848
11
4.4399999999999995
21
-2.1310236220472438
0
LINE
8
BLACK
6
CONTINUOUS
10
4.4399999999999995
20
-2.1310236220472438
11
4.4516137401574802
21
-2.1317848425196848
0
LINE
8
BLACK
6
CONTINUOUS
10
4.3563377559055114
20
-2.2314990944881887
11
4.3586827559055115
21
-2.2427840157480317
0
LINE
8
BLACK
6
CONTINUOUS
10
4.3586827559055115
20
-2.2427840157480317
11
4.3625425984251969
21
-2.2536444881889763
0
LINE
8
BLACK
6
CONTINUOUS
10
4.3625425984251969
20
-2.2536444881889763
11
4.3678452755905512
21
-2.2638782677165352
0
LINE
8
BLACK
6
CONTINUOUS
10
4.3678452755905512
20
-2.2638782677165352
11
4.3744920866141728
21
-2.2732946456692913
0
LINE
8
BLACK
6
CONTINUOUS
10
4.3744920866141728
20
-2.2732946456692913
11
4.3823592125984252
21
-2.2817182283464565
0
LINE
8
BLACK
6
CONTINUOUS
10
4.3823592125984252
20
-2.2817182283464565
11
4.391300039370079
21
-2.2889921259842518
0
LINE
8
BLACK
6
CONTINUOUS
10
4.391300039370079
20
-2.2889921259842518
11
4.4011480314960627
21
-2.2949808661417324
0
LINE
8
BLACK
6
CONTINUOUS
10
4.4011480314960627
20
-2.2949808661417324
11
4.4117198031496061
21
-2.2995728346456694
0
LINE
8
BLACK
6
CONTINUOUS
10
4.4117198031496061
20
-2.2995728346456694
11
4.4228183858267718
21
-2.3026824803149606
0
LINE
8
BLACK
6
CONTINUOUS
10
4.4228183858267718
20
-2.3026824803149606
11
4.4342370078740156
21
-2.3042519685039369
0
LINE
8
BLACK
6
CONTINUOUS
10
4.4342370078740156
20
-2.3042519685039369
11
4.4457629921259842
21
-2.3042519685039369
0
LINE
8
BLACK
6
CONTINUOUS
10
4.4457629921259842
20
-2.3042519685039369
11
4.4571816141732281
21
-2.3026824803149606
0
LINE
8
BLACK
6
CONTINUOUS
10
4.4571816141732281
20
-2.3026824803149606
11
4.4682801968503938
21
-2.2995728346456694
0
LINE
8
BLACK
6
CONTINUOUS
10
4.4682801968503938
20
-2.2995728346456694
11
4.4788519685039372
21
-2.2949808661417324
0
LINE
8
BLACK
6
CONTINUOUS
10
4.4788519685039372
20
-2.2949808661417324
11
4.4886999606299209
21
-2.2889921259842518
0
LINE
8
BLACK
6
CONTINUOUS
10
4.4886999606299209
20
-2.2889921259842518
11
4.4976407874015747
21
-2.2817182283464565
0
LINE
8
BLACK
6
CONTINUOUS
10
4.4976407874015747
20
-2.2817182283464565
11
4.5055079133858262
21
-2.2732946456692913
0
LINE
8
BLACK
6
CONTINUOUS
10
4.5055079133858262
20
-2.2732946456692913
11
4.5121547244094486
21
-2.2638782677165352
0
LINE
8
BLACK
6
CONTINUOUS
10
4.5121547244094486
20
-2.2638782677165352
11
4.517457401574803
21
-2.2536444881889763
0
LINE
8
BLACK
6
CONTINUOUS
10
4.517457401574803
20
-2.2536444881889763
11
4.5213172440944884
21
-2.2427840157480317
0
LINE
8
BLACK
6
CONTINUOUS
10
4.5213172440944884
20
-2.2427840157480317
11
4.5236622440944885
21
-2.2314990944881887
0
LINE
8
BLACK
6
CONTINUOUS
10
4.5236622440944885
20
-2.2314990944881887
11
4.5244488188976373
21
-2.2199999999999998
0
LINE
8
BLACK
6
CONTINUOUS
10
4.5244488188976373
20
-2.2199999999999998
11
4.5236622440944885
21
-2.2085009055118108
0
LINE
8
BLACK
6
CONTINUOUS
10
4.5236622440944885
20
-2.2085009055118108
11
4.5213172440944884
21
-2.1972159842519683
0
LINE
8
BLACK
6
CONTINUOUS
10
4.5213172440944884
20
-2.1972159842519683
11
4.517457401574803
21
-2.1863555118110236
0
LINE
8
BLACK
6
CONTINUOUS
10
4.517457401574803
20
-2.1863555118110236
11
4.5121547244094486
21
-2.1761217322834647
0
LINE
8
BLACK
6
CONTINUOUS
10
4.5121547244094486
20
-2.1761217322834647
11
4.5055079133858262
21
-2.1667053543307087
0
LINE
8
BLACK
6
CONTINUOUS
10
4.5055079133858262
20
-2.1667053543307087
11
4.4976407874015747
21
-2.1582817716535434
0
LINE
8
BLACK
6
CONTINUOUS
10
4.4976407874015747
20
-2.1582817716535434
11
4.4886999606299209
21
-2.1510078740157481
0
LINE
8
BLACK
6
CONTINUOUS
10
4.4886999606299209
20
-2.1510078740157481
11
4.4788519685039372
21
-2.1450191338582676
0
LINE
8
BLACK
6
CONTINUOUS
10
4.4788519685039372
20
-2.1450191338582676
11
4.4682801968503938
21
-2.1404271653543305
0
LINE
8
BLACK
6
CONTINUOUS
10
4.4682801968503938
20
-2.1404271653543305
11
4.4571816141732281
21
-2.1373175196850394
0
LINE
8
BLACK
6
CONTINUOUS
10
4.4571816141732281
20
-2.1373175196850394
11
4.4457629921259842
21
-2.1357480314960631
0
LINE
8
BLACK
6
CONTINUOUS
10
4.4457629921259842
20
-2.1357480314960631
11
4.4342370078740156
21
-2.1357480314960631
0
LINE
8
BLACK
6
CONTINUOUS
10
4.4342370078740156
20
-2.1357480314960631
11
4.4228183858267718
21
-2.1373175196850394
0
LINE
8
BLACK
6
CONTINUOUS
10
4.4228183858267718
20
-2.1373175196850394
11
4.4117198031496061
21
-2.1404271653543305
0
LINE
8
BLACK
6
CONTINUOUS
10
4.4117198031496061
20
-2.1404271653543305
11
4.4011480314960627
21
-2.1450191338582676
0
LINE
8
BLACK
6
CONTINUOUS
10
4.4011480314960627
20
-2.1450191338582676
11
4.391300039370079
21
-2.1510078740157481
0
LINE
8
BLACK
6
CONTINUOUS
10
4.391300039370079
20
-2.1510078740157481
11
4.3823592125984252
21
-2.1582817716535434
0
LINE
8
BLACK
6
CONTINUOUS
10
4.3823592125984252
20
-2.1582817716535434
11
4.3744920866141728
21
-2.1667053543307087
0
LINE
8
BLACK
6
CONTINUOUS
10
4.3744920866141728
20
-2.1667053543307087
11
4.3678452755905512
21
-2.1761217322834647
0
LINE
8
BLACK
6
CONTINUOUS
10
4.3678452755905512
20
-2.1761217322834647
11
4.3625425984251969
21
-2.1863555118110236
0
LINE
8
BLACK
6
CONTINUOUS
10
4.3625425984251969
20
-2.1863555118110236
11
4.3586827559055115
21
-2.1972159842519683
0
LINE
8
BLACK
6
CONTINUOUS
10
4.3586827559055115
20
-2.1972159842519683
11
4.3563377559055114
21
-2.2085009055118108
0
LINE
8
BLACK
6
CONTINUOUS
10
4.3563377559055114
20
-2.2085009055118108
11
4.3555511811023617
21
-2.2199999999999998
0
LINE
8
BLACK
6
CONTINUOUS
10
4.3555511811023617
20
-2.2199999999999998
11
4.3563377559055114
21
-2.2314990944881887
0
LINE
8
BLACK
6
CONTINUOUS
10
3.3796816535433072
20
-1.9464850393700788
11
3.3797003149606297
21
-1.9464800393700787
0
LINE
8
BLACK
6
CONTINUOUS
10
3.3797003149606297
20
-1.9464800393700787
11
3.468826181102362
21
-1.9516943700787401
0
LINE
8
BLACK
6
CONTINUOUS
10
3.468826181102362
20
-1.9516943700787401
11
3.5578588582677164
21
-1.9583114566929134
0
LINE
8
BLACK
6
CONTINUOUS
10
3.5578588582677164
20
-1.9583114566929134
11
3.646776338582677
21
-1.9663296456692914
0
LINE
8
BLACK
6
CONTINUOUS
10
3.646776338582677
20
-1.9663296456692914
11
3.7355565748031494
21
-1.9757469291338583
0
LINE
8
BLACK
6
CONTINUOUS
10
3.7355565748031494
20
-1.9757469291338583
11
3.8241774803149604
21
-1.9865610236220472
0
LINE
8
BLACK
6
CONTINUOUS
10
3.8241774803149604
20
-1.9865610236220472
11
3.9126170866141732
21
-1.9987691732283464
0
LINE
8
BLACK
6
CONTINUOUS
10
3.9126170866141732
20
-1.9987691732283464
11
4.0008535433070866
21
-2.0123684251968506
0
LINE
8
BLACK
6
CONTINUOUS
10
4.0008535433070866
20
-2.0123684251968506
11
4.0888649212598427
21
-2.0273553543307088
0
LINE
8
BLACK
6
CONTINUOUS
10
4.0888649212598427
20
-2.0273553543307088
11
4.1766293700787402
21
-2.0437262598425194
0
LINE
8
BLACK
6
CONTINUOUS
10
4.1766293700787402
20
-2.0437262598425194
11
4.2641251968503937
21
-2.0614771259842519
0
LINE
8
BLACK
6
CONTINUOUS
10
4.2641251968503937
20
-2.0614771259842519
11
4.3513306692913387
21
-2.0806035039370077
0
LINE
8
BLACK
6
CONTINUOUS
10
4.3513306692913387
20
-2.0806035039370077
11
4.4382241338582675
21
-2.1011006299212598
0
LINE
8
BLACK
6
CONTINUOUS
10
4.4382241338582675
20
-2.1011006299212598
11
4.5247840944881892
21
-2.1229634645669293
0
LINE
8
BLACK
6
CONTINUOUS
10
4.5247840944881892
20
-2.1229634645669293
11
4.6109890551181101
21
-2.1461865748031497
0
LINE
8
BLACK
6
CONTINUOUS
10
4.6109890551181101
20
-2.1461865748031497
11
4.6968176377952755
21
-2.1707642125984252
0
LINE
8
BLACK
6
CONTINUOUS
10
4.6968176377952755
20
-2.1707642125984252
11
4.782248622047244
21
-2.1966902755905511
0
LINE
8
BLACK
6
CONTINUOUS
10
4.782248622047244
20
-2.1966902755905511
11
4.8672607480314962
21
-2.223958307086614
0
LINE
8
BLACK
6
CONTINUOUS
10
4.8672607480314962
20
-2.223958307086614
11
4.9518329921259845
21
-2.2525616141732283
0
LINE
8
BLACK
6
CONTINUOUS
10
4.9518329921259845
20
-2.2525616141732283
11
5.0359443307086611
21
-2.2824930314960628
0
LINE
8
BLACK
6
CONTINUOUS
10
5.0359443307086611
20
-2.2824930314960628
11
5.1195739370078739
21
-2.313745157480315
0
LINE
8
BLACK
6
CONTINUOUS
10
5.1195739370078739
20
-2.313745157480315
11
5.1195740157480314
21
-2.3137449212598424
0
LINE
8
BLACK
6
CONTINUOUS
10
5.1195740157480314
20
-2.3137449212598424
11
5.1196012204724406
21
-2.3137669291338581
0
LINE
8
BLACK
6
CONTINUOUS
10
5.1196012204724406
20
-2.3137669291338581
11
5.1196359448818898
21
-2.3137711023622045
0
LINE
8
BLACK
6
CONTINUOUS
10
5.1196359448818898
20
-2.3137711023622045
11
5.1246214173228344
21
-2.3166824803149604
0
LINE
8
BLACK
6
CONTINUOUS
10
5.1246214173228344
20
-2.3166824803149604
11
5.1289692125984248
21
-2.3204808661417324
0
LINE
8
BLACK
6
CONTINUOUS
10
5.1289692125984248
20
-2.3204808661417324
11
5.1325237007874014
21
-2.3250301968503937
0
LINE
8
BLACK
6
CONTINUOUS
10
5.1325237007874014
20
-2.3250301968503937
11
5.1351575984251969
21
-2.3301676771653543
0
LINE
8
BLACK
6
CONTINUOUS
10
5.1351575984251969
20
-2.3301676771653543
11
5.1367766535433068
21
-2.3357092913385826
0
LINE
8
BLACK
6
CONTINUOUS
10
5.1367766535433068
20
-2.3357092913385826
11
5.1373228346456692
21
-2.3414566929133858
0
LINE
8
BLACK
6
CONTINUOUS
10
5.1373228346456692
20
-2.3414566929133858
11
5.1373227952755904
21
-2.3414567322834645
0
LINE
8
BLACK
6
CONTINUOUS
10
5.1373227952755904
20
-2.3414567322834645
11
5.1373228346456692
21
-2.3414568897637795
0
LINE
8
BLACK
6
CONTINUOUS
10
5.1373228346456692
20
-2.3414568897637795
11
5.1371259842519681
21
-3.1838158661417322
0
LINE
8
BLACK
6
CONTINUOUS
10
5.1371259842519681
20
-3.1838158661417322
11
5.1371253149606302
21
-3.1838192125984253
0
LINE
8
BLACK
6
CONTINUOUS
10
5.1371253149606302
20
-3.1838192125984253
11
5.1371253937007877
21
-3.1871739763779527
0
LINE
8
BLACK
6
CONTINUOUS
10
5.1371253937007877
20
-3.1871739763779527
11
5.1382918110236222
21
-3.1937885826771653
0
LINE
8
BLACK
6
CONTINUOUS
10
5.1382918110236222
20
-3.1937885826771653
11
5.1405891338582679
21
-3.2001001968503937
0
LINE
8
BLACK
6
CONTINUOUS
10
5.1405891338582679
20
-3.2001001968503937
11
5.1439475590551176
21
-3.2059169685039368
0
LINE
8
BLACK
6
CONTINUOUS
10
5.1439475590551176
20
-3.2059169685039368
11
5.1482650000000003
21
-3.2110622047244095
0
LINE
8
BLACK
6
CONTINUOUS
10
5.1482650000000003
20
-3.2110622047244095
11
5.1534103543307088
21
-3.2153795669291338
0
LINE
8
BLACK
6
CONTINUOUS
10
5.1534103543307088
20
-3.2153795669291338
11
5.1592271653543307
21
-3.2187379133858265
0
LINE
8
BLACK
6
CONTINUOUS
10
5.1592271653543307
20
-3.2187379133858265
11
5.1655388188976374
21
-3.2210351181102364
0
LINE
8
BLACK
6
CONTINUOUS
10
5.1655388188976374
20
-3.2210351181102364
11
5.1721534645669287
21
-3.2222014566929134
0
LINE
8
BLACK
6
CONTINUOUS
10
5.1721534645669287
20
-3.2222014566929134
11
5.1755116535433068
21
-3.2222014566929134
0
LINE
8
BLACK
6
CONTINUOUS
10
5.1755116535433068
20
-3.2222014566929134
11
5.8331494094488185
21
-3.2220866141732283
0
LINE
8
BLACK
6
CONTINUOUS
10
5.8331494094488185
20
-3.2220866141732283
11
5.8331495275590548
21
-3.2220866141732283
0
LINE
8
BLACK
6
CONTINUOUS
10
5.8331495275590548
20
-3.2220866141732283
11
5.8331496062992123
21
-3.2220866141732283
0
LINE
8
BLACK
6
CONTINUOUS
10
5.8331496062992123
20
-3.2220866141732283
11
5.8391021653543307
21
-3.222672874015748
0
LINE
8
BLACK
6
CONTINUOUS
10
5.8391021653543307
20
-3.222672874015748
11
5.8448259842519681
21
-3.2244091732283464
0
LINE
8
BLACK
6
CONTINUOUS
10
5.8448259842519681
20
-3.2244091732283464
11
5.8501010629921257
21
-3.2272287795275592
0
LINE
8
BLACK
6
CONTINUOUS
10
5.8501010629921257
20
-3.2272287795275592
11
5.8547247244094489
21
-3.2310233070866139
0
LINE
8
BLACK
6
CONTINUOUS
10
5.8547247244094489
20
-3.2310233070866139
11
5.8585192519685041
21
-3.2356469685039371
0
LINE
8
BLACK
6
CONTINUOUS
10
5.8585192519685041
20
-3.2356469685039371
11
5.8613388582677164
21
-3.2409220472440943
0
LINE
8
BLACK
6
CONTINUOUS
10
5.8613388582677164
20
-3.2409220472440943
11
5.8630751574803153
21
-3.2466458661417321
0
LINE
8
BLACK
6
CONTINUOUS
10
5.8630751574803153
20
-3.2466458661417321
11
5.8636614173228345
21
-3.2525984251968505
0
LINE
8
BLACK
6
CONTINUOUS
10
5.8636614173228345
20
-3.2525984251968505
11
5.8636614173228345
21
-4.4774953149606302
0
LINE
8
BLACK
6
CONTINUOUS
10
5.8636614173228345
20
-4.4774953149606302
11
5.8641338582677163
21
-4.5766882283464563
0
LINE
8
BLACK
6
CONTINUOUS
10
5.8641338582677163
20
-4.5766882283464563
11
5.8641323228346458
21
-4.5766959055118113
0
LINE
8
BLACK
6
CONTINUOUS
10
5.8641323228346458
20
-4.5766959055118113
11
5.8641338188976375
21
-4.5767005511811023
0
LINE
8
BLACK
6
CONTINUOUS
10
5.8641338188976375
20
-4.5767005511811023
11
5.863216653543307
21
-4.6068036614173229
0
LINE
8
BLACK
6
CONTINUOUS
10
5.863216653543307
20
-4.6068036614173229
11
5.8609336614173229
21
-4.6368340944881892
0
LINE
8
BLACK
6
CONTINUOUS
10
5.8609336614173229
20
-4.6368340944881892
11
5.8572894881889761
21
-4.6667299212598428
0
LINE
8
BLACK
6
CONTINUOUS
10
5.8572894881889761
20
-4.6667299212598428
11
5.8522916535433067
21
-4.696429409448819
0
LINE
8
BLACK
6
CONTINUOUS
10
5.8522916535433067
20
-4.696429409448819
11
5.8459505118110231
21
-4.7258713779527559
0
LINE
8
BLACK
6
CONTINUOUS
10
5.8459505118110231
20
-4.7258713779527559
11
5.8382791338582676
21
-4.7549950787401576
0
LINE
8
BLACK
6
CONTINUOUS
10
5.8382791338582676
20
-4.7549950787401576
11
5.8292933070866138
21
-4.7837404330708662
0
LINE
8
BLACK
6
CONTINUOUS
10
5.8292933070866138
20
-4.7837404330708662
11
5.8190115748031497
21
-4.81204811023622
0
LINE
8
BLACK
6
CONTINUOUS
10
5.8190115748031497
20
-4.81204811023622
11
5.807455157480315
21
-4.8398597637795273
0
LINE
8
BLACK
6
CONTINUOUS
10
5.807455157480315
20
-4.8398597637795273
11
5.7946479133858269
21
-4.8671180708661419
0
LINE
8
BLACK
6
CONTINUOUS
10
5.7946479133858269
20
-4.8671180708661419
11
5.7946479921259844
21
-4.8671180708661419
0
LINE
8
BLACK
6
CONTINUOUS
10
5.7946479921259844
20
-4.8671180708661419
11
5.7946331889763778
21
-4.8671331496062988
0
LINE
8
BLACK
6
CONTINUOUS
10
5.7946331889763778
20
-4.8671331496062988
11
5.7946219291338581
21
-4.867166929133858
0
LINE
8
BLACK
6
CONTINUOUS
10
5.7946219291338581
20
-4.867166929133858
11
5.34376842519685
21
-5.6579388582677161
0
LINE
8
BLACK
6
CONTINUOUS
10
5.34376842519685
20
-5.6579388582677161
11
5.3437494881889762
21
-5.6579606692913389
0
LINE
8
BLACK
6
CONTINUOUS
10
5.3437494881889762
20
-5.6579606692913389
11
5.343745196850394
21
-5.6579775196850388
0
LINE
8
BLACK
6
CONTINUOUS
10
5.343745196850394
20
-5.6579775196850388
11
5.3376599999999996
21
-5.6663249999999996
0
LINE
8
BLACK
6
CONTINUOUS
10
5.3376599999999996
20
-5.6663249999999996
11
5.3305302362204721
21
-5.6738000787401575
0
LINE
8
BLACK
6
CONTINUOUS
10
5.3305302362204721
20
-5.6738000787401575
11
5.3224796456692909
21
-5.6802729921259845
0
LINE
8
BLACK
6
CONTINUOUS
10
5.3224796456692909
20
-5.6802729921259845
11
5.3136480314960632
21
-5.6856313779527561
0
LINE
8
BLACK
6
CONTINUOUS
10
5.3136480314960632
20
-5.6856313779527561
11
5.3041886220472438
21
-5.6897822440944879
0
LINE
8
BLACK
6
CONTINUOUS
10
5.3041886220472438
20
-5.6897822440944879
11
5.2942656299212594
21
-5.6926535826771651
0
LINE
8
BLACK
6
CONTINUOUS
10
5.2942656299212594
20
-5.6926535826771651
11
5.2840512992125985
21
-5.6941954724409447
0
LINE
8
BLACK
6
CONTINUOUS
10
5.2840512992125985
20
-5.6941954724409447
11
5.2737229133858268
21
-5.6943812204724411
0
LINE
8
BLACK
6
CONTINUOUS
10
5.2737229133858268
20
-5.6943812204724411
11
5.263459724409449
21
-5.6932075590551179
0
LINE
8
BLACK
6
CONTINUOUS
10
5.263459724409449
20
-5.6932075590551179
11
5.2534399212598428
21
-5.6906949212598423
0
LINE
8
BLACK
6
CONTINUOUS
10
5.2534399212598428
20
-5.6906949212598423
11
5.2438374015748028
21
-5.6868868110236219
0
LINE
8
BLACK
6
CONTINUOUS
10
5.2438374015748028
20
-5.6868868110236219
11
5.2348269291338578
21
-5.6818540157480317
0
LINE
8
BLACK
6
CONTINUOUS
10
5.2348269291338578
20
-5.6818540157480317
11
5.2348252755905511
21
-5.6818535826771654
0
LINE
8
BLACK
6
CONTINUOUS
10
5.2348252755905511
20
-5.6818535826771654
11
5.2348252755905511
21
-5.6818536220472442
0
LINE
8
BLACK
6
CONTINUOUS
10
5.2348252755905511
20
-5.6818536220472442
11
5.2062410629921256
21
-5.6636330314960626
0
LINE
8
BLACK
6
CONTINUOUS
10
5.2062410629921256
20
-5.6636330314960626
11
5.1483617716535433
21
-5.628331771653543
0
LINE
8
BLACK
6
CONTINUOUS
10
5.1483617716535433
20
-5.628331771653543
11
5.0897944488188971
21
-5.5941840944881891
0
LINE
8
BLACK
6
CONTINUOUS
10
5.0897944488188971
20
-5.5941840944881891
11
5.0305621259842521
21
-5.5612034251968501
0
LINE
8
BLACK
6
CONTINUOUS
10
5.0305621259842521
20
-5.5612034251968501
11
4.9706880708661414
21
-5.5294027165354329
0
LINE
8
BLACK
6
CONTINUOUS
10
4.9706880708661414
20
-5.5294027165354329
11
4.9101957480314962
21
-5.4987943700787403
0
LINE
8
BLACK
6
CONTINUOUS
10
4.9101957480314962
20
-5.4987943700787403
11
4.8491088976377954
21
-5.4693904724409448
0
LINE
8
BLACK
6
CONTINUOUS
10
4.8491088976377954
20
-5.4693904724409448
11
4.7874515354330711
21
-5.4412025590551183
0
LINE
8
BLACK
6
CONTINUOUS
10
4.7874515354330711
20
-5.4412025590551183
11
4.7252477952755907
21
-5.4142416929133859
0
LINE
8
BLACK
6
CONTINUOUS
10
4.7252477952755907
20
-5.4142416929133859
11
4.6625221653543303
21
-5.3885184251968505
0
LINE
8
BLACK
6
CONTINUOUS
10
4.6625221653543303
20
-5.3885184251968505
11
4.5992992519685041
21
-5.3640428740157482
0
LINE
8
BLACK
6
CONTINUOUS
10
4.5992992519685041
20
-5.3640428740157482
11
4.5356038188976378
21
-5.3408246850393697
0
LINE
8
BLACK
6
CONTINUOUS
10
4.5356038188976378
20
-5.3408246850393697
11
4.4714609448818896
21
-5.3188729133858264
0
LINE
8
BLACK
6
CONTINUOUS
10
4.4714609448818896
20
-5.3188729133858264
11
4.4068957480314959
21
-5.2981961811023623
0
LINE
8
BLACK
6
CONTINUOUS
10
4.4068957480314959
20
-5.2981961811023623
11
4.3419335826771652
21
-5.2788025984251972
0
LINE
8
BLACK
6
CONTINUOUS
10
4.3419335826771652
20
-5.2788025984251972
11
4.2766000000000002
21
-5.2606998425196849
0
LINE
8
BLACK
6
CONTINUOUS
10
4.2766000000000002
20
-5.2606998425196849
11
4.2437602362204725
21
-5.2522975196850394
0
LINE
8
BLACK
6
CONTINUOUS
10
4.2437602362204725
20
-5.2522975196850394
11
4.2437595275590549
21
-5.2522970472440944
0
LINE
8
BLACK
6
CONTINUOUS
10
4.2437595275590549
20
-5.2522970472440944
11
4.2437587007874011
21
-5.2522971259842519
0
LINE
8
BLACK
6
CONTINUOUS
10
4.2437587007874011
20
-5.2522971259842519
11
4.1824332677165357
21
-5.236500708661417
0
LINE
8
BLACK
6
CONTINUOUS
10
4.1824332677165357
20
-5.236500708661417
11
4.0594296456692911
21
-5.2063104330708656
0
LINE
8
BLACK
6
CONTINUOUS
10
4.0594296456692911
20
-5.2063104330708656
11
3.9360894488188976
21
-5.1775260236220468
0
LINE
8
BLACK
6
CONTINUOUS
10
3.9360894488188976
20
-5.1775260236220468
11
3.8124287401574803
21
-5.150151299212598
0
LINE
8
BLACK
6
CONTINUOUS
10
3.8124287401574803
20
-5.150151299212598
11
3.6884636614173227
21
-5.1241897244094483
0
LINE
8
BLACK
6
CONTINUOUS
10
3.6884636614173227
20
-5.1241897244094483
11
3.5642103149606297
21
-5.0996447244094485
0
LINE
8
BLACK
6
CONTINUOUS
10
3.5642103149606297
20
-5.0996447244094485
11
3.4396849606299211
21
-5.0765195275590553
0
LINE
8
BLACK
6
CONTINUOUS
10
3.4396849606299211
20
-5.0765195275590553
11
3.3149037401574803
21
-5.0548171259842523
0
LINE
8
BLACK
6
CONTINUOUS
10
3.3149037401574803
20
-5.0548171259842523
11
3.1898829527559056
21
-5.0345403543307086
0
LINE
8
BLACK
6
CONTINUOUS
10
3.1898829527559056
20
-5.0345403543307086
11
3.0646388976377952
21
-5.0156918110236219
0
LINE
8
BLACK
6
CONTINUOUS
10
3.0646388976377952
20
-5.0156918110236219
11
2.939187834645669
21
-4.9982740157480317
0
LINE
8
BLACK
6
CONTINUOUS
10
2.939187834645669
20
-4.9982740157480317
11
2.8135461811023621
21
-4.9822891732283461
0
LINE
8
BLACK
6
CONTINUOUS
10
2.8135461811023621
20
-4.9822891732283461
11
2.6877302362204722
21
-4.9677394094488188
0
LINE
8
BLACK
6
CONTINUOUS
10
2.6877302362204722
20
-4.9677394094488188
11
2.5617564173228344
21
-4.954626614173228
0
LINE
8
BLACK
6
CONTINUOUS
10
2.5617564173228344
20
-4.954626614173228
11
2.4356411811023619
21
-4.9429524803149603
0
LINE
8
BLACK
6
CONTINUOUS
10
2.4356411811023619
20
-4.9429524803149603
11
2.3094008661417322
21
-4.9327185433070868
0
LINE
8
BLACK
6
CONTINUOUS
10
2.3094008661417322
20
-4.9327185433070868
11
2.1830520078740157
21
-4.9239261417322835
0
LINE
8
BLACK
6
CONTINUOUS
10
2.1830520078740157
20
-4.9239261417322835
11
2.0566109842519684
21
-4.9165764173228341
0
LINE
8
BLACK
6
CONTINUOUS
10
2.0566109842519684
20
-4.9165764173228341
11
1.9300943307086613
21
-4.9106702755905509
0
LINE
8
BLACK
6
CONTINUOUS
10
1.9300943307086613
20
-4.9106702755905509
11
1.8035185433070866
21
-4.9062085826771655
0
LINE
8
BLACK
6
CONTINUOUS
10
1.8035185433070866
20
-4.9062085826771655
11
1.6769000393700788
21
-4.9031918503937009
0
LINE
8
BLACK
6
CONTINUOUS
10
1.6769000393700788
20
-4.9031918503937009
11
1.5502553543307087
21
-4.9016204724409445
0
LINE
8
BLACK
6
CONTINUOUS
10
1.5502553543307087
20
-4.9016204724409445
11
1.4869281496062992
21
-4.9015579133858269
0
LINE
8
BLACK
6
CONTINUOUS
10
1.4869281496062992
20
-4.9015579133858269
11
1.4869276377952756
21
-4.9015577165354332
0
LINE
8
BLACK
6
CONTINUOUS
10
1.4869276377952756
20
-4.9015577165354332
11
1.486926811023622
21
-4.9015579133858269
0
LINE
8
BLACK
6
CONTINUOUS
10
1.486926811023622
20
-4.9015579133858269
11
1.4761001181102362
21
-4.9015321653543307
0
LINE
8
BLACK
6
CONTINUOUS
10
1.4761001181102362
20
-4.9015321653543307
11
1.4760930708661417
21
-4.9015307480314956
0
LINE
8
BLACK
6
CONTINUOUS
10
1.4760930708661417
20
-4.9015307480314956
11
1.4658124803149606
21
-4.9010448425196849
0
LINE
8
BLACK
6
CONTINUOUS
10
1.4658124803149606
20
-4.9010448425196849
11
1.4556543700787401
21
-4.8992312992125981
0
LINE
8
BLACK
6
CONTINUOUS
10
1.4556543700787401
20
-4.8992312992125981
11
1.4458153937007874
21
-4.8961216929133853
0
LINE
8
BLACK
6
CONTINUOUS
10
1.4458153937007874
20
-4.8961216929133853
11
1.4364600787401574
21
-4.89176811023622
0
LINE
8
BLACK
6
CONTINUOUS
10
1.4364600787401574
20
-4.89176811023622
11
1.427745
21
-4.8862433070866143
0
LINE
8
BLACK
6
CONTINUOUS
10
1.427745
20
-4.8862433070866143
11
1.4198159842519684
21
-4.8796398425196852
0
LINE
8
BLACK
6
CONTINUOUS
10
1.4198159842519684
20
-4.8796398425196852
11
1.4128056692913384
21
-4.8720680708661419
0
LINE
8
BLACK
6
CONTINUOUS
10
1.4128056692913384
20
-4.8720680708661419
11
1.4068313779527559
21
-4.8636548031496059
0
LINE
8
BLACK
6
CONTINUOUS
10
1.4068313779527559
20
-4.8636548031496059
11
1.4019930708661417
21
-4.8545407086614176
0
LINE
8
BLACK
6
CONTINUOUS
10
1.4019930708661417
20
-4.8545407086614176
11
1.3983716535433071
21
-4.8448783858267719
0
LINE
8
BLACK
6
CONTINUOUS
10
1.3983716535433071
20
-4.8448783858267719
11
1.3960277952755906
21
-4.8348294094488189
0
LINE
8
BLACK
6
CONTINUOUS
10
1.3960277952755906
20
-4.8348294094488189
11
1.3950006692913386
21
-4.824561929133858
0
LINE
8
BLACK
6
CONTINUOUS
10
1.3950006692913386
20
-4.824561929133858
11
1.3950006299212598
21
-4.824561929133858
0
LINE
8
BLACK
6
CONTINUOUS
10
1.3950006299212598
20
-4.824561929133858
11
1.3950043307086615
21
-4.8245489763779528
0
LINE
8
BLACK
6
CONTINUOUS
10
1.3950043307086615
20
-4.8245489763779528
11
1.3950000393700788
21
-4.8245273622047247
0
LINE
8
BLACK
6
CONTINUOUS
10
1.3950000393700788
20
-4.8245273622047247
11
1.3953094094488188
21
-2.686508503937008
0
LINE
8
BLACK
6
CONTINUOUS
10
1.3953094094488188
20
-2.686508503937008
11
1.3953560236220472
21
-2.6862741732283464
0
LINE
8
BLACK
6
CONTINUOUS
10
1.3953560236220472
20
-2.6862741732283464
11
1.3953556299212597
21
-2.6862105511811021
0
LINE
8
BLACK
6
CONTINUOUS
10
1.3953556299212597
20
-2.6862105511811021
11
1.3953556692913385
21
-2.6862105511811021
0
LINE
8
BLACK
6
CONTINUOUS
10
1.3953556692913385
20
-2.6862105511811021
11
1.3953841338582678
21
-2.6861329527559055
0
LINE
8
BLACK
6
CONTINUOUS
10
1.3953841338582678
20
-2.6861329527559055
11
1.3953843700787401
21
-2.6861318503937008
0
LINE
8
BLACK
6
CONTINUOUS
10
1.3953843700787401
20
-2.6861318503937008
11
1.3953846456692913
21
-2.6861315354330708
0
LINE
8
BLACK
6
CONTINUOUS
10
1.3953846456692913
20
-2.6861315354330708
11
1.4002456299212598
21
-2.6728901574803148
0
LINE
8
BLACK
6
CONTINUOUS
10
1.4002456299212598
20
-2.6728901574803148
11
1.4062898031496063
21
-2.6600522834645668
0
LINE
8
BLACK
6
CONTINUOUS
10
1.4062898031496063
20
-2.6600522834645668
11
1.4134412204724409
21
-2.6477966141732283
0
LINE
8
BLACK
6
CONTINUOUS
10
1.4134412204724409
20
-2.6477966141732283
11
1.4216442913385827
21
-2.6362185039370076
0
LINE
8
BLACK
6
CONTINUOUS
10
1.4216442913385827
20
-2.6362185039370076
11
1.4308352755905511
21
-2.6254078740157478
0
LINE
8
BLACK
6
CONTINUOUS
10
1.4308352755905511
20
-2.6254078740157478
11
1.4409427165354329
21
-2.6154487795275592
0
LINE
8
BLACK
6
CONTINUOUS
10
1.4409427165354329
20
-2.6154487795275592
11
1.4518351968503937
21
-2.6064622047244095
0
LINE
8
BLACK
6
CONTINUOUS
10
1.4518351968503937
20
-2.6064622047244095
11
1.4518363385826771
21
-2.6064603937007873
0
LINE
8
BLACK
6
CONTINUOUS
10
1.4518363385826771
20
-2.6064603937007873
11
1.499406062992126
21
-2.5662527952755907
0
LINE
8
BLACK
6
CONTINUOUS
10
1.499406062992126
20
-2.5662527952755907
11
1.5478881889763778
21
-2.5271501574803148
0
LINE
8
BLACK
6
CONTINUOUS
10
1.5478881889763778
20
-2.5271501574803148
11
1.5972570472440943
21
-2.4891732283464565
0
LINE
8
BLACK
6
CONTINUOUS
10
1.5972570472440943
20
-2.4891732283464565
11
1.6474865354330708
21
-2.4523421259842517
0
LINE
8
BLACK
6
CONTINUOUS
10
1.6474865354330708
20
-2.4523421259842517
11
1.69855
21
-2.4166762598425198
0
LINE
8
BLACK
6
CONTINUOUS
10
1.69855
20
-2.4166762598425198
11
1.7504204724409449
21
-2.3821946062992128
0
LINE
8
BLACK
6
CONTINUOUS
10
1.7504204724409449
20
-2.3821946062992128
11
1.803070433070866
21
-2.3489153543307086
0
LINE
8
BLACK
6
CONTINUOUS
10
1.803070433070866
20
-2.3489153543307086
11
1.8564720866141733
21
-2.3168561023622045
0
LINE
8
BLACK
6
CONTINUOUS
10
1.8564720866141733
20
-2.3168561023622045
11
1.9105971653543308
21
-2.2860338976377954
0
LINE
8
BLACK
6
CONTINUOUS
10
1.9105971653543308
20
-2.2860338976377954
11
1.9654169685039369
21
-2.2564649999999999
0
LINE
8
BLACK
6
CONTINUOUS
10
1.9654169685039369
20
-2.2564649999999999
11
2.0209024803149607
21
-2.2281650393700785
0
LINE
8
BLACK
6
CONTINUOUS
10
2.0209024803149607
20
-2.2281650393700785
11
2.0770243700787403
21
-2.2011490551181101
0
LINE
8
BLACK
6
CONTINUOUS
10
2.0770243700787403
20
-2.2011490551181101
11
2.1337529133858268
21
-2.1754312992125984
0
LINE
8
BLACK
6
CONTINUOUS
10
2.1337529133858268
20
-2.1754312992125984
11
2.1910581102362205
21
-2.151025433070866
0
LINE
8
BLACK
6
CONTINUOUS
10
2.1910581102362205
20
-2.151025433070866
11
2.2489095669291337
21
-2.1279442913385824
0
LINE
8
BLACK
6
CONTINUOUS
10
2.2489095669291337
20
-2.1279442913385824
11
2.3072767322834644
21
-2.1062001968503936
0
LINE
8
BLACK
6
CONTINUOUS
10
2.3072767322834644
20
-2.1062001968503936
11
2.3661286614173229
21
-2.0858045669291339
0
LINE
8
BLACK
6
CONTINUOUS
10
2.3661286614173229
20
-2.0858045669291339
11
2.4254342125984252
21
-2.0667682677165353
0
LINE
8
BLACK
6
CONTINUOUS
10
2.4254342125984252
20
-2.0667682677165353
11
2.4851620078740155
21
-2.0491013385826773
0
LINE
8
BLACK
6
CONTINUOUS
10
2.4851620078740155
20
-2.0491013385826773
11
2.5452804330708663
21
-2.0328131102362206
0
LINE
8
BLACK
6
CONTINUOUS
10
2.5452804330708663
20
-2.0328131102362206
11
2.6057576771653541
21
-2.0179122834645669
0
LINE
8
BLACK
6
CONTINUOUS
10
2.6057576771653541
20
-2.0179122834645669
11
2.666561692913386
21
-2.0044066535433069
0
LINE
8
BLACK
6
CONTINUOUS
10
2.666561692913386
20
-2.0044066535433069
11
2.7276603149606298
21
-1.9923034251968503
0
LINE
8
BLACK
6
CONTINUOUS
10
2.7276603149606298
20
-1.9923034251968503
11
2.7890212204724407
21
-1.9816089763779527
0
LINE
8
BLACK
6
CONTINUOUS
10
2.7890212204724407
20
-1.9816089763779527
11
2.8506118897637793
21
-1.9723289763779528
0
LINE
8
BLACK
6
CONTINUOUS
10
2.8506118897637793
20
-1.9723289763779528
11
2.9123997637795274
21
-1.9644683464566928
0
LINE
8
BLACK
6
CONTINUOUS
10
2.9123997637795274
20
-1.9644683464566928
11
2.974352125984252
21
-1.9580312204724408
0
LINE
8
BLACK
6
CONTINUOUS
10
2.974352125984252
20
-1.9580312204724408
11
3.0364361811023621
21
-1.9530210629921259
0
LINE
8
BLACK
6
CONTINUOUS
10
3.0364361811023621
20
-1.9530210629921259
11
3.0986190551181103
21
-1.9494404724409449
0
LINE
8
BLACK
6
CONTINUOUS
10
3.0986190551181103
20
-1.9494404724409449
11
3.1608678346456691
21
-1.9472913385826771
0
LINE
8
BLACK
6
CONTINUOUS
10
3.1608678346456691
20
-1.9472913385826771
11
3.2231487401574803
21
-1.9465748425196849
0
LINE
8
BLACK
6
CONTINUOUS
10
3.2231487401574803
20
-1.9465748425196849
11
3.2231490157480316
21
-1.9465748031496062
0
LINE
8
BLACK
6
CONTINUOUS
10
3.2231490157480316
20
-1.9465748031496062
11
3.3796499606299211
21
-1.9464787795275591
0
LINE
8
BLACK
6
CONTINUOUS
10
3.3796499606299211
20
-1.9464787795275591
11
3.3796816535433072
21
-1.9464850393700788
0
LINE
8
BLACK
6
CONTINUOUS
10
3.2231501968503937
20
-1.9485433070866141
11
3.2231498031496062
21
-1.9485432283464565
0
LINE
8
BLACK
6
CONTINUOUS
10
3.2231498031496062
20
-1.9485432283464565
11
3.2231496062992124
21
-1.9485433070866141
0
LINE
8
BLACK
6
CONTINUOUS
10
3.2231496062992124
20
-1.9485433070866141
11
3.2231496062992124
21
-1.9485433464566928
0
LINE
8
BLACK
6
CONTINUOUS
10
3.2231496062992124
20
-1.9485433464566928
11
3.1920272440944881
21
-1.9485432283464565
0
LINE
8
BLACK
6
CONTINUOUS
10
3.1920272440944881
20
-1.9485432283464565
11
3.1297990157480315
21
-1.9499751968503936
0
LINE
8
BLACK
6
CONTINUOUS
10
3.1297990157480315
20
-1.9499751968503936
11
3.0676201968503936
21
-1.952838346456693
0
LINE
8
BLACK
6
CONTINUOUS
10
3.0676201968503936
20
-1.952838346456693
11
3.0055237007874016
21
-1.9571311417322834
0
LINE
8
BLACK
6
CONTINUOUS
10
3.0055237007874016
20
-1.9571311417322834
11
2.9435423622047243
21
-1.9628513779527559
0
LINE
8
BLACK
6
CONTINUOUS
10
2.9435423622047243
20
-1.9628513779527559
11
2.8817090551181104
21
-1.9699960236220473
0
LINE
8
BLACK
6
CONTINUOUS
10
2.8817090551181104
20
-1.9699960236220473
11
2.8200564566929134
21
-1.978561220472441
0
LINE
8
BLACK
6
CONTINUOUS
10
2.8200564566929134
20
-1.978561220472441
11
2.7586172440944883
21
-1.9885425196850393
0
LINE
8
BLACK
6
CONTINUOUS
10
2.7586172440944883
20
-1.9885425196850393
11
2.6974238976377953
21
-1.9999345669291337
0
LINE
8
BLACK
6
CONTINUOUS
10
2.6974238976377953
20
-1.9999345669291337
11
2.6365088582677165
21
-2.0127313779527558
0
LINE
8
BLACK
6
CONTINUOUS
10
2.6365088582677165
20
-2.0127313779527558
11
2.5759042913385826
21
-2.026926181102362
0
LINE
8
BLACK
6
CONTINUOUS
10
2.5759042913385826
20
-2.026926181102362
11
2.5156423228346454
21
-2.0425114173228347
0
LINE
8
BLACK
6
CONTINUOUS
10
2.5156423228346454
20
-2.0425114173228347
11
2.4557548425196849
21
-2.0594788976377951
0
LINE
8
BLACK
6
CONTINUOUS
10
2.4557548425196849
20
-2.0594788976377951
11
2.3962735826771655
21
-2.0778196062992125
0
LINE
8
BLACK
6
CONTINUOUS
10
2.3962735826771655
20
-2.0778196062992125
11
2.3372299606299212
21
-2.0975238582677167
0
LINE
8
BLACK
6
CONTINUOUS
10
2.3372299606299212
20
-2.0975238582677167
11
2.2786552755905509
21
-2.1185811811023623
0
LINE
8
BLACK
6
CONTINUOUS
10
2.2786552755905509
20
-2.1185811811023623
11
2.2205805511811021
21
-2.1409804724409449
0
LINE
8
BLACK
6
CONTINUOUS
10
2.2205805511811021
20
-2.1409804724409449
11
2.1630364566929132
21
-2.1647098425196849
0
LINE
8
BLACK
6
CONTINUOUS
10
2.1630364566929132
20
-2.1647098425196849
11
2.1060535039370079
21
-2.1897567322834646
0
LINE
8
BLACK
6
CONTINUOUS
10
2.1060535039370079
20
-2.1897567322834646
11
2.0496618503937007
21
-2.2161079133858266
0
LINE
8
BLACK
6
CONTINUOUS
10
2.0496618503937007
20
-2.2161079133858266
11
1.9938913385826771
21
-2.2437494488188974
0
LINE
8
BLACK
6
CONTINUOUS
10
1.9938913385826771
20
-2.2437494488188974
11
1.938771496062992
21
-2.2726666535433071
0
LINE
8
BLACK
6
CONTINUOUS
10
1.938771496062992
20
-2.2726666535433071
11
1.8843314566929132
21
-2.3028442519685037
0
LINE
8
BLACK
6
CONTINUOUS
10
1.8843314566929132
20
-2.3028442519685037
11
1.8306000787401575
21
-2.3342662992125982
0
LINE
8
BLACK
6
CONTINUOUS
10
1.8306000787401575
20
-2.3342662992125982
11
1.7776057874015747
21
-2.3669161023622047
0
LINE
8
BLACK
6
CONTINUOUS
10
1.7776057874015747
20
-2.3669161023622047
11
1.725376653543307
21
-2.4007764173228345
0
LINE
8
BLACK
6
CONTINUOUS
10
1.725376653543307
20
-2.4007764173228345
11
1.6739403149606298
21
-2.4358292913385826
0
LINE
8
BLACK
6
CONTINUOUS
10
1.6739403149606298
20
-2.4358292913385826
11
1.6233239763779528
21
-2.472056220472441
0
LINE
8
BLACK
6
CONTINUOUS
10
1.6233239763779528
20
-2.472056220472441
11
1.573554409448819
21
-2.5094379921259842
0
LINE
8
BLACK
6
CONTINUOUS
10
1.573554409448819
20
-2.5094379921259842
11
1.5246580314960629
21
-2.547954842519685
0
LINE
8
BLACK
6
CONTINUOUS
10
1.5246580314960629
20
-2.547954842519685
11
1.4766606692913387
21
-2.5875863779527557
0
LINE
8
BLACK
6
CONTINUOUS
10
1.4766606692913387
20
-2.5875863779527557
11
1.4531242913385827
21
-2.6079490944881889
0
LINE
8
BLACK
6
CONTINUOUS
10
1.4531242913385827
20
-2.6079490944881889
11
1.4531242913385827
21
-2.6079490551181101
0
LINE
8
BLACK
6
CONTINUOUS
10
1.4531242913385827
20
-2.6079490551181101
11
1.4530924409448818
21
-2.6079624803149604
0
LINE
8
BLACK
6
CONTINUOUS
10
1.4530924409448818
20
-2.6079624803149604
11
1.4530725984251969
21
-2.6079908267716534
0
LINE
8
BLACK
6
CONTINUOUS
10
1.4530725984251969
20
-2.6079908267716534
11
1.4530726377952756
21
-2.6079908267716534
0
LINE
8
BLACK
6
CONTINUOUS
10
1.4530726377952756
20
-2.6079908267716534
11
1.4474694488188975
21
-2.6122113385826773
0
LINE
8
BLACK
6
CONTINUOUS
10
1.4474694488188975
20
-2.6122113385826773
11
1.4370514960629921
21
-2.6216081496062991
0
LINE
8
BLACK
6
CONTINUOUS
10
1.4370514960629921
20
-2.6216081496062991
11
1.4275016535433072
21
-2.6318860236220472
0
LINE
8
BLACK
6
CONTINUOUS
10
1.4275016535433072
20
-2.6318860236220472
11
1.4188942125984252
21
-2.6429650787401573
0
LINE
8
BLACK
6
CONTINUOUS
10
1.4188942125984252
20
-2.6429650787401573
11
1.4112960629921258
21
-2.654759212598425
0
LINE
8
BLACK
6
CONTINUOUS
10
1.4112960629921258
20
-2.654759212598425
11
1.4047662204724409
21
-2.6671767322834645
0
LINE
8
BLACK
6
CONTINUOUS
10
1.4047662204724409
20
-2.6671767322834645
11
1.3993555118110237
21
-2.6801211417322834
0
LINE
8
BLACK
6
CONTINUOUS
10
1.3993555118110237
20
-2.6801211417322834
11
1.3972778740157481
21
-2.6866613779527557
0
LINE
8
BLACK
6
CONTINUOUS
10
1.3972778740157481
20
-2.6866613779527557
11
1.3969685433070866
21
-4.8245097637795276
0
LINE
8
BLACK
6
CONTINUOUS
10
1.3969685433070866
20
-4.8245097637795276
11
1.3971473622047244
21
-4.8295322834645669
0
LINE
8
BLACK
6
CONTINUOUS
10
1.3971473622047244
20
-4.8295322834645669
11
1.3987981102362204
21
-4.8394810629921254
0
LINE
8
BLACK
6
CONTINUOUS
10
1.3987981102362204
20
-4.8394810629921254
11
1.401719251968504
21
-4.8491335433070866
0
LINE
8
BLACK
6
CONTINUOUS
10
1.401719251968504
20
-4.8491335433070866
11
1.4058618897637796
21
-4.8583281889763779
0
LINE
8
BLACK
6
CONTINUOUS
10
1.4058618897637796
20
-4.8583281889763779
11
1.4111567322834646
21
-4.8669111811023624
0
LINE
8
BLACK
6
CONTINUOUS
10
1.4111567322834646
20
-4.8669111811023624
11
1.4175151968503936
21
-4.874738897637795
0
LINE
8
BLACK
6
CONTINUOUS
10
1.4175151968503936
20
-4.874738897637795
11
1.4248308267716534
21
-4.8816803937007869
0
LINE
8
BLACK
6
CONTINUOUS
10
1.4248308267716534
20
-4.8816803937007869
11
1.4329812992125983
21
-4.8876194881889763
0
LINE
8
BLACK
6
CONTINUOUS
10
1.4329812992125983
20
-4.8876194881889763
11
1.4418301968503937
21
-4.8924568503937005
0
LINE
8
BLACK
6
CONTINUOUS
10
1.4418301968503937
20
-4.8924568503937005
11
1.4512294881889762
21
-4.8961114960629919
0
LINE
8
BLACK
6
CONTINUOUS
10
1.4512294881889762
20
-4.8961114960629919
11
1.4610218897637794
21
-4.8985223228346459
0
LINE
8
BLACK
6
CONTINUOUS
10
1.4610218897637794
20
-4.8985223228346459
11
1.4710435433070865
21
-4.8996489763779527
0
LINE
8
BLACK
6
CONTINUOUS
10
1.4710435433070865
20
-4.8996489763779527
11
1.4760852362204724
21
-4.8995638188976374
0
LINE
8
BLACK
6
CONTINUOUS
10
1.4760852362204724
20
-4.8995638188976374
11
1.4760925590551182
21
-4.8995660236220475
0
LINE
8
BLACK
6
CONTINUOUS
10
1.4760925590551182
20
-4.8995660236220475
11
1.4761047637795275
21
-4.8995636614173224
0
LINE
8
BLACK
6
CONTINUOUS
10
1.4761047637795275
20
-4.8995636614173224
11
1.486931496062992
21
-4.8995894094488186
0
LINE
8
BLACK
6
CONTINUOUS
10
1.486931496062992
20
-4.8995894094488186
11
1.4869315354330708
21
-4.8995894094488186
0
LINE
8
BLACK
6
CONTINUOUS
10
1.4869315354330708
20
-4.8995894094488186
11
1.6136020866141731
21
-4.9004381496062992
0
LINE
8
BLACK
6
CONTINUOUS
10
1.6136020866141731
20
-4.9004381496062992
11
1.7402561417322835
21
-4.9027325984251968
0
LINE
8
BLACK
6
CONTINUOUS
10
1.7402561417322835
20
-4.9027325984251968
11
1.8668757480314959
21
-4.9064724803149602
0
LINE
8
BLACK
6
CONTINUOUS
10
1.8668757480314959
20
-4.9064724803149602
11
1.9934444488188976
21
-4.9116573228346452
0
LINE
8
BLACK
6
CONTINUOUS
10
1.9934444488188976
20
-4.9116573228346452
11
2.1199457086614171
21
-4.9182864173228342
0
LINE
8
BLACK
6
CONTINUOUS
10
2.1199457086614171
20
-4.9182864173228342
11
2.2463630708661415
21
-4.9263588976377948
0
LINE
8
BLACK
6
CONTINUOUS
10
2.2463630708661415
20
-4.9263588976377948
11
2.3726800393700787
21
-4.9358737795275589
0
LINE
8
BLACK
6
CONTINUOUS
10
2.3726800393700787
20
-4.9358737795275589
11
2.4988801968503935
21
-4.9468297637795278
0
LINE
8
BLACK
6
CONTINUOUS
10
2.4988801968503935
20
-4.9468297637795278
11
2.6249470866141733
21
-4.9592253937007875
0
LINE
8
BLACK
6
CONTINUOUS
10
2.6249470866141733
20
-4.9592253937007875
11
2.7508642913385826
21
-4.9730591338582677
0
LINE
8
BLACK
6
CONTINUOUS
10
2.7508642913385826
20
-4.9730591338582677
11
2.8766153937007872
21
-4.9883291338582678
0
LINE
8
BLACK
6
CONTINUOUS
10
2.8766153937007872
20
-4.9883291338582678
11
3.0021840157480315
21
-5.0050334251968502
0
LINE
8
BLACK
6
CONTINUOUS
10
3.0021840157480315
20
-5.0050334251968502
11
3.1275538188976375
21
-5.0231698031496066
0
LINE
8
BLACK
6
CONTINUOUS
10
3.1275538188976375
20
-5.0231698031496066
11
3.2527084645669291
21
-5.0427359448818896
0
LINE
8
BLACK
6
CONTINUOUS
10
3.2527084645669291
20
-5.0427359448818896
11
3.3776316141732283
21
-5.0637292519685042
0
LINE
8
BLACK
6
CONTINUOUS
10
3.3776316141732283
20
-5.0637292519685042
11
3.5023070078740157
21
-5.0861470472440944
0
LINE
8
BLACK
6
CONTINUOUS
10
3.5023070078740157
20
-5.0861470472440944
11
3.6267184251968505
21
-5.1099863779527555
0
LINE
8
BLACK
6
CONTINUOUS
10
3.6267184251968505
20
-5.1099863779527555
11
3.7508496456692915
21
-5.135244094488189
0
LINE
8
BLACK
6
CONTINUOUS
10
3.7508496456692915
20
-5.135244094488189
11
3.8746844881889762
21
-5.161917007874016
0
LINE
8
BLACK
6
CONTINUOUS
10
3.8746844881889762
20
-5.161917007874016
11
3.9982068503937005
21
-5.1900015748031496
0
LINE
8
BLACK
6
CONTINUOUS
10
3.9982068503937005
20
-5.1900015748031496
11
4.1214005905511808
21
-5.2194941338582677
0
LINE
8
BLACK
6
CONTINUOUS
10
4.1214005905511808
20
-5.2194941338582677
11
4.2442480314960633
21
-5.2503904330708657
0
LINE
8
BLACK
6
CONTINUOUS
10
4.2442480314960633
20
-5.2503904330708657
11
4.2442481889763775
21
-5.2503904330708657
0
LINE
8
BLACK
6
CONTINUOUS
10
4.2442481889763775
20
-5.2503904330708657
11
4.2442497244094488
21
-5.2503908267716533
0
LINE
8
BLACK
6
CONTINUOUS
10
4.2442497244094488
20
-5.2503908267716533
11
4.2442497637795276
21
-5.2503908267716533
0
LINE
8
BLACK
6
CONTINUOUS
10
4.2442497637795276
20
-5.2503908267716533
11
4.3097924015748035
21
-5.2678543307086612
0
LINE
8
BLACK
6
CONTINUOUS
10
4.3097924015748035
20
-5.2678543307086612
11
4.3749777559055119
21
-5.2866132677165352
0
LINE
8
BLACK
6
CONTINUOUS
10
4.3749777559055119
20
-5.2866132677165352
11
4.4397786614173231
21
-5.3066599212598424
0
LINE
8
BLACK
6
CONTINUOUS
10
4.4397786614173231
20
-5.3066599212598424
11
4.504169724409449
21
-5.3279864566929129
0
LINE
8
BLACK
6
CONTINUOUS
10
4.504169724409449
20
-5.3279864566929129
11
4.5681256692913381
21
-5.3505844488188972
0
LINE
8
BLACK
6
CONTINUOUS
10
4.5681256692913381
20
-5.3505844488188972
11
4.6316213385826774
21
-5.3744450393700784
0
LINE
8
BLACK
6
CONTINUOUS
10
4.6316213385826774
20
-5.3744450393700784
11
4.6946318503937006
21
-5.3995588976377951
0
LINE
8
BLACK
6
CONTINUOUS
10
4.6946318503937006
20
-5.3995588976377951
11
4.7571324409448819
21
-5.4259161023622049
0
LINE
8
BLACK
6
CONTINUOUS
10
4.7571324409448819
20
-5.4259161023622049
11
4.8190986220472443
21
-5.4535063779527562
0
LINE
8
BLACK
6
CONTINUOUS
10
4.8190986220472443
20
-5.4535063779527562
11
4.880506023622047
21
-5.4823188188976379
0
LINE
8
BLACK
6
CONTINUOUS
10
4.880506023622047
20
-5.4823188188976379
11
4.9413305905511811
21
-5.5123422047244093
0
LINE
8
BLACK
6
CONTINUOUS
10
4.9413305905511811
20
-5.5123422047244093
11
5.0015484251968507
21
-5.5435646850393701
0
LINE
8
BLACK
6
CONTINUOUS
10
5.0015484251968507
20
-5.5435646850393701
11
5.0611358661417318
21
-5.5759740157480318
0
LINE
8
BLACK
6
CONTINUOUS
10
5.0611358661417318
20
-5.5759740157480318
11
5.1200695669291338
21
-5.6095574803149608
0
LINE
8
BLACK
6
CONTINUOUS
10
5.1200695669291338
20
-5.6095574803149608
11
5.1783263385826768
21
-5.6443019291338583
0
LINE
8
BLACK
6
CONTINUOUS
10
5.1783263385826768
20
-5.6443019291338583
11
5.2358833858267717
21
-5.6801936614173227
0
LINE
8
BLACK
6
CONTINUOUS
10
5.2358833858267717
20
-5.6801936614173227
11
5.235885905511811
21
-5.6801967322834646
0
LINE
8
BLACK
6
CONTINUOUS
10
5.235885905511811
20
-5.6801967322834646
11
5.2358898425196845
21
-5.68019779527559
0
LINE
8
BLACK
6
CONTINUOUS
10
5.2358898425196845
20
-5.68019779527559
11
5.2358898425196845
21
-5.6801978346456687
0
LINE
8
BLACK
6
CONTINUOUS
10
5.2358898425196845
20
-5.6801978346456687
11
5.2401249999999999
21
-5.6829414173228345
0
LINE
8
BLACK
6
CONTINUOUS
10
5.2401249999999999
20
-5.6829414173228345
11
5.2492410629921258
21
-5.6872717716535428
0
LINE
8
BLACK
6
CONTINUOUS
10
5.2492410629921258
20
-5.6872717716535428
11
5.2588473228346455
21
-5.6903661417322837
0
LINE
8
BLACK
6
CONTINUOUS
10
5.2588473228346455
20
-5.6903661417322837
11
5.2687769685039365
21
-5.692170787401575
0
LINE
8
BLACK
6
CONTINUOUS
10
5.2687769685039365
20
-5.692170787401575
11
5.2788577165354331
21
-5.692654409448819
0
LINE
8
BLACK
6
CONTINUOUS
10
5.2788577165354331
20
-5.692654409448819
11
5.2889145275590552
21
-5.6918086614173227
0
LINE
8
BLACK
6
CONTINUOUS
10
5.2889145275590552
20
-5.6918086614173227
11
5.2987728740157483
21
-5.6896481102362202
0
LINE
8
BLACK
6
CONTINUOUS
10
5.2987728740157483
20
-5.6896481102362202
11
5.3082616535433074
21
-5.6862103543307088
0
LINE
8
BLACK
6
CONTINUOUS
10
5.3082616535433074
20
-5.6862103543307088
11
5.317216141732283
21
-5.6815550393700782
0
LINE
8
BLACK
6
CONTINUOUS
10
5.317216141732283
20
-5.6815550393700782
11
5.3254809448818898
21
-5.675762952755905
0
LINE
8
BLACK
6
CONTINUOUS
10
5.3254809448818898
20
-5.675762952755905
11
5.3329125590551181
21
-5.6689346456692915
0
LINE
8
BLACK
6
CONTINUOUS
10
5.3329125590551181
20
-5.6689346456692915
11
5.3393820472440945
21
-5.6611885826771653
0
LINE
8
BLACK
6
CONTINUOUS
10
5.3393820472440945
20
-5.6611885826771653
11
5.3420696456692909
21
-5.6569440157480315
0
LINE
8
BLACK
6
CONTINUOUS
10
5.3420696456692909
20
-5.6569440157480315
11
5.792897519685039
21
-4.8662170078740159
0
LINE
8
BLACK
6
CONTINUOUS
10
5.792897519685039
20
-4.8662170078740159
11
5.7995797637795272
21
-4.8527974015748034
0
LINE
8
BLACK
6
CONTINUOUS
10
5.7995797637795272
20
-4.8527974015748034
11
5.8117317322834641
21
-4.8253299606299214
0
LINE
8
BLACK
6
CONTINUOUS
10
5.8117317322834641
20
-4.8253299606299214
11
5.8226240157480316
21
-4.7973391338582676
0
LINE
8
BLACK
6
CONTINUOUS
10
5.8226240157480316
20
-4.7973391338582676
11
5.8322341338582673
21
-4.7688825590551183
0
LINE
8
BLACK
6
CONTINUOUS
10
5.8322341338582673
20
-4.7688825590551183
11
5.8405423228346454
21
-4.7400190157480315
0
LINE
8
BLACK
6
CONTINUOUS
10
5.8405423228346454
20
-4.7400190157480315
11
5.8475314173228341
21
-4.7108080314960628
0
LINE
8
BLACK
6
CONTINUOUS
10
5.8475314173228341
20
-4.7108080314960628
11
5.8531869685039366
21
-4.6813098031496061
0
LINE
8
BLACK
6
CONTINUOUS
10
5.8531869685039366
20
-4.6813098031496061
11
5.8574973622047244
21
-4.6515852362204724
0
LINE
8
BLACK
6
CONTINUOUS
10
5.8574973622047244
20
-4.6515852362204724
11
5.8604537007874011
21
-4.6216956299212599
0
LINE
8
BLACK
6
CONTINUOUS
10
5.8604537007874011
20
-4.6216956299212599
11
5.862049842519685
21
-4.5917025984251971
0
LINE
8
BLACK
6
CONTINUOUS
10
5.862049842519685
20
-4.5917025984251971
11
5.8621653149606301
21
-4.5766882283464563
0
LINE
8
BLACK
6
CONTINUOUS
10
5.8621653149606301
20
-4.5766882283464563
11
5.8616929133858262
21
-4.4775046850393698
0
LINE
8
BLACK
6
CONTINUOUS
10
5.8616929133858262
20
-4.4775046850393698
11
5.8616933464566925
21
-4.4775022834645668
0
LINE
8
BLACK
6
CONTINUOUS
10
5.8616933464566925
20
-4.4775022834645668
11
5.8616929133858262
21
-4.4775
0
LINE
8
BLACK
6
CONTINUOUS
10
5.8616929133858262
20
-4.4775
11
5.8616929133858262
21
-3.2525984251968505
0
LINE
8
BLACK
6
CONTINUOUS
10
5.8616929133858262
20
-3.2525984251968505
11
5.8616929133858262
21
-3.2497871653543307
0
LINE
8
BLACK
6
CONTINUOUS
10
5.8616929133858262
20
-3.2497871653543307
11
5.8605960236220467
21
-3.2442726377952753
0
LINE
8
BLACK
6
CONTINUOUS
10
5.8605960236220467
20
-3.2442726377952753
11
5.8584443700787396
21
-3.2390781102362203
0
LINE
8
BLACK
6
CONTINUOUS
10
5.8584443700787396
20
-3.2390781102362203
11
5.8553206299212599
21
-3.2344031102362205
0
LINE
8
BLACK
6
CONTINUOUS
10
5.8553206299212599
20
-3.2344031102362205
11
5.8513449212598427
21
-3.2304274015748029
0
LINE
8
BLACK
6
CONTINUOUS
10
5.8513449212598427
20
-3.2304274015748029
11
5.8466699212598421
21
-3.2273036614173227
0
LINE
8
BLACK
6
CONTINUOUS
10
5.8466699212598421
20
-3.2273036614173227
11
5.8414753937007875
21
-3.2251520078740157
0
LINE
8
BLACK
6
CONTINUOUS
10
5.8414753937007875
20
-3.2251520078740157
11
5.8359608661417326
21
-3.2240551181102362
0
LINE
8
BLACK
6
CONTINUOUS
10
5.8359608661417326
20
-3.2240551181102362
11
5.8331497637795273
21
-3.2240551181102362
0
LINE
8
BLACK
6
CONTINUOUS
10
5.8331497637795273
20
-3.2240551181102362
11
5.1755119685039368
21
-3.2241699606299212
0
LINE
8
BLACK
6
CONTINUOUS
10
5.1755119685039368
20
-3.2241699606299212
11
5.1755118503937005
21
-3.2241699212598425
0
LINE
8
BLACK
6
CONTINUOUS
10
5.1755118503937005
20
-3.2241699212598425
11
5.1755118110236218
21
-3.2241699606299212
0
LINE
8
BLACK
6
CONTINUOUS
10
5.1755118110236218
20
-3.2241699606299212
11
5.1685043307086609
21
-3.2235568897637794
0
LINE
8
BLACK
6
CONTINUOUS
10
5.1685043307086609
20
-3.2235568897637794
11
5.161709724409449
21
-3.2217362992125982
0
LINE
8
BLACK
6
CONTINUOUS
10
5.161709724409449
20
-3.2217362992125982
11
5.155334527559055
21
-3.2187635433070865
0
LINE
8
BLACK
6
CONTINUOUS
10
5.155334527559055
20
-3.2187635433070865
11
5.149572362204724
21
-3.2147288976377952
0
LINE
8
BLACK
6
CONTINUOUS
10
5.149572362204724
20
-3.2147288976377952
11
5.1445983464566929
21
-3.2097549606299212
0
LINE
8
BLACK
6
CONTINUOUS
10
5.1445983464566929
20
-3.2097549606299212
11
5.1405635826771654
21
-3.2039928740157482
0
LINE
8
BLACK
6
CONTINUOUS
10
5.1405635826771654
20
-3.2039928740157482
11
5.137590708661417
21
-3.1976176771653542
0
LINE
8
BLACK
6
CONTINUOUS
10
5.137590708661417
20
-3.1976176771653542
11
5.1357699999999999
21
-3.1908231496062993
0
LINE
8
BLACK
6
CONTINUOUS
10
5.1357699999999999
20
-3.1908231496062993
11
5.1351568110236219
21
-3.1838156299212597
0
LINE
8
BLACK
6
CONTINUOUS
10
5.1351568110236219
20
-3.1838156299212597
11
5.1351574803149607
21
-3.1838156299212597
0
LINE
8
BLACK
6
CONTINUOUS
10
5.1351574803149607
20
-3.1838156299212597
11
5.1351574803149607
21
-3.1838155118110234
0
LINE
8
BLACK
6
CONTINUOUS
10
5.1351574803149607
20
-3.1838155118110234
11
5.1351574803149607
21
-3.1838153937007871
0
LINE
8
BLACK
6
CONTINUOUS
10
5.1351574803149607
20
-3.1838153937007871
11
5.1353543307086609
21
-2.3414564566929132
0
LINE
8
BLACK
6
CONTINUOUS
10
5.1353543307086609
20
-2.3414564566929132
11
5.1353543307086609
21
-2.3414564173228345
0
LINE
8
BLACK
6
CONTINUOUS
10
5.1353543307086609
20
-2.3414564173228345
11
5.1353555511811022
21
-2.3387439763779527
0
LINE
8
BLACK
6
CONTINUOUS
10
5.1353555511811022
20
-2.3387439763779527
11
5.134333582677165
21
-2.3334157086614171
0
LINE
8
BLACK
6
CONTINUOUS
10
5.134333582677165
20
-2.3334157086614171
11
5.1323262598425199
21
-2.3283753543307086
0
LINE
8
BLACK
6
CONTINUOUS
10
5.1323262598425199
20
-2.3283753543307086
11
5.1294054330708656
21
-2.3238033070866142
0
LINE
8
BLACK
6
CONTINUOUS
10
5.1294054330708656
20
-2.3238033070866142
11
5.1256756692913381
21
-2.3198632677165354
0
LINE
8
BLACK
6
CONTINUOUS
10
5.1256756692913381
20
-2.3198632677165354
11
5.121270472440945
21
-2.3166963779527561
0
LINE
8
BLACK
6
CONTINUOUS
10
5.121270472440945
20
-2.3166963779527561
11
5.1188425590551176
21
-2.3155730314960628
0
LINE
8
BLACK
6
CONTINUOUS
10
5.1188425590551176
20
-2.3155730314960628
11
5.0771930708661417
21
-2.2996338976377952
0
LINE
8
BLACK
6
CONTINUOUS
10
5.0771930708661417
20
-2.2996338976377952
11
4.9933464960629923
21
-2.2690508267716534
0
LINE
8
BLACK
6
CONTINUOUS
10
4.9933464960629923
20
-2.2690508267716534
11
4.9090287795275591
21
-2.2397918110236219
0
LINE
8
BLACK
6
CONTINUOUS
10
4.9090287795275591
20
-2.2397918110236219
11
4.8242607874015748
21
-2.2118641338582679
0
LINE
8
BLACK
6
CONTINUOUS
10
4.8242607874015748
20
-2.2118641338582679
11
4.7390635433070862
21
-2.1852746456692911
0
LINE
8
BLACK
6
CONTINUOUS
10
4.7390635433070862
20
-2.1852746456692911
11
4.6534581889763782
21
-2.1600299999999999
0
LINE
8
BLACK
6
CONTINUOUS
10
4.6534581889763782
20
-2.1600299999999999
11
4.5674659448818895
21
-2.1361364566929133
0
LINE
8
BLACK
6
CONTINUOUS
10
4.5674659448818895
20
-2.1361364566929133
11
4.48110811023622
21
-2.1135999212598424
0
LINE
8
BLACK
6
CONTINUOUS
10
4.48110811023622
20
-2.1135999212598424
11
4.3944061417322837
21
-2.0924259842519684
0
LINE
8
BLACK
6
CONTINUOUS
10
4.3944061417322837
20
-2.0924259842519684
11
4.3073814960629919
21
-2.0726198425196851
0
LINE
8
BLACK
6
CONTINUOUS
10
4.3073814960629919
20
-2.0726198425196851
11
4.2200557874015745
21
-2.0541865354330708
0
LINE
8
BLACK
6
CONTINUOUS
10
4.2200557874015745
20
-2.0541865354330708
11
4.1324506299212596
21
-2.0371305118110237
0
LINE
8
BLACK
6
CONTINUOUS
10
4.1324506299212596
20
-2.0371305118110237
11
4.0445877559055115
21
-2.0214560629921259
0
LINE
8
BLACK
6
CONTINUOUS
10
4.0445877559055115
20
-2.0214560629921259
11
3.9564890157480312
21
-2.0071670472440943
0
LINE
8
BLACK
6
CONTINUOUS
10
3.9564890157480312
20
-2.0071670472440943
11
3.8681761417322833
21
-1.9942670078740157
0
LINE
8
BLACK
6
CONTINUOUS
10
3.8681761417322833
20
-1.9942670078740157
11
3.7796711417322832
21
-1.9827591732283465
0
LINE
8
BLACK
6
CONTINUOUS
10
3.7796711417322832
20
-1.9827591732283465
11
3.6909958661417321
21
-1.9726463779527559
0
LINE
8
BLACK
6
CONTINUOUS
10
3.6909958661417321
20
-1.9726463779527559
11
3.6021723622047244
21
-1.9639311023622046
0
LINE
8
BLACK
6
CONTINUOUS
10
3.6021723622047244
20
-1.9639311023622046
11
3.5132226771653543
21
-1.9566155905511811
0
LINE
8
BLACK
6
CONTINUOUS
10
3.5132226771653543
20
-1.9566155905511811
11
3.4241687795275588
21
-1.9507015748031495
0
LINE
8
BLACK
6
CONTINUOUS
10
3.4241687795275588
20
-1.9507015748031495
11
3.3796259842519683
21
-1.948447283464567
0
LINE
8
BLACK
6
CONTINUOUS
10
3.3796259842519683
20
-1.948447283464567
11
3.2231501968503937
21
-1.9485433070866141
  0
ENDSEC
  0
EOF
